<svg width="556.783325" height="586.844360" viewBox="0 0 556.783 586.844" fill="none" xmlns="http://www.w3.org/2000/svg" xmlns:xlink="http://www.w3.org/1999/xlink">
	<desc>
			Created with Pixso.
	</desc>
	<defs>
		<linearGradient x1="278.391724" y1="580.645020" x2="278.391724" y2="15.856934" id="paint_linear_42_3659_0" gradientUnits="userSpaceOnUse">
			<stop stop-color="#EB8382"/>
			<stop offset="1.000000" stop-color="#EB8382" stop-opacity="0.000000"/>
		</linearGradient>
		<linearGradient x1="278.391724" y1="580.645020" x2="278.391724" y2="15.856934" id="paint_linear_42_3659_1" gradientUnits="userSpaceOnUse">
			<stop stop-color="#EB8382"/>
			<stop offset="1.000000" stop-color="#EB8382" stop-opacity="0.000000"/>
		</linearGradient>
		<linearGradient x1="340.602325" y1="358.816589" x2="197.857910" y2="605.153320" id="paint_linear_42_3524_0" gradientUnits="userSpaceOnUse">
			<stop stop-color="#DFB8BF"/>
			<stop offset="0.961700" stop-color="#EB8382"/>
		</linearGradient>
		<linearGradient x1="133.739227" y1="396.565948" x2="202.660904" y2="461.781158" id="paint_linear_42_3560_0" gradientUnits="userSpaceOnUse">
			<stop stop-color="#4499D9"/>
			<stop offset="1.000000" stop-color="#6E6CC1"/>
		</linearGradient>
		<linearGradient x1="107.272385" y1="387.880127" x2="143.543152" y2="440.840759" id="paint_linear_42_3561_0" gradientUnits="userSpaceOnUse">
			<stop stop-color="#4499D9"/>
			<stop offset="1.000000" stop-color="#6E6CC1"/>
		</linearGradient>
		<linearGradient x1="198.001617" y1="191.512451" x2="198.001617" y2="230.337341" id="paint_linear_42_3571_0" gradientUnits="userSpaceOnUse">
			<stop stop-color="#6379E3"/>
			<stop offset="1.000000" stop-color="#D574C9"/>
		</linearGradient>
		<linearGradient x1="174.516312" y1="220.856934" x2="174.516312" y2="245.097900" id="paint_linear_42_3608_0" gradientUnits="userSpaceOnUse">
			<stop stop-color="#EB8382"/>
			<stop offset="1.000000" stop-color="#EB8382" stop-opacity="0.000000"/>
		</linearGradient>
		<linearGradient x1="167.757980" y1="194.343384" x2="167.757980" y2="232.304062" id="paint_linear_42_3612_0" gradientUnits="userSpaceOnUse">
			<stop stop-color="#EB8382"/>
			<stop offset="1.000000" stop-color="#EB8382" stop-opacity="0.000000"/>
		</linearGradient>
		<linearGradient x1="139.555374" y1="413.838867" x2="161.128342" y2="428.045074" id="paint_linear_42_3613_0" gradientUnits="userSpaceOnUse">
			<stop stop-color="#4499D9"/>
			<stop offset="1.000000" stop-color="#6E6CC1"/>
		</linearGradient>
		<linearGradient x1="106.024376" y1="399.279572" x2="119.333626" y2="415.763275" id="paint_linear_42_3614_0" gradientUnits="userSpaceOnUse">
			<stop stop-color="#4499D9"/>
			<stop offset="1.000000" stop-color="#6E6CC1"/>
		</linearGradient>
	</defs>
	<path id="Vector" d="M320.6 580.59C396.11 579.25 512.9 550.66 546.52 477.16C558.27 451.49 557.47 413.75 555.88 338.28C555.41 316.09 554.63 283.76 549.19 243.64C537.89 160.3 530.19 103.58 501.06 70.53C428.09 -12.25 164.47 -9.85 51.89 139.16C-9.51 220.45 -18.96 336.11 37.19 431.67C99.02 536.92 219.54 582.37 320.6 580.59Z" fill="url(#paint_linear_42_3659_0)" fill-opacity="0.170000" fill-rule="nonzero"/>
	<path id="Vector" d="M320.6 580.59C396.11 579.25 512.9 550.66 546.52 477.16C558.27 451.49 557.47 413.75 555.88 338.28C555.41 316.09 554.63 283.76 549.19 243.64C537.89 160.3 530.19 103.58 501.06 70.53C428.09 -12.25 164.47 -9.85 51.89 139.16C-9.51 220.45 -18.96 336.11 37.19 431.67C99.02 536.92 219.54 582.37 320.6 580.59Z" fill="url(#paint_linear_42_3659_1)" fill-opacity="0" fill-rule="nonzero"/>
	<g opacity="0.500000">
		<path id="Vector" d="M193.79 574.21C236.94 551.83 308.76 511.78 361.96 477.62C415.15 443.47 440.57 416.67 409.83 398.71C374.66 378.39 308.46 401.95 249.35 440.81C184.63 483.51 155.96 507.07 125.52 530.04C106.01 544.76 116.36 557.13 135.27 568.91C154.48 580.98 169.85 586.58 193.79 574.21Z" fill="url(#paint_linear_42_3524_0)" fill-opacity="1.000000" fill-rule="nonzero"/>
	</g>
	<path id="Vector" d="M232.21 3.73L514.64 166.12L514.64 388.49L232.21 226.09L232.21 3.73Z" fill="#826F8C" fill-opacity="0.900000" fill-rule="nonzero"/>
	<path id="Vector" d="M520.96 162.39L514.64 166.12L514.64 388.48L520.96 384.75L520.96 162.39Z" fill="#446381" fill-opacity="1.000000" fill-rule="nonzero"/>
	<path id="Vector" d="M508.78 170.09L508.78 302.15L237.6 146.06L237.6 14.23L508.78 170.09Z" fill="#506898" fill-opacity="1.000000" fill-rule="nonzero"/>
	<path id="Vector" d="M341.34 205.79L408.32 244.29L429.63 332.25L293.57 253.86L341.34 205.79Z" fill="#786D8A" fill-opacity="1.000000" fill-rule="nonzero"/>
	<path id="Vector" d="M260.55 68.83C260.55 62.99 264.29 60.19 268.74 62.76C269.68 63.46 270.85 64.16 271.79 65.09C273.66 62.29 276.94 61.59 280.69 63.69C285.14 66.26 288.65 71.86 290.29 77.69C291.69 76.76 293.57 76.76 295.67 78.16C298.72 80.03 301.53 83.76 302.93 87.73C303.87 87.73 304.81 87.96 305.98 88.43C309.02 90.06 311.6 94.26 312.3 98.23L260.55 68.83Z" fill="#FFFFFF" fill-opacity="1.000000" fill-rule="nonzero"/>
	<path id="Vector" d="M491.69 202.06C491.45 194.82 487.24 186.42 481.85 183.39C480.68 182.69 479.51 182.22 478.34 182.22C476 176.39 472.25 171.02 467.8 168.46C462.65 165.42 458.2 167.06 456.09 171.96C454.45 168.92 452.11 166.36 449.53 164.96C445.79 162.86 442.74 163.56 440.87 166.59C439.7 165.19 438.53 164.02 437.12 163.32C433.61 161.22 430.56 162.62 429.63 166.36L491.69 202.06Z" fill="#FFFFFF" fill-opacity="1.000000" fill-rule="nonzero"/>
	<path id="Vector" d="M314.41 112.46C314.88 108.96 317.22 107.33 320.26 109.19C321.67 109.89 322.84 111.29 324.01 112.93C325.18 110.59 327.76 109.89 330.33 111.53C333.61 113.39 336.42 117.83 337.36 122.26C338.06 122.03 339.23 122.26 340.17 122.73C342.28 123.89 344.15 126.93 344.85 129.96L314.41 112.46Z" fill="#FFFFFF" fill-opacity="1.000000" fill-rule="nonzero"/>
	<path id="Vector" d="M410.89 185.72C411.36 182.46 413.47 181.06 416.28 182.69C417.45 183.39 418.62 184.79 419.56 186.19C420.73 184.09 422.84 183.39 425.41 184.79C428.46 186.42 431.03 190.62 431.74 194.59C432.44 194.36 433.37 194.59 434.31 195.06C436.42 196.22 438.06 199.02 438.76 201.59L410.89 185.72Z" fill="#FFFFFF" fill-opacity="1.000000" fill-rule="nonzero"/>
	<path id="Vector" d="M248.6 97.29C249.07 94.03 251.18 92.63 253.99 94.26C255.16 94.96 256.33 96.36 257.27 97.76C258.44 95.66 260.55 94.96 263.12 96.36C266.17 97.99 268.74 102.19 269.45 106.16C270.15 105.93 271.09 106.16 272.02 106.63C274.13 107.79 275.77 110.59 276.47 113.16L248.6 97.29Z" fill="#FFFFFF" fill-opacity="1.000000" fill-rule="nonzero"/>
	<path id="Vector" d="M392.63 161.92C393.1 158.66 395.2 157.26 398.01 158.89C399.18 159.59 400.35 160.99 401.29 162.39C402.46 160.29 404.57 159.59 407.15 160.99C410.19 162.62 412.77 166.82 413.47 170.79C414.17 170.56 415.11 170.79 416.05 171.26C418.15 172.42 419.79 175.22 420.49 177.79L392.63 161.92Z" fill="#FFFFFF" fill-opacity="1.000000" fill-rule="nonzero"/>
	<path id="Vector" d="M430.56 223.52C431.5 219.79 434.78 222.59 437.59 224.22C435.95 219.09 437.12 213.96 441.1 216.76C441.1 214.42 441.81 212.09 443.68 212.79C444.15 212.79 444.38 213.02 444.85 213.49C444.38 211.39 444.62 209.52 445.55 208.36C448.13 205.79 452.11 209.99 453.28 214.89C456.32 214.42 460.54 215.59 462.41 221.19C467.57 220.26 472.72 231.92 470.38 235.66C473.65 238.22 475.53 244.99 472.72 245.92C478.1 253.39 477.87 263.65 472.02 264.12C472.72 271.35 467.33 274.15 462.65 266.92C461.95 267.15 461.48 267.39 460.77 267.39C460.07 271.12 459.37 275.79 459.37 279.52C459.14 286.29 459.37 294.69 459.37 302.62C459.37 309.39 460.31 318.72 460.54 321.29L449.3 314.75C450 313.12 451.64 307.99 452.11 302.85C452.58 296.79 452.81 280.22 450.94 275.79C449.07 271.59 443.68 263.42 442.04 257.35C441.34 255.02 440.87 252.69 440.63 250.82C436.19 247.79 431.74 240.32 434.78 234.96C432.2 231.92 429.86 227.02 430.56 223.52ZM444.15 259.22C446.96 264.35 452.34 272.99 452.34 272.99C452.34 272.99 452.34 266.92 452.81 261.79C452.58 261.32 452.58 260.85 452.34 260.62C450.47 260.85 448.36 258.99 446.49 255.96C445.79 255.02 445.08 253.86 444.62 252.69C443.91 252.92 442.98 252.92 442.27 252.46C442.51 254.32 442.98 256.89 444.15 259.22Z" fill="#EFC8C5" fill-opacity="1.000000" fill-rule="nonzero"/>
	<path id="Vector" d="M322.84 150.96C321.9 146.06 318.62 145.12 315.81 143.72C317.45 140.46 316.28 133.92 312.3 132.29C312.3 129.96 311.6 126.93 309.73 125.29C309.26 125.06 309.02 124.83 308.55 124.83C309.02 123.43 308.79 121.09 307.85 118.76C305.28 113.39 301.29 112.93 300.12 116.43C297.08 112.46 292.86 108.73 290.99 112.23C285.84 105.23 280.69 111.06 283.03 117.59C279.75 116.19 277.88 121.09 280.69 125.29C275.3 126.46 275.54 136.96 281.39 144.42C280.69 150.96 286.07 159.82 290.76 158.19C291.46 159.12 291.93 160.06 292.63 160.99C293.33 165.42 294.04 171.02 294.04 174.76C294.27 181.76 294.04 189.92 294.04 197.86C294.04 204.62 293.1 212.79 292.86 215.12L304.1 221.66C303.4 219.32 301.76 212.09 301.29 206.49C300.83 199.72 300.59 182.92 302.47 181.06C304.34 179.19 309.73 176.86 311.37 172.89C312.07 171.26 312.54 169.62 312.77 168.22C317.22 170.32 321.67 167.76 318.62 159.36C321.2 157.72 323.78 155.62 322.84 150.96ZM309.26 171.26C306.45 173.36 301.06 175.46 301.06 175.46C301.06 175.46 301.06 169.39 300.59 163.79C300.83 163.56 300.83 163.32 301.06 163.09C302.93 165.66 305.04 166.12 306.92 165.19C307.62 164.96 308.32 164.72 308.79 164.02C309.49 164.96 310.43 165.89 311.13 166.59C310.9 168.46 310.43 170.32 309.26 171.26Z" fill="#EFC8C5" fill-opacity="1.000000" fill-rule="nonzero"/>
	<path id="Vector" d="M436.18 300.05C435.95 298.89 436.18 297.72 436.89 297.02C438.06 295.85 439.7 296.55 441.1 297.95C441.34 296.32 441.81 294.92 442.98 295.15C443.91 295.39 444.85 296.32 445.79 297.49C445.55 296.09 445.79 294.92 446.49 294.22C447.43 292.82 449.3 293.29 450.94 294.45C452.58 295.62 453.75 297.95 454.45 300.29C454.92 300.52 455.39 300.99 456.09 301.45C457.26 302.15 458.2 302.85 459.13 304.02C460.54 305.89 461.01 307.99 460.77 309.85C462.65 311.02 464.76 312.89 465.69 315.92C466.63 319.42 465.22 320.59 463.35 320.82C463.82 322.22 464.05 323.62 463.58 324.79C462.88 327.59 460.31 326.65 458.2 325.25C456.56 327.35 453.05 325.49 450.7 322.22C448.83 323.15 444.85 320.82 443.21 316.85C441.81 318.25 439.7 317.79 437.59 315.22C435.25 312.42 435.25 309.39 436.18 307.52C435.25 306.59 434.55 304.95 434.31 303.55C433.37 300.75 434.55 299.59 436.18 300.05Z" fill="#F5E2E1" fill-opacity="1.000000" fill-rule="nonzero"/>
	<path id="Vector" d="M286.07 203.92C285.84 202.76 286.07 201.59 286.78 200.89C287.95 199.72 289.59 200.42 290.99 201.82C291.23 200.19 291.69 198.79 292.86 199.02C293.8 199.26 294.74 200.19 295.68 201.36C295.44 199.96 295.67 198.79 296.38 198.09C297.31 196.69 299.19 197.16 300.83 198.32C302.47 199.49 303.64 201.82 304.34 204.16C304.81 204.39 305.28 204.86 305.98 205.32C307.15 206.02 308.09 206.72 309.02 207.89C310.43 209.76 310.9 211.86 310.66 213.72C312.54 214.89 314.64 216.76 315.58 219.79C316.52 223.29 315.11 224.46 313.24 224.69C313.71 226.09 313.94 227.49 313.47 228.66C312.77 231.46 310.19 230.52 308.09 229.12C306.45 231.22 302.93 229.36 300.59 226.09C298.72 227.02 294.74 224.69 293.1 220.72C291.69 222.12 289.59 221.66 287.48 219.09C285.14 216.29 285.14 213.26 286.07 211.39C285.14 210.46 284.43 208.82 284.2 207.42C283.26 204.62 284.67 203.22 286.07 203.92Z" fill="#F5E2E1" fill-opacity="1.000000" fill-rule="nonzero"/>
	<path id="Vector" d="M259.14 202.29C258.91 201.59 259.14 200.66 259.61 200.42C260.31 199.72 261.25 200.19 262.19 201.12C262.19 200.19 262.65 199.26 263.36 199.49C263.82 199.49 264.53 200.19 265 200.89C264.76 199.96 265 199.26 265.47 198.79C266.17 197.86 267.1 198.09 268.28 199.02C269.21 199.72 270.15 201.12 270.62 202.52C270.85 202.76 271.32 202.99 271.79 203.22C272.49 203.69 272.96 203.92 273.66 204.86C274.6 206.02 274.83 207.42 274.6 208.59C275.77 209.29 277.17 210.46 277.64 212.32C278.35 214.66 277.41 215.36 276.24 215.36C276.47 216.06 276.71 216.99 276.47 217.69C276 219.32 274.36 218.86 272.96 217.92C272.02 219.09 269.68 217.92 268.28 216.06C267.1 216.52 264.53 215.12 263.59 212.56C262.65 213.49 261.25 213.26 260.08 211.62C258.67 209.99 258.67 208.12 259.14 206.72C258.67 206.02 258.21 205.09 257.97 204.39C257.5 202.76 258.21 201.82 259.14 202.29Z" fill="#F5E2E1" fill-opacity="1.000000" fill-rule="nonzero"/>
	<path id="Vector" d="M425.41 273.22C425.18 272.52 425.41 271.59 425.88 271.35C426.58 270.65 427.52 271.12 428.46 272.05C428.46 271.12 428.93 270.19 429.63 270.42C430.1 270.42 430.8 271.12 431.27 271.82C431.03 270.89 431.27 270.19 431.74 269.72C432.44 268.79 433.37 269.02 434.55 269.95C435.48 270.65 436.42 272.05 436.89 273.45C437.12 273.69 437.59 273.92 438.06 274.15C438.76 274.62 439.23 274.85 439.93 275.79C440.87 276.95 441.1 278.35 440.87 279.52C442.04 280.22 443.44 281.39 443.91 283.25C444.62 285.59 443.68 286.29 442.51 286.29C442.74 286.99 442.98 287.92 442.74 288.62C442.27 290.25 440.63 289.79 439.23 288.85C438.29 290.02 435.95 288.85 434.55 286.99C433.37 287.45 430.8 286.05 429.86 283.49C428.93 284.42 427.52 284.19 426.35 282.55C424.94 280.92 424.94 279.05 425.41 277.65C424.94 276.95 424.48 276.02 424.24 275.32C423.54 273.45 424.24 272.75 425.41 273.22Z" fill="#F5E2E1" fill-opacity="1.000000" fill-rule="nonzero"/>
	<path id="Vector" d="M249.54 172.42C249.31 171.49 249.54 170.56 250.01 170.09C250.95 169.16 252.12 169.86 253.29 171.02C253.52 169.86 253.76 168.69 254.93 168.69C255.63 168.69 256.57 169.62 257.03 170.56C256.8 169.39 257.03 168.46 257.5 167.76C258.21 166.82 259.61 166.82 261.01 167.99C262.19 168.92 263.36 170.79 263.82 172.66C264.29 172.89 264.53 173.12 265.23 173.59C266.17 174.06 266.87 174.52 267.57 175.69C268.51 177.32 268.98 178.96 268.98 180.36C270.62 181.29 272.26 182.69 272.96 185.26C273.66 188.06 272.49 188.99 271.09 189.22C271.55 190.16 271.55 191.32 271.32 192.26C270.62 194.36 268.74 193.89 266.87 192.49C265.47 194.12 262.66 192.72 261.01 190.16C259.61 190.86 256.33 188.99 255.16 185.72C253.99 186.89 252.35 186.42 250.48 184.56C248.6 182.22 248.6 179.89 249.31 178.26C248.6 177.56 247.9 176.16 247.67 175.22C247.43 172.89 248.37 171.96 249.54 172.42Z" fill="#F5E2E1" fill-opacity="1.000000" fill-rule="nonzero"/>
	<path id="Vector" d="M472.95 302.15C472.72 301.22 472.95 300.29 473.42 299.82C474.36 298.89 475.53 299.59 476.7 300.75C476.93 299.59 477.17 298.42 478.34 298.42C479.04 298.42 479.98 299.35 480.45 300.29C480.21 299.12 480.45 298.19 480.91 297.49C481.62 296.55 483.02 296.55 484.43 297.72C485.6 298.65 486.77 300.52 487.24 302.39C487.71 302.62 487.94 302.85 488.64 303.32C489.58 303.79 490.28 304.25 490.98 305.42C491.92 307.05 492.39 308.69 492.39 310.09C494.03 311.02 495.67 312.42 496.37 314.99C497.07 317.79 495.9 318.72 494.5 318.95C494.96 319.89 494.96 321.05 494.73 321.99C494.03 324.09 492.15 323.62 490.28 322.22C488.88 323.85 486.07 322.45 484.43 319.89C483.02 320.59 479.74 318.72 478.57 315.45C477.4 316.62 475.76 316.15 473.89 314.29C472.02 311.95 472.02 309.62 472.72 307.99C472.02 307.29 471.31 305.89 471.08 304.95C470.84 302.62 471.78 301.69 472.95 302.15Z" fill="#F5E2E1" fill-opacity="1.000000" fill-rule="nonzero"/>
	<path id="Vector" d="M370.61 237.52L375.53 225.16L377.64 226.32L375.3 240.09C373.89 239.39 372.25 238.46 370.61 237.52Z" fill="#FFFFFF" fill-opacity="1.000000" fill-rule="nonzero"/>
	<path id="Vector" d="M364.29 252.92L369.44 240.09C371.08 241.02 372.96 241.96 374.83 242.89L372.25 257.35C369.68 255.96 367.1 254.32 364.29 252.92Z" fill="#FFFFFF" fill-opacity="1.000000" fill-rule="nonzero"/>
	<path id="Vector" d="M357.27 269.96L363.35 255.26C366.16 256.89 368.97 258.52 371.78 260.16L368.27 276.72C364.76 274.39 361.01 272.06 357.27 269.96Z" fill="#FFFFFF" fill-opacity="1.000000" fill-rule="nonzero"/>
	<path id="Vector" d="M367.8 280.69L364.76 294.92L350.24 286.52L355.86 273.22C359.84 275.55 363.82 278.12 367.8 280.69Z" fill="#FFFFFF" fill-opacity="1.000000" fill-rule="nonzero"/>
	<path id="Vector" d="M520.96 162.39L514.64 166.12L232.21 3.73L238.53 0L520.96 162.39Z" fill="#826F8C" fill-opacity="1.000000" fill-rule="nonzero"/>
	<path id="Vector" d="M230.1 240.38C236.18 240.38 240.91 243.41 240.91 246.78C240.91 250.48 236.18 253.17 230.1 253.17C224.02 253.17 219.29 250.14 219.29 246.78C219.29 243.41 224.35 240.38 230.1 240.38Z" fill="#002F68" fill-opacity="1.000000" fill-rule="nonzero"/>
	<path id="Vector" d="M230.44 240.38C234.83 240.38 238.55 242.4 238.55 244.76C238.55 247.11 234.83 249.13 230.44 249.13C226.04 249.13 222.33 247.11 222.33 244.76C222.33 242.4 226.04 240.38 230.44 240.38Z" fill="#DF8083" fill-opacity="1.000000" fill-rule="nonzero"/>
	<path id="Vector" d="M230.1 251.49C230.1 251.49 228.07 257.21 228.07 264.28C227.73 271.35 228.41 282.8 224.02 287.85C219.62 293.24 215.57 286.51 215.57 279.1C215.23 271.69 219.62 247.11 219.62 247.11L230.1 251.49Z" fill="#002F68" fill-opacity="1.000000" fill-rule="nonzero"/>
	<path id="Vector" d="M229.09 264.28C229.09 264.28 227.73 262.6 225.71 263.27C224.35 263.61 221.65 265.29 220.64 265.29C219.62 265.29 217.26 263.27 217.26 263.27L218.27 257.21C218.27 257.21 212.19 259.57 211.18 264.96C209.82 270.34 207.46 271.35 202.05 273.38C196.65 275.4 190.9 279.1 190.9 279.1L199.35 292.57C199.35 292.57 212.87 280.45 214.22 279.1C215.57 277.75 220.3 273.04 221.31 272.03C221.99 271.02 224.69 268.32 225.71 267.65C226.38 266.3 229.09 264.28 229.09 264.28Z" fill="#FFC5B3" fill-opacity="1.000000" fill-rule="nonzero"/>
	<path id="Vector" d="M227.73 473.36C227.73 473.36 211.18 504.34 207.46 517.47C205.43 524.54 200.7 550.8 200.7 550.8C200.7 550.8 203.74 546.76 208.47 545.41C211.51 544.74 215.91 544.07 218.61 547.77C223.34 553.83 224.02 558.21 216.58 564.94C213.54 567.97 207.8 572.68 203.07 577.06C197.32 582.11 190.56 587.16 184.82 586.82C178.74 586.49 174.68 583.46 175.02 576.39C175.36 572.35 178.4 565.95 178.4 563.59C179.07 557.2 180.43 517.47 183.13 492.89C184.48 480.43 187.86 473.36 187.86 473.36L227.73 473.36Z" fill="#FFC5B3" fill-opacity="1.000000" fill-rule="nonzero"/>
	<path id="Vector" d="M158.46 434.31C158.46 434.31 141.9 465.28 138.19 478.41C136.16 485.48 129.06 515.11 129.06 515.11C129.06 515.11 138.52 507.37 147.65 510.73C156.1 513.76 151.7 519.82 144.61 526.22C141.57 529.25 137.17 532.28 132.44 536.32C126.7 541.37 125.01 543.06 121.63 544.07C115.88 545.75 108.79 545.08 109.13 538.01C109.46 533.96 109.8 526.89 110.14 524.54C110.81 518.14 112.17 478.41 114.87 453.84C116.22 441.38 119.6 434.31 119.6 434.31L158.46 434.31Z" fill="#FFC5B3" fill-opacity="1.000000" fill-rule="nonzero"/>
	<path id="Vector" d="M188.2 398.96C188.2 398.96 212.87 433.3 220.3 447.78C222.66 452.49 229.09 462.93 229.09 467.98C229.09 473.7 227.06 480.43 227.06 480.43C227.06 480.43 212.19 492.55 200.02 490.53C185.83 488.18 181.44 480.1 181.44 480.1C181.44 480.1 161.5 455.86 153.05 447.78C144.61 439.69 130.41 422.86 125.68 410.74C121.97 401.65 119.26 378.42 125.68 371.01C132.1 363.6 188.2 398.96 188.2 398.96Z" fill="url(#paint_linear_42_3560_0)" fill-opacity="1.000000" fill-rule="nonzero"/>
	<path id="Vector" d="M157.45 382.46L155.76 431.95C155.76 431.95 154.07 449.8 153.05 456.53C147.31 462.25 140.89 464.95 134.81 464.27C121.63 462.25 112.17 453.5 112.17 453.5C112.17 453.5 98.65 401.99 101.35 390.54C104.06 379.09 113.18 366.3 113.18 366.3L157.45 382.46Z" fill="url(#paint_linear_42_3561_0)" fill-opacity="1.000000" fill-rule="nonzero"/>
	<path id="Vector" d="M184.48 271.35C184.48 271.35 196.98 274.72 201.04 282.47C205.77 291.22 210.5 306.03 206.11 320.85C201.71 335.66 191.24 360.57 189.21 365.29C187.52 370 195.29 378.08 193.6 381.45C191.58 384.82 187.52 389.19 189.89 390.54C192.25 391.89 193.6 399.29 193.6 399.29C193.6 399.29 161.5 413.77 140.89 405.69C120.61 397.61 103.72 381.11 103.72 381.11C103.72 381.11 106.08 371.35 110.14 365.96C114.19 360.57 110.81 351.15 114.53 348.45C118.25 345.76 125.34 344.41 124.67 340.04C123.99 335.66 120.95 293.24 131.09 279.77C141.23 266.3 159.81 264.62 159.81 264.62L184.48 271.35Z" fill="#446381" fill-opacity="1.000000" fill-rule="nonzero"/>
	<path id="Vector" d="M167.92 205.37C156.43 207.05 147.65 213.11 147.65 220.18C147.65 220.52 147.65 220.52 147.65 220.85C147.65 222.2 148.32 223.55 149 224.89C150.01 223.21 151.36 221.53 153.39 220.18C157.11 217.49 162.18 215.47 167.92 214.46L167.92 205.37Z" fill="#0E58C4" fill-opacity="1.000000" fill-rule="nonzero"/>
	<path id="Vector" d="M167.92 205.7C156.43 207.39 147.99 213.45 147.99 220.52C147.99 220.85 147.99 220.85 147.99 221.19C147.99 222.54 148.66 223.88 149.34 225.23C150.35 223.55 151.7 221.86 153.73 220.52C157.11 217.82 162.18 215.8 167.92 215.13L167.92 205.7Z" fill="#37A0F5" fill-opacity="1.000000" fill-rule="nonzero"/>
	<path id="Vector" d="M186.17 210.42L216.58 227.92C218.27 228.93 219.96 227.92 219.96 225.57L219.96 213.45C219.96 211.09 218.61 208.4 216.58 207.39L186.17 189.88C184.48 188.87 182.79 189.88 182.79 192.23L182.79 204.36C183.13 206.71 184.48 209.41 186.17 210.42Z" fill="#786D8A" fill-opacity="1.000000" fill-rule="nonzero"/>
	<path id="Vector" d="M215.23 229.94L218.61 227.92L217.6 225.57L213.54 227.25C213.54 227.59 215.23 229.94 215.23 229.94Z" fill="#7A6D8B" fill-opacity="1.000000" fill-rule="nonzero"/>
	<path id="Vector" d="M180.76 191.56L184.14 189.54L185.49 190.89L182.45 193.92L180.76 191.56Z" fill="#806E8B" fill-opacity="1.000000" fill-rule="nonzero"/>
	<path id="Vector" d="M182.79 212.44L213.2 229.94C214.89 230.95 216.58 229.94 216.58 227.59L216.58 215.47C216.58 213.11 215.23 210.42 213.2 209.41L182.79 191.9C181.1 190.89 179.41 191.9 179.41 194.25L179.41 206.38C179.75 208.73 181.1 211.43 182.79 212.44Z" fill="url(#paint_linear_42_3571_0)" fill-opacity="1.000000" fill-rule="nonzero"/>
	<path id="Vector" d="M180.76 191.56L168.94 198.29L203.4 236.68L215.23 229.94L180.76 191.56Z" fill="#A676D4" fill-opacity="1.000000" fill-rule="nonzero"/>
	<path id="Vector" d="M213.2 228.93L208.47 231.63C207.46 231.96 206.78 231.63 206.78 230.28L206.78 224.22C206.78 223.21 207.46 221.53 208.47 221.19L213.2 218.5C214.22 218.16 214.89 218.5 214.89 219.84L214.89 225.9C214.89 227.25 214.22 228.6 213.2 228.93Z" fill="#41A0E2" fill-opacity="1.000000" fill-rule="nonzero"/>
	<path id="Vector" d="M214.22 218.5L213.88 218.16L213.54 218.5L214.22 218.83L214.22 218.5Z" fill="#41A0E2" fill-opacity="1.000000" fill-rule="nonzero"/>
	<path id="Vector" d="M207.12 231.63L207.8 231.63L207.12 231.29L207.12 231.63Z" fill="#41A0E2" fill-opacity="1.000000" fill-rule="nonzero"/>
	<path id="Vector" d="M212.87 228.93L208.13 231.63C207.12 231.96 206.44 231.63 206.44 230.28L206.44 224.22C206.44 223.21 207.12 221.53 208.13 221.19L212.87 218.5C213.88 218.16 214.55 218.5 214.55 219.84L214.55 225.9C214.55 226.91 213.88 228.26 212.87 228.93Z" fill="#FFFFFF" fill-opacity="1.000000" fill-rule="nonzero"/>
	<path id="Vector" d="M212.53 223.88C212.53 225.23 211.51 226.91 210.5 227.59C209.49 228.26 208.47 227.59 208.47 226.24C208.47 224.89 209.49 223.21 210.5 222.54C211.85 221.53 212.53 222.2 212.53 223.88Z" fill="#786D8A" fill-opacity="1.000000" fill-rule="nonzero"/>
	<path id="Vector" d="M171.3 219.17L201.71 236.68C203.4 237.69 205.09 236.68 205.09 234.32L205.09 222.2C205.09 219.84 203.74 217.15 201.71 216.14L171.3 198.63C169.61 197.62 167.92 198.63 167.92 200.99L167.92 213.11C167.92 215.47 169.27 218.16 171.3 219.17Z" fill="#002F68" fill-opacity="1.000000" fill-rule="nonzero"/>
	<path id="Vector" d="M198.33 239.71L203.74 236.68C203.74 236.68 201.71 233.31 201.38 233.31L196.98 234.32L198.33 239.71Z" fill="#002F68" fill-opacity="1.000000" fill-rule="nonzero"/>
	<path id="Vector" d="M163.87 200.99L168.94 198.3L170.96 200.32L168.6 203.68L163.87 200.99Z" fill="#002F68" fill-opacity="1.000000" fill-rule="nonzero"/>
	<path id="Vector" d="M167.92 213.11L167.92 202.67C166.91 202.34 165.89 202.34 165.22 202.34C164.21 202.34 163.53 203.35 163.53 205.03L163.53 216.48C163.53 218.5 164.21 220.52 165.9 221.86C166.23 221.86 166.91 222.54 167.58 222.54C169.95 223.55 176.37 225.9 181.44 228.93C184.82 230.95 191.91 236.34 195.63 239.03C196.98 240.04 198.33 239.03 198.33 237.01L198.33 235.67L170.96 219.84C169.27 218.16 167.92 215.47 167.92 213.11Z" fill="#002F68" fill-opacity="1.000000" fill-rule="nonzero"/>
	<path id="Vector" d="M196.31 220.18C194.28 217.49 189.21 212.1 181.78 208.06C177.05 205.37 171.3 203.68 167.92 202.67L167.92 213.11C167.92 215.47 169.27 218.16 171.3 219.17L198.67 234.99L198.67 225.23C198.67 222.87 197.32 221.53 196.31 220.18Z" fill="#002F68" fill-opacity="1.000000" fill-rule="nonzero"/>
	<path id="Vector" d="M176.37 208.73C176.37 208.06 176.37 207.39 176.71 207.05C174.34 206.04 172.65 207.72 172.65 210.75C172.65 214.12 174.68 218.16 177.38 219.51C179.41 220.85 181.1 219.84 181.78 217.82C181.44 217.82 181.44 217.49 181.1 217.49C178.4 216.14 176.37 212.1 176.37 208.73Z" fill="#002F68" fill-opacity="1.000000" fill-rule="nonzero"/>
	<path id="Vector" d="M177.05 207.05C176.71 207.05 176.71 206.71 176.37 206.71C176.37 207.39 176.03 207.72 176.03 208.4C176.03 211.76 178.06 215.8 180.76 217.15C181.1 217.15 181.1 217.49 181.44 217.49C181.44 216.81 181.78 216.48 181.78 215.8C181.78 212.44 179.75 208.4 177.05 207.05Z" fill="#41A0E2" fill-opacity="1.000000" fill-rule="nonzero"/>
	<path id="Vector" d="M190.56 216.81C190.56 216.14 190.56 215.47 190.9 215.13C188.54 214.12 186.85 215.8 186.85 218.83C186.85 222.2 188.87 226.24 191.58 227.59C193.6 228.93 195.29 227.92 195.97 225.9C195.63 225.9 195.63 225.57 195.29 225.57C192.59 224.22 190.56 220.18 190.56 216.81Z" fill="#002F68" fill-opacity="1.000000" fill-rule="nonzero"/>
	<path id="Vector" d="M191.24 215.13C190.9 215.13 190.9 214.79 190.56 214.79C190.56 215.47 190.22 215.8 190.22 216.48C190.22 219.84 192.25 223.88 194.96 225.23C195.29 225.23 195.29 225.57 195.63 225.57C195.63 224.89 195.97 224.56 195.97 223.88C195.97 220.85 193.94 216.81 191.24 215.13Z" fill="#41A0E2" fill-opacity="1.000000" fill-rule="nonzero"/>
	<path id="Vector" d="M193.27 210.08L182.12 203.35L183.47 202.67L194.62 209.07L193.27 210.08Z" fill="#002F68" fill-opacity="1.000000" fill-rule="nonzero"/>
	<path id="Vector" d="M184.48 208.4C178.06 203.68 165.22 205.37 159.81 216.81C156.77 223.21 161.16 240.38 161.84 252.5C162.52 262.26 159.14 267.99 159.14 267.99C159.14 267.99 159.14 267.99 167.58 271.35C176.03 274.72 184.82 271.35 184.82 271.35L184.48 256.54C184.48 256.54 193.6 255.19 194.96 253.85C198.67 250.48 200.7 240.04 199.01 226.58C196.31 206.71 186.85 210.08 184.48 208.4Z" fill="#FFC5B3" fill-opacity="1.000000" fill-rule="nonzero"/>
	<path id="Vector" d="M228.75 257.55C228.75 257.55 229.42 258.22 230.1 259.23C230.77 260.24 230.44 261.25 229.76 261.25C229.42 261.59 229.09 261.59 229.09 261.59C229.09 261.59 229.76 262.94 230.44 263.95C230.77 264.96 229.42 265.63 229.09 265.63C228.75 265.63 230.1 266.64 230.1 267.65C230.1 268.66 228.07 268.32 228.07 268.32C228.07 268.32 227.4 260.24 228.75 257.55Z" fill="#FFC5B3" fill-opacity="1.000000" fill-rule="nonzero"/>
	<path id="Vector" d="M267.61 260.92C273.69 260.92 278.42 263.95 278.42 267.31C278.42 271.02 273.69 273.71 267.61 273.71C261.52 273.71 256.79 270.68 256.79 267.31C256.79 263.61 261.52 260.92 267.61 260.92Z" fill="#002F68" fill-opacity="1.000000" fill-rule="nonzero"/>
	<path id="Vector" d="M267.95 260.92C272.34 260.92 276.06 262.94 276.06 265.29C276.06 267.65 272.34 269.67 267.95 269.67C263.55 269.67 259.84 267.65 259.84 265.29C259.84 262.6 263.55 260.92 267.95 260.92Z" fill="#DD8084" fill-opacity="1.000000" fill-rule="nonzero"/>
	<path id="Vector" d="M267.61 271.69C267.61 271.69 265.58 277.42 265.58 284.49C265.24 291.56 265.92 303 261.52 308.05C257.13 313.44 253.08 306.71 253.08 299.3C252.74 291.89 257.13 267.31 257.13 267.31L267.61 271.69Z" fill="#002F68" fill-opacity="1.000000" fill-rule="nonzero"/>
	<path id="Vector" d="M195.29 278.76C202.39 279.43 216.24 306.71 222.66 320.17C227.4 315.8 236.86 307.72 247.67 300.65C250.71 298.63 248.35 285.5 254.43 281.79C254.77 285.5 258.15 285.5 260.17 285.16C264.23 284.82 265.58 283.81 265.58 281.12C266.59 280.78 267.95 280.78 269.3 282.13C270.65 281.79 273.35 283.81 272.68 285.83C275.38 287.85 274.7 292.9 273.01 295.26C269.3 300.31 261.86 305.7 257.47 311.42C253.42 316.81 232.46 344.75 217.93 349.13C216.92 348.79 212.87 348.79 210.16 346.1C200.7 336.67 186.51 312.77 185.83 298.63C185.16 287.18 190.22 278.09 195.29 278.76Z" fill="#FFC5B3" fill-opacity="1.000000" fill-rule="nonzero"/>
	<path id="Vector" d="M192.59 231.96C193.6 228.6 195.97 220.85 196.31 217.82C196.98 214.12 197.32 208.73 192.25 203.68C187.18 198.63 169.95 196.95 163.87 200.32C157.78 204.02 144.27 210.42 149 231.96C152.72 249.13 156.43 251.15 161.5 255.19C166.23 258.9 174 259.57 174 259.57C174 259.57 178.4 256.2 179.41 249.81C179.75 247.79 179.41 241.39 179.41 241.39C179.41 241.39 174.68 232.3 178.4 229.27C182.11 225.9 186.17 231.29 186.85 233.65C189.89 241.39 188.54 255.87 188.54 255.87C188.54 255.87 193.27 258.9 197.66 257.55C200.02 256.88 198 247.11 198 247.11C198 247.11 193.27 244.76 192.59 231.96Z" fill="#002F68" fill-opacity="1.000000" fill-rule="nonzero"/>
	<path id="Vector" d="M202.73 223.88L200.7 224.89L200.7 237.01L202.73 236L202.73 223.88Z" fill="#EB8382" fill-opacity="1.000000" fill-rule="nonzero"/>
	<path id="Vector" d="M200.7 224.89L200.36 224.56L200.36 236.34L200.7 237.01L200.7 224.89Z" fill="#C37A87" fill-opacity="1.000000" fill-rule="nonzero"/>
	<path id="Vector" d="M200.36 224.56L200.7 224.89L202.73 223.88L202.05 223.55L200.36 224.56Z" fill="#FFFFFF" fill-opacity="1.000000" fill-rule="nonzero"/>
	<path id="Vector" d="M201.71 225.23C200.7 225.9 198.67 227.92 198 228.6C193.27 232.64 184.82 235.33 175.69 235.33C166.23 235.33 158.12 232.64 153.39 228.6C152.04 227.25 150.69 225.9 150.01 224.56C149.34 223.21 149 220.85 148.66 219.51L148.32 221.86L148.66 228.6C148.66 228.93 148.66 228.93 148.66 229.27C148.66 237.69 160.83 244.42 175.69 244.42C186.51 244.42 195.97 240.72 200.36 235.67L202.39 225.23L201.71 225.23Z" fill="#C37A87" fill-opacity="1.000000" fill-rule="nonzero"/>
	<path id="Vector" d="M202.05 225.23C201.38 225.9 199.01 228.26 198 228.93C192.93 232.97 184.82 235.67 175.02 235.67C165.56 235.67 157.11 232.97 152.04 228.93C150.35 227.59 149.34 226.24 148.32 224.89C147.65 223.55 147.31 222.2 146.97 220.85L146.97 228.93C146.97 229.27 146.97 229.27 146.97 229.61C146.97 238.02 159.47 245.09 174.68 245.09C184.14 245.09 192.59 242.4 197.66 238.36C198.33 237.69 200.7 235.67 201.38 234.99L201.38 225.23L202.05 225.23Z" fill="url(#paint_linear_42_3608_0)" fill-opacity="1.000000" fill-rule="nonzero"/>
	<path id="Vector" d="M179.07 196.28C175.69 193.92 171.3 193.92 166.57 196.95C158.8 201.33 150.69 213.11 149 225.57C150.69 230.28 156.77 232.3 157.78 231.63C159.14 219.51 166.23 208.06 175.02 202.67C175.02 202.67 175.36 202.67 175.36 202.34C177.72 200.99 180.09 200.32 182.11 200.32C183.13 200.32 184.14 200.32 184.82 200.32C185.83 200.32 186.51 200.65 186.51 200.65L179.07 196.28Z" fill="#C37A87" fill-opacity="1.000000" fill-rule="nonzero"/>
	<path id="Vector" d="M179.41 195.94C175.36 193.92 171.3 193.58 166.23 196.27C158.46 200.65 150.35 212.44 148.66 224.89C150.01 229.94 155.76 231.63 157.11 232.3C158.8 219.17 166.23 207.39 175.02 202C175.02 202 175.36 202 175.36 201.66C177.72 200.31 180.09 199.64 182.11 199.64C183.8 199.64 185.49 199.98 186.85 200.65L179.41 195.94Z" fill="url(#paint_linear_42_3612_0)" fill-opacity="1.000000" fill-rule="nonzero"/>
	<path id="Vector" d="M162.52 414.44C163.87 417.81 166.23 424.88 168.6 427.91C171.98 432.29 163.87 433.3 158.46 434.31C152.72 434.98 143.25 428.25 139.88 422.52C136.83 416.8 135.82 408.38 135.82 408.05C144.27 413.43 152.72 416.8 162.52 414.44Z" fill="url(#paint_linear_42_3613_0)" fill-opacity="1.000000" fill-rule="nonzero"/>
	<path id="Vector" d="M121.97 406.03C122.3 408.05 122.98 411.75 123.99 415.45C125.68 421.18 122.3 425.55 117.23 421.51C112.17 417.81 107.1 411.41 105.75 406.03C104.73 402.32 104.06 395.25 103.72 392.56C108.45 398.28 114.53 402.66 121.97 406.03Z" fill="url(#paint_linear_42_3614_0)" fill-opacity="1.000000" fill-rule="nonzero"/>
	<path id="Vector" d="M179.75 391.21C179.75 391.21 167.25 397.27 153.05 393.57C138.86 389.87 129.4 383.13 129.4 383.13C129.4 383.13 147.99 384.48 157.45 386.5C166.57 388.52 179.75 391.21 179.75 391.21Z" fill="#C17A8C" fill-opacity="0" fill-rule="nonzero"/>
	<path id="Vector" d="M175.36 379.09C175.36 379.09 150.35 380.78 136.16 373.71C122.3 366.64 118.59 358.22 118.59 358.22C118.59 358.22 123.66 361.25 136.16 366.3C148.66 372.02 175.36 379.09 175.36 379.09Z" fill="#C17A8C" fill-opacity="0" fill-rule="nonzero"/>
	<path id="Vector" d="M183.13 360.24C183.13 360.24 161.5 366.3 149.34 362.6C137.17 358.89 129.4 355.19 129.4 355.19C129.4 355.19 168.94 355.19 183.13 360.24Z" fill="#C17A8C" fill-opacity="0" fill-rule="nonzero"/>
</svg>
