<svg width="13.315674" height="9.263885" viewBox="0 0 13.3157 9.26389" fill="none" xmlns="http://www.w3.org/2000/svg" xmlns:xlink="http://www.w3.org/1999/xlink">
	<path id="Vector" d="M13.14 0.17C13.19 0.22 13.24 0.28 13.27 0.35C13.3 0.42 13.31 0.5 13.31 0.57C13.31 0.65 13.3 0.73 13.27 0.8C13.24 0.87 13.19 0.93 13.14 0.98L5.04 9.09C4.98 9.14 4.92 9.19 4.85 9.21C4.78 9.24 4.7 9.26 4.63 9.26C4.55 9.26 4.48 9.24 4.4 9.21C4.33 9.19 4.27 9.14 4.22 9.09L0.16 5.04C0.06 4.93 0 4.78 0 4.63C0 4.47 0.06 4.33 0.16 4.22C0.27 4.11 0.42 4.05 0.57 4.05C0.73 4.05 0.88 4.11 0.98 4.22L4.63 7.86L12.32 0.17C12.37 0.11 12.44 0.07 12.51 0.04C12.58 0.01 12.65 0 12.73 0C12.81 0 12.88 0.01 12.95 0.04C13.02 0.07 13.09 0.11 13.14 0.17Z" fill="#486482" fill-opacity="1.000000" fill-rule="evenodd"/>
</svg>
