<svg width="567.176025" height="584.047363" viewBox="0 0 567.176 584.047" fill="none" xmlns="http://www.w3.org/2000/svg" xmlns:xlink="http://www.w3.org/1999/xlink">
	<desc>
			Created with Pixso.
	</desc>
	<defs>
		<linearGradient x1="299.503540" y1="426.843140" x2="299.503540" y2="730.843140" id="paint_linear_39_2252_0" gradientUnits="userSpaceOnUse">
			<stop stop-color="#446381"/>
			<stop offset="1.000000" stop-color="#446381" stop-opacity="0.000000"/>
		</linearGradient>
		<linearGradient x1="303.495728" y1="116.843018" x2="303.495728" y2="582.672852" id="paint_linear_39_2255_0" gradientUnits="userSpaceOnUse">
			<stop stop-color="#826F8C"/>
			<stop offset="1.000000" stop-color="#446381"/>
		</linearGradient>
	</defs>
	<g opacity="0.300000">
		<path id="Vector" d="M561.5 350.75C561.5 479.39 457.22 583.67 328.58 583.67C199.95 583.67 95.67 479.39 95.67 350.75C95.67 222.12 199.95 117.84 328.58 117.84C457.22 117.84 561.5 222.12 561.5 350.75Z" fill="#4E8FD3" fill-opacity="1.000000" fill-rule="evenodd"/>
	</g>
	<g opacity="0.300000">
		<path id="Vector" d="M508.83 347.75C508.83 476.39 404.55 580.67 275.91 580.67C147.28 580.67 43 476.39 43 347.75C43 219.12 147.28 114.84 275.91 114.84C404.55 114.84 508.83 219.12 508.83 347.75Z" fill="#4E8FD3" fill-opacity="1.000000" fill-rule="evenodd"/>
	</g>
	<path id="Vector" d="M536.41 349.75C536.41 478.39 432.13 582.67 303.49 582.67C174.86 582.67 70.58 478.39 70.58 349.75C70.58 221.12 174.86 116.84 303.49 116.84C432.13 116.84 536.41 221.12 536.41 349.75Z" fill="url(#paint_linear_39_2255_0)" fill-opacity="1.000000" fill-rule="evenodd"/>
	<path id="Vector" d="M428.32 86.66C425.25 67.73 418.77 51.52 403.76 38.39C401.03 36 394.88 40.94 397.44 43.5C413.99 59.37 418.77 76.09 419.28 101.34C419.45 110.72 419.11 121.64 418.09 133.58C417.23 142.79 426.62 142.28 427.64 136.65C429.35 125.22 430.2 97.75 428.32 86.66Z" fill="#EB8382" fill-opacity="1.000000" fill-rule="nonzero"/>
	<path id="Vector" d="M410.24 52.54C408.87 50.33 407.34 48.28 405.63 46.23C403.24 43.67 400.17 41.46 400.51 37.87C397.96 38.73 395.74 41.63 397.61 43.33C414.16 59.2 418.94 75.92 419.45 101.17C419.62 110.55 419.28 121.47 418.26 133.41C418.09 136.31 418.77 138.19 419.96 139.38C424.23 130 423.89 117.71 424.06 108.16C424.23 94.85 422.86 81.38 418.43 68.75C416.21 63.12 413.48 57.66 410.24 52.54Z" fill="#C37A87" fill-opacity="1.000000" fill-rule="nonzero"/>
	<path id="Vector" d="M385.16 44.53C365.71 20.81 330.91 7.68 285.36 24.91C264.72 32.75 249.88 44.87 241.01 61.25C229.06 83.25 228.55 122.83 235.38 149.27C236.06 152.69 236.91 155.93 237.93 159.17C243.91 181.01 255.16 200.79 273.76 214.95C291.16 227.92 313.34 233.21 335 229.28C356.67 225.19 375.27 211.2 386.7 193.46C414.16 150.47 418.6 85.3 385.16 44.53Z" fill="#521E3F" fill-opacity="1.000000" fill-rule="nonzero"/>
	<path id="Vector" d="M537.98 456.81C536.45 447.94 534.4 439.24 531.84 430.54C528.6 419.79 521.26 411.95 517.34 401.54C514.95 395.4 516.32 386.7 514.1 380.56C511.71 374.42 505.23 371.69 502.84 365.54C500.45 359.4 501.99 350.02 499.43 344.05C494.82 333.81 489.7 323.58 483.9 314.02C474.18 297.99 461.04 281.27 444.67 271.2C443.13 270.18 441.59 269.33 440.06 268.47C429.48 261.48 415.32 256.87 400.65 250.73C388.03 245.44 338.38 234.35 293 234.35C251.04 234.53 212.65 245.44 208.9 246.47C180.92 254.14 172.39 254.83 146.97 277.35C136.91 286.22 127.01 295.26 116.61 303.62C111.32 307.88 102.28 307.88 96.82 311.64C89.65 316.75 85.9 325.62 78.05 329.89C55.53 342 30.11 342.86 15.61 365.37C9.3 375.1 3.5 395.74 3.5 407.34C3.5 416.72 8.28 425.25 15.27 431.22C29.09 443 50.24 444.02 67.47 443.34C92.55 442.14 117.29 434.47 140.66 425.77C163.01 417.41 171.54 425.08 170.51 442.48C169.66 457.67 168.81 472.85 168.3 488.2C167.61 504.75 162.51 531.29 162 547.84C161.49 566.09 238.02 577.44 257.12 580.34C274.34 582.95 258.29 580.44 287.62 582.84C336.78 586.86 395.68 580.59 408.5 567.34C410.72 565.12 416.69 552.01 420.78 521.81C422.66 507.99 427.95 503.22 439.04 513.45C452.34 525.91 469.74 534.09 487.83 535.29C507.62 536.65 525.36 526.25 534.06 508.68C541.74 492.64 540.88 473.7 537.98 456.81Z" fill="#C5C7D2" fill-opacity="0.200000" fill-rule="nonzero"/>
	<path id="Vector" d="M496.22 361.67C493.15 368.15 490.59 374.46 486.5 380.43C481.89 387.09 476.6 393.23 470.97 399.2C470.8 399.37 470.97 399.54 471.14 399.54C477.45 394.93 482.74 389.31 487.35 382.99C491.61 377.02 496.05 369.35 496.56 361.84C496.56 361.67 496.22 361.5 496.22 361.67Z" fill="#F5F5F5" fill-opacity="1.000000" fill-rule="nonzero"/>
	<path id="Vector" d="M274.1 290.87C270.86 284.39 266.94 279.44 259.6 278.25C252.26 277.05 244.59 279.78 237.93 282.51C225.48 287.8 212.86 295.65 203.81 306.57C196.99 314.75 257.72 324.48 267.79 324.48C287.07 324.65 279.56 302.13 274.1 290.87Z" fill="#FFA26E" fill-opacity="1.000000" fill-rule="nonzero"/>
	<path id="Vector" d="M277 308.78C275.81 305.03 274.78 299.74 269.67 299.23C268.47 299.06 265.23 299.23 263.01 299.91C259.94 300.94 260.79 302.98 261.65 304.86C263.35 308.61 265.4 311.85 270.18 312.37C273.59 312.88 278.02 311.85 277 308.78Z" fill="#FFFFFF" fill-opacity="1.000000" fill-rule="nonzero"/>
	<path id="Vector" d="M251.92 314.75C248 307.93 247.32 299.74 246.81 292.06C246.81 291.72 246.46 291.72 246.29 292.06C245.95 293.6 245.78 295.48 245.61 297.18C243.56 302.47 236.4 300.94 232.65 304.35C229.23 307.59 227.7 312.02 228.38 316.63C228.55 317.31 228.55 318 228.72 318.68C240.15 321.24 252.78 323.28 260.79 324.14C257.38 321.75 254.31 318.85 251.92 314.75Z" fill="#F4905D" fill-opacity="1.000000" fill-rule="nonzero"/>
	<path id="Vector" d="M333.13 238.33C320.84 236.96 308.22 236.45 295.94 236.96C272.05 237.81 261.48 258.63 280.75 276.2C305.15 298.72 347.8 301.45 366.74 272.79C373.39 262.72 374.92 247.2 353.94 241.57C346.26 239.52 337.9 238.84 333.13 238.33Z" fill="#F5F5F5" fill-opacity="1.000000" fill-rule="nonzero"/>
	<path id="Vector" d="M534.95 470.51C530 459.42 521.81 449.87 512.43 442.36C496.56 429.57 476.09 423.42 457.32 416.09C446.75 411.99 435.83 407.73 426.27 401.76C421.33 398.69 415.7 394.08 409.73 396.98C404.78 399.37 401.54 405.51 399.15 409.95C396.25 415.41 394.03 421.21 391.98 427.01C386.87 441.85 383.8 449.01 394.88 458.06C402.05 463.86 414.67 473.58 419.96 479.21C429.17 489.45 437.19 500.71 446.75 510.6C460.56 525.1 479.84 535.34 499.97 536.7C519.59 537.9 539.55 525.95 542.62 505.48C544.33 493.71 539.72 481.09 534.95 470.51Z" fill="#FFA26E" fill-opacity="1.000000" fill-rule="nonzero"/>
	<path id="Vector" d="M537.67 518.62C531.19 522.88 523 525.1 515.67 525.78C503.38 526.98 490.42 525.1 479.16 519.98C469.78 515.55 461.93 508.21 455.28 500.36C439.07 480.92 427.64 456.69 422.52 431.95C420.13 420.7 418.43 406.71 412.11 396.3C411.26 396.47 410.41 396.64 409.56 397.15C404.61 399.54 401.37 405.68 398.98 410.12C396.08 415.58 393.86 421.38 391.81 427.18C386.7 442.02 383.62 449.18 394.71 458.23C401.88 464.03 414.5 473.75 419.79 479.38C429 489.62 437.02 500.88 446.58 510.77C460.39 525.27 479.67 535.51 499.8 536.87C514.81 537.73 530 530.9 537.67 518.62Z" fill="#F4905D" fill-opacity="1.000000" fill-rule="nonzero"/>
	<path id="Vector" d="M187.44 324.65C162.7 330.96 129.95 336.42 104.36 338.81C81.33 340.86 56.76 340.86 37.14 354.67C28.44 360.82 21.1 369.52 14.45 377.88C7.97 385.89 2 395.28 0.29 405.68C-0.9 413.36 1.49 422.4 7.97 427.18C14.96 432.3 24 434.17 32.36 435.37C40.21 436.39 48.23 436.73 56.25 436.9C67.51 437.24 77.91 435.03 88.49 431.1C100.26 426.84 180.78 394.42 188.8 386.75C194.94 380.78 198.53 372.59 200.4 364.4C205.69 342.73 199.72 321.58 187.44 324.65Z" fill="#FFA26E" fill-opacity="1.000000" fill-rule="nonzero"/>
	<path id="Vector" d="M188.97 386.58C191.02 384.7 192.73 382.31 194.26 380.09C193.75 379.07 193.24 377.88 192.56 376.85C183.17 359.62 150.08 349.39 118 372.42C111.18 377.36 105.38 383.68 98.9 388.96C90.37 395.96 80.3 401.08 70.24 405.51C54.71 412.51 32.7 419.5 16.84 409.95C8.65 405 6.43 396.98 6.77 388.45C3.7 393.74 1.14 399.37 0.29 405.34C-0.9 413.02 1.49 422.06 7.97 426.84C14.96 431.95 24 433.83 32.36 435.03C40.21 436.05 48.23 436.39 56.25 436.56C67.51 436.9 77.91 434.68 88.49 430.76C100.43 426.67 180.95 394.25 188.97 386.58Z" fill="#F4905D" fill-opacity="1.000000" fill-rule="nonzero"/>
	<path id="Vector" d="M399.66 339.83C398.3 334.2 396.59 329.08 391.13 326.35C383.97 322.77 369.12 321.58 366.74 331.47C364.86 339.49 369.98 351.77 376.46 356.55C387.21 364.57 406.14 367.64 403.76 355.01C402.9 349.9 400.86 344.95 399.66 339.83Z" fill="#FFA26E" fill-opacity="1.000000" fill-rule="nonzero"/>
	<path id="Vector" d="M405.63 358.94C402.05 356.04 379.7 344.27 375.78 343.58C368.44 342.22 365.2 344.61 357.86 344.61C355.14 344.61 317.6 331.81 308.73 327.21C305.49 325.5 303.61 321.58 302.42 320.55C295.77 314.58 278.02 310.83 269.15 309.98C266.42 309.81 259.77 312.02 252.61 315.26C232.48 324.48 222.92 333.18 211.66 360.64C208.08 369.17 205.01 378.22 204.33 387.43C203.81 396.13 208.25 401.42 217.97 400.56C226.67 399.88 250.73 379.75 263.52 369.17C268.64 364.91 270.01 366.44 273.59 368.15C274.27 368.49 275.12 368.83 276.15 369.35C278.88 370.71 278.88 372.07 278.02 375.66C277.17 378.73 276.49 381.63 276.66 384.7C277 388.96 281.78 391.18 285.19 392.72C291.33 395.45 297.81 397.66 303.96 400.74C309.59 403.46 313 399.71 317.43 396.47C318.63 395.62 319.82 394.76 321.01 393.91C323.06 392.38 326.47 392.38 327.67 392.89C330.4 394.08 332.96 395.11 335.52 396.3C340.98 398.69 340.63 405.51 338.08 414.55C327.33 453.11 350.02 440.48 366.05 430.42C378.17 422.74 392.5 412.34 403.41 398.35C407.17 393.06 410.24 362.69 405.63 358.94Z" fill="#3C68CD" fill-opacity="1.000000" fill-rule="nonzero"/>
	<path id="Vector" d="M305.32 332.15C304.81 331.98 299.35 342.39 298.33 347.68C297.98 349.39 338.25 364.91 338.59 364.4C341.15 360.3 343.53 353.99 345.92 348.36C346.09 347.85 319.31 337.96 305.32 332.15Z" fill="#2453B2" fill-opacity="1.000000" fill-rule="nonzero"/>
	<path id="Vector" d="M402.39 399.2C406.14 388.45 405.8 376.85 396.59 368.83C388.91 362.01 377.31 360.64 367.42 361.33C355.31 362.18 345.41 367.98 336.03 375.15C330.74 379.24 325.79 383.85 319.82 387.26C312.31 391.69 305.32 391.86 297.47 388.79C294.06 387.43 290.65 385.72 287.75 383.33C284.51 380.78 285.19 376.17 286.04 372.59C287.41 366.1 289.8 360.13 290.14 353.48C290.82 343.41 284.51 335.05 276.32 329.94C254.48 316.46 230.26 326.18 220.87 341.37C217.63 346.49 214.73 352.8 211.49 360.47C207.91 369 204.84 378.05 204.16 387.26C203.64 395.96 208.08 401.25 217.8 400.39C226.5 399.71 250.56 379.58 263.35 369C268.47 364.74 269.84 366.27 273.42 367.98C274.1 368.32 274.95 368.66 275.98 369.17C278.71 370.54 278.71 371.9 277.85 375.49C277 378.56 276.32 381.46 276.49 384.53C276.83 388.79 281.61 391.01 285.02 392.55C291.16 395.28 297.64 397.49 303.79 400.56C309.41 403.29 312.83 399.54 317.26 396.3C318.46 395.45 319.65 394.59 320.84 393.74C322.89 392.21 326.3 392.21 327.5 392.72C330.23 393.91 332.79 394.93 335.35 396.13C340.8 398.52 340.46 405.34 337.9 414.38C327.16 452.94 349.85 440.31 365.88 430.25C377.65 422.74 391.47 412.51 402.39 399.2Z" fill="#2453B2" fill-opacity="1.000000" fill-rule="nonzero"/>
	<path id="Vector" d="M363.49 251.63C362.81 247.71 361.62 244.13 361.79 240.2C361.79 236.96 362.47 218.37 362.13 206.77C361.96 202.5 361.79 197.55 350.36 196.19C341.32 195.16 300.03 196.19 295.08 196.36C288.77 196.7 286.21 199.26 286.21 205.06C286.04 214.95 286.38 225.02 284 234.57C282.29 241.57 279.22 248.56 280.07 255.9C280.93 263.75 287.92 268.35 294.4 271.76C303.96 276.71 314.87 278.59 325.62 278.76C335 278.93 345.07 277.22 353.6 272.96C361.96 268.35 365.2 260.67 363.49 251.63Z" fill="#E87F52" fill-opacity="1.000000" fill-rule="nonzero"/>
	<path id="Vector" d="M312.32 261.19C302.93 246.51 310.1 226.9 318.12 213.25C322.38 205.91 328.01 200.11 334.32 195.34C318.8 195.34 298.33 195.85 294.91 196.02C288.6 196.36 286.04 198.92 286.04 204.72C285.87 214.61 286.21 224.68 283.82 234.23C282.12 241.23 279.05 248.22 279.9 255.56C280.75 263.4 287.75 268.01 294.23 271.42C303.79 276.37 314.7 278.25 325.45 278.42C334.83 278.59 344.9 276.88 353.43 272.62C354.45 272.1 355.31 271.59 356.16 270.91C339.95 276.2 321.87 276.2 312.32 261.19Z" fill="#DB6B45" fill-opacity="1.000000" fill-rule="nonzero"/>
	<path id="Vector" d="M383.62 151.66C384.31 144.16 386.18 118.05 387.72 112.6C390.28 104.58 400 104.41 407.17 104.92C411.26 105.26 416.04 106.11 420.47 107.65C428.15 110.38 432.42 112.42 432.25 119.08C431.22 141.77 427.98 159.17 424.57 169.75C421.67 178.45 418.09 179.98 412.8 180.49C409.04 180.83 398.81 179.81 392.67 178.96C388.23 178.28 383.62 176.91 382.6 168.89C381.92 163.09 383.11 156.61 383.62 151.66Z" fill="#93426E" fill-opacity="1.000000" fill-rule="nonzero"/>
	<path id="Vector" d="M392.67 178.79C394.71 179.13 397.27 179.47 399.83 179.81C407.51 180.66 412.97 173.33 416.04 164.97C420.3 153.03 421.16 139.55 420.82 127.27C420.64 121.13 420.47 113.96 419.28 107.14C415.19 105.77 410.92 105.09 407.17 104.75C400 104.07 390.28 104.41 387.72 112.42C386.01 117.88 384.31 143.99 383.62 151.49C383.11 156.44 382.09 162.92 382.77 168.72C383.62 176.74 388.4 178.1 392.67 178.79Z" fill="#7C315D" fill-opacity="1.000000" fill-rule="nonzero"/>
	<path id="Vector" d="M369.64 35.83C353.77 30.03 327.16 28.66 304.47 33.1C271.37 39.58 249.36 65.68 246.12 106.11C244.42 126.58 246.29 149.27 251.07 170.09C265.23 231.16 321.53 245.15 350.19 236.45C366.22 231.5 377.82 221.44 386.35 207.11C404.44 177.08 415.53 124.2 404.78 81.2C399.66 61.07 389.08 42.99 369.64 35.83Z" fill="#FFA26E" fill-opacity="1.000000" fill-rule="nonzero"/>
	<path id="Vector" d="M404.61 81.2C399.49 61.07 389.08 42.99 369.47 35.83C353.6 30.03 326.99 28.66 304.3 33.1C271.2 39.58 249.19 65.68 245.95 106.11C244.25 126.58 246.12 149.27 250.9 170.09C261.48 215.3 295.08 234.74 323.4 238.16C322.21 237.81 320.84 237.47 319.65 237.13C308.22 233.72 297.47 228.26 288.77 220.07C280.58 212.57 274.1 202.5 273.42 191.24C272.91 180.83 279.56 171.79 287.92 166.33C302.93 156.78 323.06 155.93 340.29 156.27C350.87 156.44 361.62 157.29 372.19 157.8C382.26 158.32 393.69 158.14 403.58 160.7C409.73 135.63 411.09 106.62 404.61 81.2Z" fill="#F4905D" fill-opacity="1.000000" fill-rule="nonzero"/>
	<path id="Vector" d="M387.04 28.66C364.35 8.53 334.66 4.09 305.66 10.07C279.22 15.52 253.8 30.2 240.66 54.59C233.84 67.39 229.75 82.4 229.06 96.9C228.72 106.28 230.43 120.27 237.42 127.95C240.32 131.19 241.18 128.97 240.83 125.9C238.62 108.84 241.86 90.93 252.61 77.11C264.89 61.25 286.55 61.59 304.64 62.95C323.57 64.49 342 68.41 361.11 67.22C369.47 66.7 381.07 65.34 388.06 59.37C393.86 64.66 398.47 70.63 402.05 78.13C405.63 85.64 406.66 93.66 407.51 101.85C407.85 106.45 409.39 107.14 410.58 102.36C416.72 75.75 407.51 46.91 387.04 28.66Z" fill="#521E3F" fill-opacity="1.000000" fill-rule="nonzero"/>
	<path id="Vector" d="M332.79 20.3C330.57 17.4 327.84 16.04 324.77 15.7C321.87 15.18 308.22 15.7 304.47 16.38C302.59 16.72 300.88 17.06 299.35 17.74C297.64 18.42 298.32 19.11 299.35 19.79C311.46 27.81 312.14 50.33 312.14 63.8C312.14 65.68 313.68 66.19 316.07 66.19C324.09 66.02 331.93 65.68 339.95 65.51C343.02 65.34 343.36 65 343.53 62.78C344.22 47.43 341.49 31.9 332.79 20.3Z" fill="#1B4C9B" fill-opacity="1.000000" fill-rule="nonzero"/>
	<path id="Vector" d="M318.8 50.16C316.92 43.84 317.09 36.85 319.82 30.88C322.55 24.74 328.18 22.52 334.32 22.35C333.81 21.67 333.3 20.98 332.79 20.3C330.57 17.4 327.84 16.04 324.77 15.7C321.87 15.18 308.22 15.7 304.47 16.38C302.59 16.72 300.88 17.06 299.35 17.74C297.64 18.42 298.32 19.11 299.35 19.79C311.46 27.81 312.14 50.33 312.14 63.8C312.14 65.68 313.68 66.19 316.07 66.19C320.33 66.02 324.77 66.02 329.03 65.85C324.26 61.42 320.5 56.13 318.8 50.16Z" fill="#103E82" fill-opacity="1.000000" fill-rule="nonzero"/>
	<path id="Vector" d="M262.33 154.9C261.65 147.4 259.77 121.3 258.24 115.84C255.68 107.82 245.95 107.65 238.79 108.16C234.69 108.5 229.92 109.35 225.48 110.89C217.8 113.62 213.54 115.67 213.71 122.32C214.73 145.01 217.97 162.41 221.39 172.99C224.29 181.69 227.87 183.22 233.16 183.73C236.91 184.08 247.15 183.05 253.29 182.2C257.72 181.52 262.33 180.15 263.35 172.13C263.87 166.5 262.67 160.02 262.33 154.9Z" fill="#93426E" fill-opacity="1.000000" fill-rule="nonzero"/>
	<path id="Vector" d="M258.07 115.84C255.85 108.84 248 107.82 241.35 107.99C248.85 116.86 250.05 131.19 250.73 142.28C252.44 175.38 245.95 180.49 234.01 183.91C238.28 184.08 247.49 183.05 253.12 182.2C257.55 181.52 262.16 180.15 263.18 172.13C263.87 166.33 262.67 159.85 262.33 154.9C261.65 147.57 259.77 121.3 258.07 115.84Z" fill="#7C315D" fill-opacity="1.000000" fill-rule="nonzero"/>
	<path id="Vector" d="M229.58 123.17C225.14 114.81 213.03 112.42 213.71 125.22C214.9 146.54 217.97 163.09 221.39 173.16C225.82 186.29 233.5 176.06 234.86 170.09C237.76 158.14 234.69 132.73 229.58 123.17Z" fill="#D3D0FF" fill-opacity="1.000000" fill-rule="nonzero"/>
	<path id="Vector" d="M229.58 123.17C225.99 116.35 217.46 113.62 214.73 119.42C219.51 116.01 225.31 119.93 227.87 126.58C230.09 132.38 230.94 139.04 232.13 145.18C233.67 153.37 234.35 161.9 231.45 169.92C230.77 172.13 229.58 173.84 228.04 175.55C225.48 178.28 222.92 174.35 221.73 172.65C221.39 172.13 221.05 171.45 220.7 170.77C220.87 171.62 221.22 172.3 221.39 172.99C225.82 186.12 233.5 175.89 234.86 169.92C237.76 158.14 234.69 132.73 229.58 123.17Z" fill="#B1B1F2" fill-opacity="1.000000" fill-rule="nonzero"/>
	<path id="Vector" d="M393.01 51.69C382.6 50.33 372.02 49.82 361.62 49.64C334.49 49.13 280.07 51.69 258.58 59.54C253.12 61.59 242.37 67.22 239.3 78.48C235.72 91.78 236.57 114.47 239.3 129.83C242.88 150.47 255.85 154.9 266.08 156.61C296.79 162.07 368.1 161.9 410.75 156.44C423.03 154.9 433.95 144.5 435.15 132.56C437.7 107.99 436.34 93.66 435.83 83.25C434.8 59.03 419.45 55.1 393.01 51.69Z" fill="#3C68CD" fill-opacity="1.000000" fill-rule="nonzero"/>
	<path id="Vector" d="M427.47 74.89C425.42 68.58 421.33 63.63 413.82 60.39C393.69 51.86 327.84 54.42 292.53 58.17C278.02 59.71 268.3 62.95 262.84 68.92C255.16 77.45 256.7 119.25 260.28 129.31C265.4 143.64 279.05 144.16 289.63 144.84C316.41 146.37 391.98 146.89 412.8 140.06C424.74 136.14 428.83 131.36 429.86 110.21C430.37 98.26 429.69 81.89 427.47 74.89Z" fill="#1B4C9B" fill-opacity="1.000000" fill-rule="nonzero"/>
	<path id="Vector" d="M406.49 35.31C398.47 24.91 387.55 17.91 375.95 11.94C362.47 4.95 348.82 1.02 333.81 0.17C306 -1.19 275.47 5.29 253.29 22.69C248 26.78 238.79 34.12 237.76 41.97C237.25 45.55 241.86 51.35 245.27 51.69C247.15 51.86 255.85 50.33 258.24 48.96C260.79 47.43 263.18 45.55 265.4 43.84C278.2 33.95 292.35 26.44 308.05 22.18C325.79 17.4 342.51 19.62 359.06 27.13C365.54 30.03 371.68 33.78 377.65 37.53C382.09 40.26 386.18 43.33 391.13 45.04C391.81 45.21 395.23 46.06 398.64 45.72C401.71 45.38 404.78 44.19 405.8 42.99C407.85 40.6 407.68 36.85 406.49 35.31Z" fill="#EB8382" fill-opacity="1.000000" fill-rule="nonzero"/>
	<path id="Vector" d="M368.1 26.78C352.58 17.91 336.03 13.48 318.12 15.87C302.08 18.08 286.21 24.57 272.57 33.61C266.25 37.7 258.75 43.67 250.73 42.31C247.49 41.8 244.76 39.24 241.35 39.24C240.15 39.24 238.96 39.41 238.11 39.75C237.93 40.43 237.76 41.11 237.59 41.8C237.08 45.38 241.69 51.18 245.1 51.52C246.98 51.69 255.68 50.16 258.07 48.79C260.62 47.26 263.01 45.38 265.23 43.67C278.03 33.78 292.18 26.27 307.88 22.01C325.62 17.23 342.34 19.45 358.89 26.96C365.37 29.86 371.51 33.61 377.48 37.36C381.92 40.09 386.01 43.16 390.96 44.87C391.64 45.04 395.06 45.89 398.47 45.55C401.03 45.38 403.41 44.36 404.78 43.5C392.15 46.91 379.19 33.1 368.1 26.78Z" fill="#C37A87" fill-opacity="1.000000" fill-rule="nonzero"/>
	<path id="Vector" d="M237.42 43.5C230.43 50.33 219.51 67.22 213.54 86.32C208.93 101.17 207.91 117.2 209.79 133.24C210.13 136.48 210.98 140.4 212.86 143.3C214.22 145.52 217.63 145.69 220.87 145.18C224.12 144.67 227.19 143.47 227.36 139.55C227.7 135.46 227.02 130.68 226.68 127.27C225.99 119.42 222.07 112.94 222.07 104.75C222.24 76.6 234.86 61.25 245.27 49.3C247.32 47.43 241.18 39.75 237.42 43.5Z" fill="#EB8382" fill-opacity="1.000000" fill-rule="nonzero"/>
	<path id="Vector" d="M295.43 336.25C288.94 329.43 281.1 323.79 273.08 319.02C264.89 314.24 255.68 309.98 245.95 307.25C233.33 303.84 215.93 299.57 201.09 307.08C188.63 313.22 178.74 325.33 171.57 336.93C164.41 348.19 158.95 361.5 159.46 375.15C159.63 379.24 160.48 383.16 162.02 386.75C162.02 386.75 162.02 386.92 162.19 386.92C163.04 388.79 164.07 390.5 165.09 392.03C165.09 392.03 165.09 392.21 165.26 392.21C165.43 392.55 165.6 392.72 165.94 393.06C169.35 397.83 173.62 402.1 178.4 405.17C186.07 410.12 214.05 410.29 227.87 410.63C234.01 410.8 239.13 406.19 241.01 403.12C244.25 403.12 247.32 402.27 250.22 400.56C254.31 398.01 257.04 393.57 257.38 389.13C257.89 389.13 258.24 389.13 258.75 388.96C264.89 387.94 267.96 381.97 269.5 376.34C270.35 373.27 270.86 368.15 268.81 366.44C268.13 365.93 259.09 366.96 253.12 362.86C249.36 360.3 246.29 356.89 243.39 353.65C240.83 350.92 236.91 346.49 235.03 342.22C233.16 337.44 234.69 335.4 238.96 336.76C249.36 339.83 259.43 344.61 268.47 350.92C275.81 356.04 283.65 361.67 293.04 361.84C298.33 362.01 303.96 358.77 304.3 352.97C304.47 346.14 299.69 341.03 295.43 336.25Z" fill="#FFA26E" fill-opacity="1.000000" fill-rule="nonzero"/>
	<path id="Vector" d="M426.62 384.19C426.1 379.41 422.69 375.15 420.13 371.22C416.89 366.62 414.16 362.01 410.24 357.92C402.9 350.41 391.47 350.41 381.75 350.07C371.85 349.73 361.79 349.56 351.89 351.09C344.05 352.29 338.42 355.36 338.08 363.89C337.9 369.86 343.36 372.76 348.31 374.12C360.25 377.36 373.73 374.63 385.33 377.88C390.45 379.24 390.79 381.12 389.6 385.38C389.25 386.4 388.91 387.43 388.57 388.45C386.7 392.89 382.43 394.42 379.36 395.79C375.61 397.32 371.34 399.2 368.27 400.05C363.84 401.42 359.57 401.93 355.31 399.71C352.24 398.18 349.68 395.45 346.43 394.42C339.27 391.86 331.76 391.69 324.6 394.42C321.7 395.45 319.14 397.49 319.48 400.39C317.26 402.27 316.75 405 317.94 408.75C320.33 417.28 323.92 427.52 329.55 434.51C329.72 434.68 329.89 435.03 330.23 435.2C330.91 438.95 333.98 442.36 337.73 445.26C342.51 448.84 347.8 451.91 352.92 455.16C358.04 458.4 363.84 462.49 369.81 463.52C376.97 464.71 386.87 464.54 393.52 461.47C397.1 459.76 400.34 454.3 401.71 450.89C402.05 450.04 402.39 449.01 402.56 448.16C405.46 446.63 408.19 444.58 410.41 442.36C413.99 438.78 414.84 433.83 414.5 428.88C418.26 425.47 421.67 421.55 423.89 417.45C427.13 411.48 426.1 403.46 423.03 397.32C425.42 393.06 427.13 388.62 426.62 384.19Z" fill="#FFA26E" fill-opacity="1.000000" fill-rule="nonzero"/>
	<path id="Vector" d="M358.04 179.3C347.12 182.71 333.81 184.08 316.24 180.83C306.17 178.96 301.06 185.78 303.27 194.31C305.32 202.16 309.93 207.62 315.73 211.37C335.86 224 357.18 214.78 364.18 206.25C367.93 201.65 370.32 196.36 371.17 191.41C372.54 181.86 365.54 176.91 358.04 179.3Z" fill="#7C2D0E" fill-opacity="1.000000" fill-rule="nonzero"/>
	<path id="Vector" d="M319.82 209.84C325.11 212.74 330.91 214.1 336.71 214.1C344.73 214.1 352.41 211.2 357.35 207.62C361.62 204.55 360.59 201.82 355.65 200.11C344.56 196.36 331.42 196.87 320.84 201.82C313.68 205.23 315.04 207.45 319.82 209.84Z" fill="#FF61AC" fill-opacity="1.000000" fill-rule="nonzero"/>
	<path id="Vector" d="M337.56 166.67C338.42 166.16 338.93 165.65 339.27 165.14C340.46 163.26 336.03 163.09 335.18 164.63C334.49 165.82 335.86 167.87 337.56 166.67Z" fill="#7C2D0E" fill-opacity="1.000000" fill-rule="nonzero"/>
	<path id="Vector" d="M344.22 165.99C343.53 165.65 343.19 165.14 342.85 164.8C341.83 163.26 345.58 163.26 346.26 164.29C346.78 165.31 345.58 166.85 344.22 165.99Z" fill="#7C2D0E" fill-opacity="1.000000" fill-rule="nonzero"/>
	<path id="Vector" d="M299.01 347C297.47 345.29 294.91 343.41 292.35 342.9C287.75 341.88 282.63 344.95 284.51 351.43C285.7 355.53 289.46 359.79 294.06 359.45C296.62 359.28 298.5 357.4 300.03 355.53C302.08 352.63 301.06 349.39 299.01 347Z" fill="#FFFFFF" fill-opacity="1.000000" fill-rule="nonzero"/>
	<path id="Vector" d="M342.68 359.11C340.29 362.52 340.8 367.3 343.88 369.52C347.46 372.25 355.31 370.54 357.86 367.3C359.4 365.42 359.74 363.03 359.06 360.99C358.21 358.6 358.38 357.74 353.43 356.72C350.02 356.04 344.9 355.87 342.68 359.11Z" fill="#FFFFFF" fill-opacity="1.000000" fill-rule="nonzero"/>
	<path id="Vector" d="M378.34 423.08C370.83 423.08 363.32 423.08 355.65 423.25C353.6 423.25 350.87 423.77 348.99 422.74C346.43 421.55 327.5 407.39 325.96 406.02C321.36 401.76 319.31 398.52 327.5 393.57C326.47 393.74 325.62 394.08 324.6 394.42C321.7 395.45 319.14 397.49 319.48 400.39C317.26 402.27 316.75 405 317.94 408.75C320.33 417.28 323.92 427.52 329.55 434.51C329.72 434.68 329.89 435.03 330.23 435.2C330.91 438.95 333.98 442.36 337.73 445.26C342.51 448.84 347.8 451.91 352.92 455.16C357.35 458.06 362.47 461.47 367.59 463C359.57 458.4 343.71 446.8 341.32 444.07C336.71 438.78 345.07 438.78 352.41 439.8C358.72 440.65 365.2 441 371.51 441.68C372.54 441.85 374.58 441.51 371.68 440.83C362.47 438.44 352.92 437.41 343.53 436.05C341.15 435.71 336.03 434.17 332.45 430.93C331.59 430.08 326.47 424.28 323.06 415.92C320.5 409.44 321.87 409.95 326.65 412.68C331.25 415.41 344.73 423.25 346.43 424.11C348.82 425.3 351.04 425.98 354.28 425.98C362.47 425.98 370.66 425.13 378.85 424.11C381.24 423.6 381.07 423.08 378.34 423.08Z" fill="#F4905D" fill-opacity="1.000000" fill-rule="nonzero"/>
	<path id="Vector" d="M268.47 366.45C267.79 365.93 258.75 366.96 252.78 362.86C249.02 360.3 245.95 356.89 243.05 353.65C240.66 351.09 237.08 347 235.2 343.07C235.89 345.63 237.25 348.02 238.45 350.24C241.18 355.02 244.76 359.79 248.68 363.72C252.95 367.98 258.06 369.17 263.01 372.07C267.79 374.8 261.82 381.63 259.6 383.85C255.85 387.43 242.03 384.7 232.82 379.92C223.77 375.32 215.07 369.52 206.89 364.23C206.54 364.06 206.2 364.57 206.54 364.74C216.1 373.44 227.19 380.6 238.96 385.89C242.03 387.26 245.1 388.45 248.17 389.31C248.68 389.65 249.19 389.99 249.71 390.33C253.63 393.4 249.36 397.83 246.63 399.37C241.52 402.27 232.3 400.05 225.65 397.84C218.49 395.62 211.49 392.38 204.84 388.96C204.33 388.62 203.99 389.31 204.33 389.65C210.47 394.25 218.66 398.69 227.36 401.59C231.96 403.12 234.86 406.54 228.89 408.24C227.7 408.58 226.5 408.92 225.31 409.09C209.27 409.95 191.87 405.34 178.4 396.3C166.28 388.11 162.19 375.15 160.99 361.67C159.97 366.1 159.46 370.54 159.63 374.97C159.8 379.07 160.65 382.99 162.19 386.58C162.19 386.58 162.19 386.75 162.36 386.75C163.21 388.62 164.24 390.33 165.26 391.86C165.26 391.86 165.26 392.03 165.43 392.03C165.6 392.38 165.77 392.55 166.11 392.89C169.52 397.66 173.79 401.93 178.57 405C184.03 408.58 200.06 409.61 213.88 410.12C214.05 410.12 214.05 410.12 214.22 410.12C215.42 410.12 216.61 410.12 217.63 410.29C217.8 410.29 217.97 410.29 218.15 410.29C219.34 410.29 220.36 410.29 221.56 410.29C221.73 410.29 221.73 410.29 221.9 410.29C223.09 410.29 224.12 410.29 225.14 410.29C226.16 410.29 227.19 410.29 228.21 410.29C228.89 410.29 229.58 410.29 230.26 410.12C230.43 410.12 230.43 410.12 230.6 410.12C231.28 409.95 231.79 409.95 232.3 409.61C232.48 409.61 232.65 409.44 232.82 409.44C233.33 409.27 233.67 409.09 234.18 408.92C234.52 408.75 234.69 408.75 235.03 408.58C235.2 408.41 235.38 408.41 235.55 408.24C238.28 406.71 240.32 404.49 241.35 402.95C244.59 402.95 247.66 402.1 250.56 400.39C254.65 397.84 257.38 393.4 257.72 388.96C258.24 388.96 258.58 388.96 259.09 388.79C265.23 387.77 268.3 381.8 269.84 376.17C270.01 373.27 270.52 368.15 268.47 366.45Z" fill="#F4905D" fill-opacity="1.000000" fill-rule="nonzero"/>
	<path id="Vector" d="M453.06 288.82C450.33 312.02 440.78 334.88 426.45 353.48C426.27 353.82 426.62 354.16 426.79 353.82C436 346.31 441.46 336.08 446.06 325.5C451.01 313.9 453.91 301.45 453.4 288.82C453.23 288.65 453.06 288.65 453.06 288.82Z" fill="#F5F5F5" fill-opacity="1.000000" fill-rule="nonzero"/>
	<path id="Vector" d="M169.87 270.74C166.45 284.39 167.99 299.23 170.38 312.88C170.38 313.22 170.72 313.05 170.89 312.88C171.91 298.89 170.21 284.73 170.21 270.74C170.21 270.57 169.87 270.57 169.87 270.74Z" fill="#F5F5F5" fill-opacity="1.000000" fill-rule="nonzero"/>
	<path id="Vector" d="M247.66 436.05C265.74 453.28 294.23 472.04 319.82 460.1C320.16 459.93 319.99 459.42 319.65 459.59C292.7 467.44 268.98 450.55 247.83 435.71C247.66 435.71 247.49 435.88 247.66 436.05Z" fill="#F5F5F5" fill-opacity="1.000000" fill-rule="nonzero"/>
	<path id="Vector" d="M317.09 465.22C321.87 466.59 326.13 465.56 329.72 461.98C329.89 461.81 329.72 461.47 329.37 461.47C325.79 463.34 321.19 464.71 317.26 464.88C316.92 464.88 316.92 465.22 317.09 465.22Z" fill="#F5F5F5" fill-opacity="1.000000" fill-rule="nonzero"/>
	<path id="Vector" d="M413.65 60.39C393.52 51.86 327.67 54.42 292.35 58.17C277.85 59.71 268.13 62.95 262.67 68.92C261.65 70.12 260.62 71.99 259.94 74.38C264.72 71.48 270.01 69.09 275.64 67.56C287.58 64.32 300.54 63.46 312.83 62.61C337.39 61.07 362.47 60.9 387.04 61.93C399.66 62.44 416.72 62.95 421.33 77.28C424.06 85.64 423.89 95.19 423.72 103.89C423.54 113.79 422.52 123.85 419.45 133.24C418.94 134.94 418.26 136.65 417.4 138.01C425.93 134.26 429.17 128.12 429.86 109.87C430.37 97.92 429.69 81.38 427.47 74.55C425.42 68.58 421.33 63.63 413.65 60.39Z" fill="#103E82" fill-opacity="1.000000" fill-rule="nonzero"/>
	<path id="Vector" d="M266.25 156.61C296.96 162.07 368.27 161.9 410.92 156.44C418.77 155.42 425.93 150.81 430.54 144.67C423.72 150.3 413.65 151.83 409.9 152.69C401.03 154.39 391.47 154.73 382.94 155.24C353.6 157.46 324.43 157.8 295.08 156.27C282.46 155.59 267.96 154.73 256.53 148.59C246.12 142.96 243.05 131.19 241.35 120.27C239.64 109.7 239.64 98.44 240.32 87.69C240.66 81.72 241.69 75.06 244.25 69.26C242.03 71.82 240.32 74.89 239.3 78.48C235.72 91.78 236.57 114.47 239.3 129.83C242.88 150.47 256.02 154.9 266.25 156.61Z" fill="#1B4C9B" fill-opacity="1.000000" fill-rule="nonzero"/>
	<path id="Vector" d="M242.37 43.33C243.05 52.03 235.2 60.39 230.6 67.05C224.8 75.23 221.39 84.45 219.51 94.34C217.8 103.38 218.83 111.91 221.05 120.78C222.07 125.39 223.09 130.17 222.41 134.94C221.73 140.06 218.15 143.3 213.71 144.16C215.42 145.52 218.15 145.52 220.87 145.01C224.12 144.5 227.19 143.3 227.36 139.38C227.7 135.28 227.02 130.51 226.67 127.1C225.99 119.25 222.07 112.77 222.07 104.58C222.24 76.43 234.86 61.07 245.27 49.13C246.63 48.28 244.93 45.04 242.37 43.33Z" fill="#C37A87" fill-opacity="1.000000" fill-rule="nonzero"/>
	<path id="Vector" d="M565.31 127.44C568.72 131.87 566.51 131.53 562.75 131.7C527.44 133.24 491.95 133.24 456.47 133.41C456.13 133.41 446.23 134.43 455.96 130.68C482.23 120.27 509.01 110.38 536.14 103.04C541.77 101.51 541.43 101.85 544.67 104.75C547.91 107.65 550.81 110.89 553.71 113.96C557.63 118.23 561.73 122.66 565.31 127.44ZM183.85 157.29C156.05 151.15 127.9 146.2 99.92 140.74C91.56 139.04 95.14 143.3 96.51 146.54C99.41 153.54 102.31 160.36 105.72 167.02C108.28 171.96 108.62 171.62 114.08 170.94C137.62 168.21 160.99 164.63 184.2 160.53C193.24 159 187.61 157.97 183.85 157.29ZM497.24 81.03C492.3 79.33 487.01 78.13 481.72 76.94C478.65 76.26 476.09 76.94 474.38 79.16C466.71 89.05 459.54 99.63 452.38 110.04C447.94 116.35 450.5 114.47 454.25 112.25C468.75 103.55 483.94 95.71 498.1 86.32C502.36 83.42 501.51 82.57 497.24 81.03ZM165.26 100.65C161.51 102.19 157.58 103.72 153.83 105.09C148.03 107.31 149.22 107.99 153.15 110.21C163.55 115.84 174.3 120.95 185.05 126.24C190 128.63 190.17 128.12 187.27 123.85C182.66 116.69 177.71 109.7 172.42 102.87C170.04 99.46 168.84 99.12 165.26 100.65ZM475.75 171.96C468.92 166.33 461.93 161.05 454.76 155.93C452.21 154.05 451.01 154.56 452.38 157.63C457.32 168.55 462.1 179.64 467.39 190.39C470.12 196.02 470.63 195.51 472.85 190.22C474.38 186.63 475.92 183.22 477.45 179.81C480.01 173.84 479.16 174.69 475.75 171.96ZM192.38 172.48C182.83 179.81 173.45 187.49 164.41 195.51C160.48 198.92 161.17 199.94 165.26 199.6C168.33 199.43 171.23 199.26 174.3 198.75C178.57 198.06 180.1 197.21 183.68 192.09C187.78 186.12 191.7 180.32 195.46 174.01C199.55 166.67 194.26 170.94 192.38 172.48Z" fill="#EB8382" fill-opacity="1.000000" fill-rule="nonzero"/>
	<path id="Vector" d="M475.24 184.42C474.89 184.59 474.38 184.59 474.04 184.76C469.27 185.78 466.19 179.47 463.98 176.23C460.56 171.11 457.15 165.82 453.91 160.53C453.4 159.51 452.72 158.66 452.21 157.63C457.15 168.55 461.93 179.64 467.05 190.39C469.78 196.02 470.29 195.51 472.51 190.22C473.7 188.34 474.55 186.46 475.24 184.42Z" fill="#C37A87" fill-opacity="1.000000" fill-rule="nonzero"/>
	<path id="Vector" d="M553.71 113.79C552.69 112.6 551.66 111.57 550.64 110.38C551.66 112.6 552.52 114.98 553.54 117.2C555.08 120.44 557.98 126.75 552.69 127.78C546.72 128.97 540.23 128.97 534.26 129.48C512.6 130.85 490.76 131.7 469.09 132.73C463.46 132.9 458.01 133.24 452.38 133.58C453.57 133.92 456.3 133.58 456.64 133.58C491.95 133.24 527.44 133.41 562.92 131.87C566.68 131.7 568.89 132.04 565.48 127.61C561.73 122.66 557.63 118.22 553.71 113.79Z" fill="#C37A87" fill-opacity="1.000000" fill-rule="nonzero"/>
	<path id="Vector" d="M484.62 90.08C480.7 92.98 476.77 96.05 472.85 98.95C468.41 102.19 464.15 105.6 459.88 108.84C472.68 101.34 485.81 94.51 498.1 86.15C502.36 83.25 501.51 82.4 497.24 81.03C493.83 79.84 490.42 78.99 487.01 78.13C488.54 79.5 489.57 81.03 489.74 83.08C490.08 86.32 486.84 88.37 484.62 90.08Z" fill="#C37A87" fill-opacity="1.000000" fill-rule="nonzero"/>
	<path id="Vector" d="M192.38 172.48C192.21 172.65 192.04 172.82 191.87 172.99C189.66 178.96 180.78 189.36 179.42 190.73C176.18 194.14 172.6 197.04 168.67 199.43C170.72 199.26 172.6 199.09 174.47 198.75C178.74 198.06 180.27 197.21 183.85 192.09C187.95 186.12 191.87 180.32 195.63 174.01C199.55 166.67 194.26 170.94 192.38 172.48Z" fill="#C37A87" fill-opacity="1.000000" fill-rule="nonzero"/>
	<path id="Vector" d="M177.03 120.61C172.08 117.54 166.97 114.3 162.36 110.72C160.31 109.18 158.44 107.14 158.09 104.58C158.09 104.24 158.09 103.72 158.09 103.38C156.56 103.89 155.19 104.58 153.66 105.09C147.86 107.31 149.05 107.99 152.98 110.21C163.38 115.84 174.13 120.95 184.88 126.24C186.76 127.1 187.78 127.61 188.46 127.78C184.88 125.39 180.95 123 177.03 120.61Z" fill="#C37A87" fill-opacity="1.000000" fill-rule="nonzero"/>
	<path id="Vector" d="M187.61 159.85C171.74 161.56 155.71 162.41 139.67 163.43C134.72 163.77 129.78 163.95 124.83 163.77C119.71 163.6 114.08 163.26 109.47 161.05C104.7 158.83 101.8 154.73 98.56 150.98C100.77 156.44 103.16 161.9 105.89 167.19C108.45 172.13 108.79 171.79 114.25 171.11C137.79 168.38 161.17 164.8 184.37 160.7C185.73 160.36 186.76 160.02 187.61 159.85Z" fill="#C37A87" fill-opacity="1.000000" fill-rule="nonzero"/>
</svg>
