<svg width="122.740479" height="108.992676" viewBox="0 0 122.74 108.993" fill="none" xmlns="http://www.w3.org/2000/svg" xmlns:xlink="http://www.w3.org/1999/xlink">
	<desc>
			Created with Pixso.
	</desc>
	<defs>
		<clipPath id="clip39_2431">
			<rect id="Frame" rx="0.000000" width="57.919067" height="51.045174" transform="translate(64.321289 0.500000)" fill="white" fill-opacity="0"/>
		</clipPath>
		<clipPath id="clip39_2486">
			<rect id="Frame" rx="0.000000" width="57.919067" height="51.045174" transform="matrix(-1 0 0 1 59.4189 0.5)" fill="white" fill-opacity="0"/>
		</clipPath>
		<clipPath id="clip39_2541">
			<rect id="Frame" rx="0.000000" width="57.919067" height="51.045174" transform="matrix(1 0 0 -1 64.3213 109.493)" fill="white" fill-opacity="0"/>
		</clipPath>
		<clipPath id="clip39_2596">
			<rect id="Frame" rx="0.000000" width="57.919067" height="51.045174" transform="translate(59.418945 109.492676) rotate(180.000000)" fill="white" fill-opacity="0"/>
		</clipPath>
	</defs>
	<rect id="Frame" rx="0.000000" width="57.919067" height="51.045174" transform="translate(64.321289 0.500000)" fill="#FFFFFF" fill-opacity="0"/>
	<g clip-path="url(#clip39_2431)">
		<path id="Vector" d="M89.82 51.76C88.94 51.66 88.36 51.23 88.36 50.32C88.36 49.43 88.91 48.89 89.79 48.9C90.61 48.9 91.13 49.41 91.17 50.23C91.22 51.13 90.67 51.61 89.82 51.76Z" fill="#446381" fill-opacity="1.000000" fill-rule="nonzero"/>
		<path id="Vector" d="M91.07 17.43C91 16.68 90.48 16.19 89.72 16.23C88.91 16.27 88.4 16.82 88.47 17.66C88.53 18.41 89.06 18.81 89.81 18.88C90.62 18.73 91.14 18.27 91.07 17.43Z" fill="#446381" fill-opacity="1.000000" fill-rule="nonzero"/>
		<path id="Vector" d="M81.86 0.14C81.04 0.1 80.5 0.61 80.48 1.44C80.46 2.2 80.95 2.72 81.7 2.76C82.52 2.8 82.98 2.27 83.1 1.47C83.02 0.7 82.61 0.18 81.86 0.14Z" fill="#446381" fill-opacity="1.000000" fill-rule="nonzero"/>
		<path id="Vector" d="M88.55 9.56C88.59 10.36 89.09 10.77 89.86 10.72C90.57 10.67 90.98 10.22 90.98 9.5C90.98 8.71 90.51 8.31 89.74 8.26C88.96 8.34 88.52 8.77 88.55 9.56Z" fill="#446381" fill-opacity="1.000000" fill-rule="nonzero"/>
		<path id="Vector" d="M97.73 49.05C96.96 49.06 96.49 49.55 96.5 50.32C96.5 51.1 96.98 51.58 97.76 51.57C98.54 51.56 98.95 51.07 99.01 50.3C98.94 49.52 98.52 49.04 97.73 49.05Z" fill="#446381" fill-opacity="1.000000" fill-rule="nonzero"/>
		<path id="Vector" d="M107.12 33.92C107.1 33.26 106.69 32.83 106.04 32.83C105.32 32.83 104.89 33.29 104.93 34.02C104.98 34.66 105.42 35 106.13 35.06C106.68 34.91 107.13 34.58 107.12 33.92Z" fill="#446381" fill-opacity="1.000000" fill-rule="nonzero"/>
		<path id="Vector" d="M106.14 49.19C105.41 49.12 104.95 49.53 104.9 50.26C104.86 50.93 105.26 51.37 105.9 51.44C106.64 51.51 107.03 51.07 107.16 50.38C107.12 49.7 106.79 49.25 106.14 49.19Z" fill="#446381" fill-opacity="1.000000" fill-rule="nonzero"/>
		<path id="Vector" d="M104.96 25.91C104.96 26.51 105.36 26.91 105.94 26.95C106.6 27 107.05 26.58 107.08 25.93C107.12 25.26 106.67 24.9 106.02 24.79C105.39 24.88 104.95 25.23 104.96 25.91Z" fill="#446381" fill-opacity="1.000000" fill-rule="nonzero"/>
		<path id="Vector" d="M104.9 41.96C104.91 42.69 105.35 43.12 106.07 43.1C106.72 43.07 107.13 42.65 107.13 41.99C107.13 41.25 106.67 40.88 105.97 40.81C105.33 40.94 104.9 41.29 104.9 41.96Z" fill="#446381" fill-opacity="1.000000" fill-rule="nonzero"/>
		<path id="Vector" d="M97.83 0.42C97.18 0.38 96.75 0.78 96.73 1.44C96.71 2.03 97.1 2.44 97.67 2.48C98.32 2.52 98.69 2.11 98.8 1.43C98.72 0.88 98.41 0.46 97.83 0.42Z" fill="#446381" fill-opacity="1.000000" fill-rule="nonzero"/>
		<path id="Vector" d="M88.63 1.41C88.61 2.13 89.01 2.57 89.73 2.6C90.44 2.62 90.88 2.22 90.91 1.49C90.94 0.77 90.51 0.38 89.73 0.26C89.13 0.36 88.64 0.66 88.63 1.41Z" fill="#446381" fill-opacity="1.000000" fill-rule="nonzero"/>
		<path id="Vector" d="M96.66 9.49C96.66 10.15 97.07 10.58 97.71 10.6C98.43 10.61 98.88 10.16 98.84 9.43C98.82 8.78 98.37 8.44 97.73 8.37C97.09 8.48 96.66 8.83 96.66 9.49Z" fill="#446381" fill-opacity="1.000000" fill-rule="nonzero"/>
		<path id="Vector" d="M96.61 17.48C96.58 18.2 96.98 18.65 97.69 18.69C98.4 18.73 98.84 18.32 98.89 17.6C98.93 16.88 98.5 16.49 97.82 16.38C97.11 16.41 96.65 16.76 96.61 17.48Z" fill="#446381" fill-opacity="1.000000" fill-rule="nonzero"/>
		<path id="Vector" d="M105.01 17.67C105.08 18.25 105.49 18.63 106.07 18.58C106.71 18.52 107.11 18.09 107.03 17.43C106.96 16.85 106.54 16.54 105.97 16.5C105.34 16.64 104.93 17.01 105.01 17.67Z" fill="#446381" fill-opacity="1.000000" fill-rule="nonzero"/>
		<path id="Vector" d="M106.12 8.6C105.59 8.55 105.2 8.79 105.14 9.36C105.08 9.96 105.35 10.36 105.99 10.39C106.54 10.42 106.85 10.12 106.91 9.57C106.92 9.02 106.68 8.66 106.12 8.6Z" fill="#446381" fill-opacity="1.000000" fill-rule="nonzero"/>
		<path id="Vector" d="M106.84 1.58C106.93 1.03 106.62 0.67 106.09 0.61C105.61 0.56 105.27 0.85 105.2 1.32C105.12 1.87 105.44 2.18 105.95 2.3C106.44 2.29 106.78 2.05 106.84 1.58Z" fill="#446381" fill-opacity="1.000000" fill-rule="nonzero"/>
		<path id="Vector" d="M114.89 34.03C114.94 33.49 114.7 33.1 114.14 33.04C113.53 32.98 113.14 33.26 113.11 33.91C113.1 34.46 113.39 34.78 113.93 34.84C114.49 34.84 114.84 34.59 114.89 34.03Z" fill="#446381" fill-opacity="1.000000" fill-rule="nonzero"/>
		<path id="Vector" d="M114.09 41.08C113.54 41.04 113.17 41.3 113.12 41.86C113.07 42.48 113.36 42.86 114 42.88C114.55 42.89 114.85 42.58 114.91 41.95C114.88 41.48 114.65 41.11 114.09 41.08Z" fill="#446381" fill-opacity="1.000000" fill-rule="nonzero"/>
		<path id="Vector" d="M114.83 17.66C114.89 17.11 114.59 16.75 114.04 16.71C113.56 16.68 113.23 16.98 113.18 17.45C113.11 17.99 113.44 18.3 113.95 18.41C114.45 18.38 114.78 18.12 114.83 17.66Z" fill="#446381" fill-opacity="1.000000" fill-rule="nonzero"/>
		<path id="Vector" d="M114.06 49.41C113.52 49.39 113.16 49.65 113.12 50.21C113.08 50.83 113.39 51.2 114.02 51.2C114.58 51.2 114.87 50.88 114.91 50.32C114.89 49.78 114.62 49.44 114.06 49.41Z" fill="#446381" fill-opacity="1.000000" fill-rule="nonzero"/>
		<path id="Vector" d="M114.87 25.85C114.86 25.35 114.58 25.04 114.09 25.01C113.53 24.97 113.18 25.26 113.15 25.83C113.13 26.41 113.44 26.7 114.08 26.76C114.54 26.7 114.88 26.44 114.87 25.85Z" fill="#446381" fill-opacity="1.000000" fill-rule="nonzero"/>
		<path id="Vector" d="M113.27 9.45C113.24 9.88 113.52 10.19 113.93 10.23C114.41 10.27 114.74 9.97 114.74 9.47C114.73 9.05 114.43 8.81 113.97 8.74C113.61 8.82 113.3 9.03 113.27 9.45Z" fill="#446381" fill-opacity="1.000000" fill-rule="nonzero"/>
		<path id="Vector" d="M121.95 42.72C122.38 42.75 122.68 42.46 122.72 42.05C122.76 41.56 122.46 41.24 121.97 41.24C121.55 41.25 121.31 41.55 121.25 41.97C121.29 42.39 121.53 42.68 121.95 42.72Z" fill="#446381" fill-opacity="1.000000" fill-rule="nonzero"/>
		<path id="Vector" d="M122.07 49.58C121.64 49.52 121.33 49.8 121.27 50.2C121.2 50.69 121.5 51.02 121.98 51.05C122.41 51.07 122.65 50.77 122.74 50.34C122.71 49.92 122.47 49.63 122.07 49.58Z" fill="#446381" fill-opacity="1.000000" fill-rule="nonzero"/>
		<path id="Vector" d="M113.99 0.87C113.67 0.87 113.46 1.05 113.43 1.37C113.4 1.75 113.57 2.01 113.96 2.03C114.35 2.06 114.55 1.85 114.59 1.45C114.57 1.07 114.38 0.85 113.99 0.87Z" fill="#446381" fill-opacity="1.000000" fill-rule="nonzero"/>
		<path id="Vector" d="M121.92 25.3C121.6 25.32 121.43 25.53 121.42 25.85C121.4 26.23 121.61 26.46 122 26.46C122.39 26.46 122.57 26.23 122.58 25.85C122.53 25.45 122.3 25.27 121.92 25.3Z" fill="#446381" fill-opacity="1.000000" fill-rule="nonzero"/>
		<path id="Vector" d="M122.61 34.03C122.65 33.59 122.45 33.3 121.98 33.3C121.6 33.3 121.38 33.51 121.37 33.9C121.35 34.28 121.54 34.5 121.97 34.56C122.29 34.56 122.57 34.42 122.61 34.03Z" fill="#446381" fill-opacity="1.000000" fill-rule="nonzero"/>
		<path id="Vector" d="M91.15 33.99C91.17 33.1 90.64 32.54 89.75 32.53C88.94 32.53 88.41 33.06 88.38 33.87C88.35 34.77 88.92 35.23 89.76 35.36C90.57 35.24 91.13 34.81 91.15 33.99Z" fill="#446381" fill-opacity="1.000000" fill-rule="nonzero"/>
		<path id="Vector" d="M88.41 25.79C88.34 26.61 88.85 27.18 89.64 27.25C90.52 27.33 91.09 26.78 91.12 25.9C91.15 25.08 90.61 24.64 89.82 24.48C89.02 24.55 88.47 24.98 88.41 25.79Z" fill="#446381" fill-opacity="1.000000" fill-rule="nonzero"/>
		<path id="Vector" d="M97.71 24.66C96.99 24.67 96.57 25.1 96.54 25.81C96.51 26.6 96.94 27.08 97.73 27.1C98.51 27.12 98.92 26.65 98.98 25.87C98.91 25.09 98.49 24.64 97.71 24.66Z" fill="#446381" fill-opacity="1.000000" fill-rule="nonzero"/>
		<path id="Vector" d="M99 41.99C99.01 41.21 98.54 40.72 97.76 40.72C96.99 40.71 96.51 41.18 96.5 41.97C96.49 42.75 96.96 43.18 97.78 43.26C98.5 43.18 99 42.78 99 41.99Z" fill="#446381" fill-opacity="1.000000" fill-rule="nonzero"/>
		<path id="Vector" d="M97.74 32.67C96.96 32.68 96.5 33.16 96.5 33.94C96.51 34.72 96.99 35.19 97.77 35.19C98.54 35.18 98.95 34.69 99.02 33.92C98.94 33.13 98.52 32.66 97.74 32.67Z" fill="#446381" fill-opacity="1.000000" fill-rule="nonzero"/>
		<path id="Vector" d="M83.15 9.53C83.17 8.71 82.66 8.17 81.86 8.13C80.98 8.09 80.42 8.64 80.43 9.53C80.43 10.34 80.99 10.78 81.79 10.9C82.57 10.79 83.12 10.36 83.15 9.53Z" fill="#446381" fill-opacity="1.000000" fill-rule="nonzero"/>
		<path id="Vector" d="M72.42 1.38C72.39 2.27 72.92 2.83 73.8 2.84C74.61 2.85 75.14 2.33 75.18 1.52C75.22 0.62 74.66 0.15 73.74 0.01C73.02 0.16 72.44 0.55 72.42 1.38Z" fill="#446381" fill-opacity="1.000000" fill-rule="nonzero"/>
		<path id="Vector" d="M91.15 42.09C91.21 41.2 90.68 40.62 89.8 40.59C88.93 40.56 88.38 41.12 88.38 42.01C88.39 42.83 88.93 43.27 89.72 43.4C90.54 43.32 91.09 42.9 91.15 42.09Z" fill="#446381" fill-opacity="1.000000" fill-rule="nonzero"/>
		<path id="Vector" d="M81.73 16.13C80.92 16.15 80.4 16.67 80.38 17.48C80.35 18.37 80.88 18.93 81.76 18.95C82.66 18.97 83.1 18.4 83.22 17.53C83.09 16.66 82.63 16.1 81.73 16.13Z" fill="#446381" fill-opacity="1.000000" fill-rule="nonzero"/>
		<path id="Vector" d="M81.83 24.43C80.93 24.41 80.38 24.89 80.35 25.8C80.31 26.77 80.83 27.34 81.81 27.34C82.72 27.34 83.17 26.78 83.25 25.89C83.18 25 82.74 24.45 81.83 24.43Z" fill="#446381" fill-opacity="1.000000" fill-rule="nonzero"/>
		<path id="Vector" d="M73.85 8.05C72.88 8.03 72.33 8.58 72.36 9.56C72.39 10.47 72.93 10.97 73.83 10.95C74.74 10.94 75.19 10.41 75.28 9.43C75.17 8.64 74.76 8.06 73.85 8.05Z" fill="#446381" fill-opacity="1.000000" fill-rule="nonzero"/>
		<path id="Vector" d="M65.51 0C64.61 0.01 64.09 0.53 64.09 1.44C64.09 2.43 64.66 2.95 65.62 2.9C66.53 2.86 66.95 2.29 66.99 1.38C66.88 0.5 66.41 -0.02 65.51 0Z" fill="#446381" fill-opacity="1.000000" fill-rule="nonzero"/>
		<path id="Vector" d="M81.81 40.48C80.92 40.46 80.36 40.94 80.31 41.85C80.24 42.8 80.71 43.42 81.69 43.47C82.65 43.52 83.19 43 83.29 42.04C83.24 41.08 82.79 40.5 81.81 40.48Z" fill="#446381" fill-opacity="1.000000" fill-rule="nonzero"/>
		<path id="Vector" d="M80.33 33.74C80.24 34.7 80.69 35.32 81.67 35.4C82.56 35.47 83.15 35.03 83.24 34.11C83.34 33.15 82.87 32.58 81.89 32.43C81.03 32.45 80.41 32.81 80.33 33.74Z" fill="#446381" fill-opacity="1.000000" fill-rule="nonzero"/>
		<path id="Vector" d="M81.76 48.81C80.86 48.82 80.33 49.32 80.3 50.23C80.26 51.19 80.76 51.77 81.73 51.8C82.71 51.83 83.21 51.29 83.28 50.32C83.22 49.36 82.73 48.81 81.76 48.81Z" fill="#446381" fill-opacity="1.000000" fill-rule="nonzero"/>
		<path id="Vector" d="M72.31 17.52C72.3 18.42 72.78 18.98 73.67 19.04C74.62 19.1 75.23 18.62 75.28 17.64C75.33 16.67 74.82 16.13 73.86 16.03C72.9 16.07 72.33 16.54 72.31 17.52Z" fill="#446381" fill-opacity="1.000000" fill-rule="nonzero"/>
		<path id="Vector" d="M65.65 7.98C64.7 7.92 64.09 8.4 64.03 9.38C63.96 10.33 64.44 10.95 65.41 11.01C66.35 11.07 66.92 10.58 67.05 9.61C67.05 8.67 66.62 8.05 65.65 7.98Z" fill="#446381" fill-opacity="1.000000" fill-rule="nonzero"/>
		<path id="Vector" d="M75.37 25.97C75.41 24.98 74.81 24.32 73.82 24.3C72.9 24.27 72.28 24.87 72.23 25.79C72.18 26.79 72.8 27.35 73.78 27.49C74.69 27.39 75.33 26.89 75.37 25.97Z" fill="#446381" fill-opacity="1.000000" fill-rule="nonzero"/>
		<path id="Vector" d="M73.8 32.32C72.89 32.31 72.26 32.9 72.2 33.81C72.14 34.81 72.74 35.48 73.72 35.54C74.7 35.6 75.26 34.95 75.43 33.95C75.32 32.99 74.8 32.33 73.8 32.32Z" fill="#446381" fill-opacity="1.000000" fill-rule="nonzero"/>
		<path id="Vector" d="M65.57 15.89C64.58 15.92 63.99 16.5 63.89 17.47C63.78 18.35 64.68 19.27 65.56 19.2C66.54 19.13 67.06 18.51 67.18 17.62C67.19 16.71 66.4 15.85 65.57 15.89Z" fill="#446381" fill-opacity="1.000000" fill-rule="nonzero"/>
		<path id="Vector" d="M73.84 48.65C72.86 48.69 72.27 49.26 72.15 50.23C72.05 51.1 72.95 52.03 73.82 51.97C74.8 51.89 75.32 51.29 75.45 50.4C75.46 49.48 74.68 48.63 73.84 48.65Z" fill="#446381" fill-opacity="1.000000" fill-rule="nonzero"/>
		<path id="Vector" d="M73.77 43.62C74.75 43.64 75.34 43.02 75.45 42.04C75.54 41.16 74.64 40.24 73.77 40.32C72.79 40.4 72.26 41 72.14 41.98C72.26 42.95 72.79 43.6 73.77 43.62Z" fill="#446381" fill-opacity="1.000000" fill-rule="nonzero"/>
		<path id="Vector" d="M63.85 25.88C63.85 26.87 64.46 27.51 65.43 27.56C66.48 27.62 67.15 27 67.2 25.95C67.25 24.88 66.58 24.32 65.56 24.16C64.54 24.29 63.87 24.82 63.85 25.88Z" fill="#446381" fill-opacity="1.000000" fill-rule="nonzero"/>
		<path id="Vector" d="M65.48 32.23C64.44 32.27 63.81 32.93 63.84 33.98C63.87 35.03 64.53 35.66 65.58 35.63C66.63 35.61 67.15 34.91 67.26 33.88C67.09 32.86 66.54 32.19 65.48 32.23Z" fill="#446381" fill-opacity="1.000000" fill-rule="nonzero"/>
		<path id="Vector" d="M65.53 40.26C64.47 40.27 63.88 40.88 63.82 41.94C63.76 42.95 64.6 43.77 65.6 43.7C66.66 43.63 67.18 42.98 67.26 41.93C67.13 40.91 66.59 40.25 65.53 40.26Z" fill="#446381" fill-opacity="1.000000" fill-rule="nonzero"/>
		<path id="Vector" d="M63.82 50.26C63.83 51.33 64.4 51.95 65.45 52.04C66.44 52.12 67.28 51.3 67.24 50.3C67.19 49.22 66.57 48.69 65.72 48.58C64.59 48.57 63.81 49.31 63.82 50.26Z" fill="#446381" fill-opacity="1.000000" fill-rule="nonzero"/>
	</g>
	<rect id="Frame" rx="0.000000" width="57.919067" height="51.045174" transform="matrix(-1 0 0 1 59.4189 0.5)" fill="#FFFFFF" fill-opacity="0"/>
	<g clip-path="url(#clip39_2486)">
		<path id="Vector" d="M32.91 51.76C33.79 51.66 34.37 51.23 34.37 50.32C34.37 49.43 33.82 48.89 32.94 48.9C32.12 48.9 31.6 49.41 31.56 50.23C31.51 51.13 32.06 51.61 32.91 51.76Z" fill="#446381" fill-opacity="1.000000" fill-rule="nonzero"/>
		<path id="Vector" d="M31.66 17.43C31.73 16.68 32.25 16.19 33.01 16.23C33.82 16.27 34.33 16.82 34.26 17.66C34.2 18.41 33.67 18.81 32.92 18.88C32.11 18.73 31.59 18.27 31.66 17.43Z" fill="#446381" fill-opacity="1.000000" fill-rule="nonzero"/>
		<path id="Vector" d="M40.87 0.14C41.69 0.1 42.23 0.61 42.25 1.44C42.27 2.2 41.78 2.72 41.03 2.76C40.21 2.8 39.75 2.27 39.63 1.47C39.71 0.7 40.12 0.18 40.87 0.14Z" fill="#446381" fill-opacity="1.000000" fill-rule="nonzero"/>
		<path id="Vector" d="M34.18 9.56C34.14 10.36 33.64 10.77 32.87 10.72C32.16 10.67 31.75 10.22 31.75 9.5C31.75 8.71 32.22 8.31 32.99 8.26C33.77 8.34 34.22 8.77 34.18 9.56Z" fill="#446381" fill-opacity="1.000000" fill-rule="nonzero"/>
		<path id="Vector" d="M25 49.05C25.77 49.06 26.24 49.55 26.23 50.32C26.23 51.1 25.75 51.58 24.97 51.57C24.2 51.56 23.79 51.07 23.72 50.3C23.79 49.52 24.21 49.04 25 49.05Z" fill="#446381" fill-opacity="1.000000" fill-rule="nonzero"/>
		<path id="Vector" d="M15.62 33.92C15.63 33.26 16.04 32.83 16.69 32.83C17.41 32.83 17.84 33.29 17.8 34.02C17.76 34.66 17.31 35 16.6 35.06C16.05 34.91 15.6 34.58 15.62 33.92Z" fill="#446381" fill-opacity="1.000000" fill-rule="nonzero"/>
		<path id="Vector" d="M16.59 49.19C17.32 49.12 17.78 49.53 17.83 50.26C17.88 50.93 17.47 51.37 16.83 51.44C16.09 51.51 15.7 51.07 15.57 50.38C15.61 49.7 15.94 49.25 16.59 49.19Z" fill="#446381" fill-opacity="1.000000" fill-rule="nonzero"/>
		<path id="Vector" d="M17.77 25.91C17.77 26.51 17.37 26.91 16.79 26.95C16.13 27 15.68 26.58 15.65 25.93C15.61 25.26 16.06 24.9 16.71 24.79C17.34 24.88 17.78 25.23 17.77 25.91Z" fill="#446381" fill-opacity="1.000000" fill-rule="nonzero"/>
		<path id="Vector" d="M17.83 41.96C17.82 42.69 17.38 43.12 16.66 43.1C16.01 43.07 15.6 42.65 15.6 41.99C15.6 41.25 16.06 40.88 16.76 40.81C17.4 40.94 17.83 41.29 17.83 41.96Z" fill="#446381" fill-opacity="1.000000" fill-rule="nonzero"/>
		<path id="Vector" d="M24.9 0.42C25.55 0.38 25.98 0.78 26 1.44C26.02 2.03 25.63 2.44 25.06 2.48C24.41 2.52 24.04 2.11 23.93 1.43C24.01 0.88 24.32 0.46 24.9 0.42Z" fill="#446381" fill-opacity="1.000000" fill-rule="nonzero"/>
		<path id="Vector" d="M34.1 1.41C34.12 2.13 33.72 2.57 33 2.6C32.29 2.62 31.85 2.22 31.82 1.49C31.79 0.77 32.22 0.38 33 0.26C33.6 0.36 34.09 0.66 34.1 1.41Z" fill="#446381" fill-opacity="1.000000" fill-rule="nonzero"/>
		<path id="Vector" d="M26.07 9.49C26.07 10.15 25.66 10.58 25.02 10.6C24.3 10.61 23.85 10.16 23.89 9.43C23.91 8.78 24.36 8.44 25 8.37C25.64 8.48 26.07 8.83 26.07 9.49Z" fill="#446381" fill-opacity="1.000000" fill-rule="nonzero"/>
		<path id="Vector" d="M26.12 17.48C26.15 18.2 25.75 18.65 25.04 18.69C24.33 18.73 23.89 18.32 23.84 17.6C23.8 16.88 24.23 16.49 24.91 16.38C25.62 16.41 26.08 16.76 26.12 17.48Z" fill="#446381" fill-opacity="1.000000" fill-rule="nonzero"/>
		<path id="Vector" d="M17.72 17.67C17.65 18.25 17.24 18.63 16.66 18.58C16.02 18.52 15.62 18.09 15.7 17.43C15.77 16.85 16.19 16.54 16.76 16.5C17.4 16.64 17.81 17.01 17.72 17.67Z" fill="#446381" fill-opacity="1.000000" fill-rule="nonzero"/>
		<path id="Vector" d="M16.61 8.6C17.14 8.55 17.53 8.79 17.59 9.36C17.65 9.96 17.38 10.36 16.75 10.39C16.2 10.42 15.88 10.12 15.82 9.57C15.81 9.02 16.05 8.66 16.61 8.6Z" fill="#446381" fill-opacity="1.000000" fill-rule="nonzero"/>
		<path id="Vector" d="M15.89 1.58C15.8 1.03 16.11 0.67 16.64 0.61C17.12 0.56 17.46 0.85 17.53 1.32C17.61 1.87 17.29 2.18 16.78 2.3C16.29 2.29 15.96 2.05 15.89 1.58Z" fill="#446381" fill-opacity="1.000000" fill-rule="nonzero"/>
		<path id="Vector" d="M7.84 34.03C7.79 33.49 8.03 33.1 8.59 33.04C9.2 32.98 9.59 33.26 9.62 33.91C9.64 34.46 9.34 34.78 8.8 34.84C8.24 34.84 7.89 34.59 7.84 34.03Z" fill="#446381" fill-opacity="1.000000" fill-rule="nonzero"/>
		<path id="Vector" d="M8.64 41.08C9.19 41.04 9.56 41.3 9.61 41.86C9.66 42.48 9.37 42.86 8.73 42.88C8.18 42.89 7.88 42.58 7.82 41.95C7.85 41.48 8.08 41.11 8.64 41.08Z" fill="#446381" fill-opacity="1.000000" fill-rule="nonzero"/>
		<path id="Vector" d="M7.9 17.66C7.84 17.11 8.14 16.75 8.69 16.71C9.18 16.68 9.5 16.98 9.55 17.45C9.62 17.99 9.3 18.3 8.78 18.41C8.28 18.38 7.95 18.12 7.9 17.66Z" fill="#446381" fill-opacity="1.000000" fill-rule="nonzero"/>
		<path id="Vector" d="M8.67 49.41C9.21 49.39 9.57 49.65 9.61 50.21C9.65 50.83 9.35 51.2 8.71 51.2C8.15 51.2 7.86 50.88 7.82 50.32C7.84 49.78 8.11 49.44 8.67 49.41Z" fill="#446381" fill-opacity="1.000000" fill-rule="nonzero"/>
		<path id="Vector" d="M7.86 25.85C7.87 25.35 8.15 25.04 8.64 25.01C9.2 24.97 9.55 25.26 9.58 25.83C9.6 26.41 9.29 26.7 8.65 26.76C8.19 26.7 7.85 26.44 7.86 25.85Z" fill="#446381" fill-opacity="1.000000" fill-rule="nonzero"/>
		<path id="Vector" d="M9.46 9.45C9.49 9.88 9.21 10.19 8.8 10.23C8.32 10.27 7.99 9.97 7.99 9.47C8 9.05 8.3 8.81 8.76 8.74C9.12 8.82 9.43 9.03 9.46 9.45Z" fill="#446381" fill-opacity="1.000000" fill-rule="nonzero"/>
		<path id="Vector" d="M0.78 42.72C0.35 42.75 0.05 42.46 0.01 42.05C-0.03 41.56 0.27 41.24 0.77 41.24C1.18 41.25 1.42 41.55 1.48 41.97C1.44 42.39 1.2 42.68 0.78 42.72Z" fill="#446381" fill-opacity="1.000000" fill-rule="nonzero"/>
		<path id="Vector" d="M0.66 49.58C1.09 49.52 1.4 49.8 1.46 50.2C1.53 50.69 1.23 51.02 0.75 51.05C0.32 51.07 0.08 50.77 0 50.34C0.02 49.92 0.26 49.63 0.66 49.58Z" fill="#446381" fill-opacity="1.000000" fill-rule="nonzero"/>
		<path id="Vector" d="M8.75 0.87C9.06 0.87 9.27 1.05 9.3 1.37C9.33 1.75 9.16 2.01 8.77 2.03C8.39 2.06 8.18 1.85 8.14 1.45C8.16 1.07 8.35 0.85 8.75 0.87Z" fill="#446381" fill-opacity="1.000000" fill-rule="nonzero"/>
		<path id="Vector" d="M0.81 25.3C1.13 25.32 1.3 25.53 1.31 25.85C1.33 26.23 1.13 26.46 0.73 26.46C0.34 26.46 0.16 26.23 0.15 25.85C0.2 25.45 0.43 25.27 0.81 25.3Z" fill="#446381" fill-opacity="1.000000" fill-rule="nonzero"/>
		<path id="Vector" d="M0.12 34.03C0.08 33.59 0.28 33.3 0.75 33.3C1.13 33.3 1.35 33.51 1.37 33.9C1.38 34.28 1.19 34.5 0.76 34.56C0.44 34.56 0.16 34.42 0.12 34.03Z" fill="#446381" fill-opacity="1.000000" fill-rule="nonzero"/>
		<path id="Vector" d="M31.58 33.99C31.56 33.1 32.09 32.54 32.98 32.53C33.79 32.53 34.32 33.06 34.35 33.87C34.38 34.77 33.81 35.23 32.97 35.36C32.16 35.24 31.6 34.81 31.58 33.99Z" fill="#446381" fill-opacity="1.000000" fill-rule="nonzero"/>
		<path id="Vector" d="M34.32 25.79C34.39 26.61 33.88 27.18 33.09 27.25C32.21 27.33 31.64 26.78 31.61 25.9C31.58 25.08 32.13 24.64 32.91 24.48C33.71 24.55 34.26 24.98 34.32 25.79Z" fill="#446381" fill-opacity="1.000000" fill-rule="nonzero"/>
		<path id="Vector" d="M25.02 24.66C25.74 24.67 26.16 25.1 26.19 25.81C26.22 26.6 25.79 27.08 25 27.1C24.22 27.12 23.81 26.65 23.75 25.87C23.82 25.09 24.24 24.64 25.02 24.66Z" fill="#446381" fill-opacity="1.000000" fill-rule="nonzero"/>
		<path id="Vector" d="M23.73 41.99C23.72 41.21 24.19 40.72 24.97 40.72C25.74 40.71 26.22 41.18 26.23 41.97C26.24 42.75 25.77 43.18 24.95 43.26C24.23 43.18 23.73 42.78 23.73 41.99Z" fill="#446381" fill-opacity="1.000000" fill-rule="nonzero"/>
		<path id="Vector" d="M24.99 32.67C25.77 32.68 26.23 33.16 26.23 33.94C26.22 34.72 25.74 35.19 24.97 35.19C24.19 35.18 23.78 34.69 23.72 33.92C23.79 33.13 24.21 32.66 24.99 32.67Z" fill="#446381" fill-opacity="1.000000" fill-rule="nonzero"/>
		<path id="Vector" d="M39.58 9.53C39.56 8.71 40.07 8.17 40.87 8.13C41.75 8.09 42.31 8.64 42.3 9.53C42.3 10.34 41.74 10.78 40.95 10.9C40.16 10.79 39.61 10.36 39.58 9.53Z" fill="#446381" fill-opacity="1.000000" fill-rule="nonzero"/>
		<path id="Vector" d="M50.31 1.38C50.34 2.27 49.81 2.83 48.93 2.84C48.12 2.85 47.59 2.33 47.55 1.52C47.51 0.62 48.07 0.15 49 0.01C49.71 0.16 50.29 0.55 50.31 1.38Z" fill="#446381" fill-opacity="1.000000" fill-rule="nonzero"/>
		<path id="Vector" d="M31.58 42.09C31.52 41.2 32.05 40.62 32.93 40.59C33.8 40.56 34.35 41.12 34.35 42.01C34.34 42.83 33.8 43.27 33.01 43.4C32.19 43.32 31.64 42.9 31.58 42.09Z" fill="#446381" fill-opacity="1.000000" fill-rule="nonzero"/>
		<path id="Vector" d="M41 16.13C41.81 16.15 42.33 16.67 42.35 17.48C42.38 18.37 41.85 18.93 40.97 18.95C40.07 18.97 39.63 18.4 39.51 17.53C39.64 16.66 40.1 16.1 41 16.13Z" fill="#446381" fill-opacity="1.000000" fill-rule="nonzero"/>
		<path id="Vector" d="M40.9 24.43C41.8 24.41 42.35 24.89 42.38 25.8C42.42 26.77 41.9 27.34 40.92 27.34C40.01 27.34 39.56 26.78 39.48 25.89C39.55 25 39.99 24.45 40.9 24.43Z" fill="#446381" fill-opacity="1.000000" fill-rule="nonzero"/>
		<path id="Vector" d="M48.88 8.05C49.85 8.03 50.4 8.58 50.37 9.56C50.34 10.47 49.8 10.97 48.9 10.95C47.99 10.94 47.54 10.41 47.45 9.43C47.56 8.64 47.97 8.06 48.88 8.05Z" fill="#446381" fill-opacity="1.000000" fill-rule="nonzero"/>
		<path id="Vector" d="M57.22 0C58.12 0.01 58.64 0.53 58.64 1.44C58.64 2.43 58.07 2.95 57.11 2.9C56.2 2.86 55.78 2.29 55.74 1.38C55.85 0.5 56.32 -0.02 57.22 0Z" fill="#446381" fill-opacity="1.000000" fill-rule="nonzero"/>
		<path id="Vector" d="M40.92 40.48C41.81 40.46 42.37 40.94 42.42 41.85C42.49 42.8 42.02 43.42 41.04 43.47C40.08 43.52 39.54 43 39.44 42.04C39.49 41.08 39.94 40.5 40.92 40.48Z" fill="#446381" fill-opacity="1.000000" fill-rule="nonzero"/>
		<path id="Vector" d="M42.4 33.74C42.49 34.7 42.04 35.32 41.06 35.4C40.18 35.47 39.58 35.03 39.49 34.11C39.39 33.15 39.86 32.58 40.84 32.43C41.7 32.45 42.32 32.81 42.4 33.74Z" fill="#446381" fill-opacity="1.000000" fill-rule="nonzero"/>
		<path id="Vector" d="M40.97 48.81C41.87 48.82 42.4 49.32 42.43 50.23C42.47 51.19 41.97 51.77 41 51.8C40.02 51.83 39.52 51.29 39.45 50.32C39.51 49.36 40 48.81 40.97 48.81Z" fill="#446381" fill-opacity="1.000000" fill-rule="nonzero"/>
		<path id="Vector" d="M50.42 17.52C50.43 18.42 49.96 18.98 49.06 19.04C48.11 19.1 47.5 18.62 47.45 17.64C47.4 16.67 47.91 16.13 48.87 16.03C49.83 16.07 50.4 16.54 50.42 17.52Z" fill="#446381" fill-opacity="1.000000" fill-rule="nonzero"/>
		<path id="Vector" d="M57.08 7.98C58.03 7.92 58.64 8.4 58.71 9.38C58.77 10.33 58.29 10.95 57.32 11.01C56.38 11.07 55.81 10.58 55.68 9.61C55.68 8.67 56.11 8.05 57.08 7.98Z" fill="#446381" fill-opacity="1.000000" fill-rule="nonzero"/>
		<path id="Vector" d="M47.36 25.97C47.32 24.98 47.92 24.32 48.91 24.3C49.83 24.27 50.45 24.87 50.5 25.79C50.55 26.79 49.93 27.35 48.95 27.49C48.04 27.39 47.4 26.89 47.36 25.97Z" fill="#446381" fill-opacity="1.000000" fill-rule="nonzero"/>
		<path id="Vector" d="M48.93 32.32C49.84 32.31 50.47 32.9 50.53 33.81C50.59 34.81 49.99 35.48 49.01 35.54C48.03 35.6 47.47 34.95 47.3 33.95C47.41 32.99 47.93 32.33 48.93 32.32Z" fill="#446381" fill-opacity="1.000000" fill-rule="nonzero"/>
		<path id="Vector" d="M57.17 15.89C58.15 15.92 58.74 16.5 58.84 17.47C58.95 18.35 58.05 19.27 57.17 19.2C56.19 19.13 55.67 18.51 55.55 17.62C55.54 16.71 56.33 15.85 57.17 15.89Z" fill="#446381" fill-opacity="1.000000" fill-rule="nonzero"/>
		<path id="Vector" d="M48.89 48.65C49.87 48.69 50.46 49.26 50.58 50.23C50.68 51.1 49.78 52.03 48.91 51.97C47.93 51.89 47.41 51.29 47.28 50.4C47.27 49.48 48.05 48.63 48.89 48.65Z" fill="#446381" fill-opacity="1.000000" fill-rule="nonzero"/>
		<path id="Vector" d="M48.96 43.62C47.99 43.64 47.39 43.02 47.28 42.04C47.19 41.16 48.09 40.24 48.96 40.32C49.94 40.4 50.47 41 50.59 41.98C50.47 42.95 49.94 43.6 48.96 43.62Z" fill="#446381" fill-opacity="1.000000" fill-rule="nonzero"/>
		<path id="Vector" d="M58.88 25.88C58.88 26.87 58.27 27.51 57.3 27.56C56.26 27.62 55.58 27 55.53 25.95C55.48 24.88 56.15 24.32 57.17 24.16C58.19 24.29 58.86 24.82 58.88 25.88Z" fill="#446381" fill-opacity="1.000000" fill-rule="nonzero"/>
		<path id="Vector" d="M57.25 32.23C58.29 32.27 58.92 32.93 58.89 33.98C58.86 35.03 58.2 35.66 57.15 35.63C56.1 35.61 55.58 34.91 55.47 33.88C55.64 32.86 56.19 32.19 57.25 32.23Z" fill="#446381" fill-opacity="1.000000" fill-rule="nonzero"/>
		<path id="Vector" d="M57.2 40.26C58.26 40.27 58.85 40.88 58.91 41.94C58.97 42.95 58.13 43.77 57.13 43.7C56.07 43.63 55.55 42.98 55.47 41.93C55.6 40.91 56.14 40.25 57.2 40.26Z" fill="#446381" fill-opacity="1.000000" fill-rule="nonzero"/>
		<path id="Vector" d="M58.91 50.26C58.9 51.33 58.33 51.95 57.29 52.04C56.29 52.12 55.45 51.3 55.49 50.3C55.54 49.22 56.16 48.69 57.01 48.58C58.14 48.57 58.92 49.31 58.91 50.26Z" fill="#446381" fill-opacity="1.000000" fill-rule="nonzero"/>
	</g>
	<rect id="Frame" rx="0.000000" width="57.919067" height="51.045174" transform="matrix(1 0 0 -1 64.3213 109.493)" fill="#FFFFFF" fill-opacity="0"/>
	<g clip-path="url(#clip39_2541)">
		<path id="Vector" d="M89.82 57.22C88.94 57.32 88.36 57.76 88.36 58.66C88.36 59.55 88.91 60.09 89.79 60.09C90.61 60.09 91.13 59.57 91.17 58.76C91.22 57.85 90.67 57.38 89.82 57.22Z" fill="#446381" fill-opacity="1.000000" fill-rule="nonzero"/>
		<path id="Vector" d="M91.07 91.56C91 92.31 90.48 92.8 89.72 92.75C88.91 92.71 88.4 92.16 88.47 91.33C88.53 90.58 89.06 90.18 89.81 90.11C90.62 90.25 91.14 90.72 91.07 91.56Z" fill="#446381" fill-opacity="1.000000" fill-rule="nonzero"/>
		<path id="Vector" d="M81.86 108.84C81.04 108.88 80.5 108.37 80.48 107.54C80.46 106.78 80.95 106.26 81.7 106.23C82.52 106.18 82.98 106.71 83.1 107.52C83.02 108.28 82.61 108.8 81.86 108.84Z" fill="#446381" fill-opacity="1.000000" fill-rule="nonzero"/>
		<path id="Vector" d="M88.55 99.42C88.59 98.63 89.09 98.21 89.86 98.26C90.57 98.31 90.98 98.76 90.98 99.48C90.98 100.28 90.51 100.68 89.74 100.73C88.96 100.64 88.52 100.21 88.55 99.42Z" fill="#446381" fill-opacity="1.000000" fill-rule="nonzero"/>
		<path id="Vector" d="M97.73 59.93C96.96 59.92 96.49 59.44 96.5 58.66C96.5 57.88 96.98 57.41 97.76 57.41C98.54 57.42 98.95 57.91 99.01 58.69C98.94 59.46 98.52 59.94 97.73 59.93Z" fill="#446381" fill-opacity="1.000000" fill-rule="nonzero"/>
		<path id="Vector" d="M107.12 75.07C107.1 75.72 106.69 76.15 106.04 76.15C105.32 76.15 104.89 75.69 104.93 74.97C104.98 74.32 105.42 73.98 106.13 73.92C106.68 74.07 107.13 74.4 107.12 75.07Z" fill="#446381" fill-opacity="1.000000" fill-rule="nonzero"/>
		<path id="Vector" d="M106.14 59.79C105.41 59.86 104.95 59.45 104.9 58.72C104.86 58.05 105.26 57.61 105.9 57.55C106.64 57.47 107.03 57.92 107.16 58.6C107.12 59.28 106.79 59.74 106.14 59.79Z" fill="#446381" fill-opacity="1.000000" fill-rule="nonzero"/>
		<path id="Vector" d="M104.96 83.07C104.96 82.48 105.36 82.07 105.94 82.03C106.6 81.99 107.05 82.4 107.08 83.05C107.12 83.72 106.67 84.08 106.02 84.19C105.39 84.1 104.95 83.75 104.96 83.07Z" fill="#446381" fill-opacity="1.000000" fill-rule="nonzero"/>
		<path id="Vector" d="M104.9 67.02C104.91 66.29 105.35 65.86 106.07 65.88C106.72 65.91 107.13 66.34 107.13 67C107.13 67.74 106.67 68.1 105.97 68.17C105.33 68.04 104.9 67.69 104.9 67.02Z" fill="#446381" fill-opacity="1.000000" fill-rule="nonzero"/>
		<path id="Vector" d="M97.83 108.56C97.18 108.61 96.75 108.2 96.73 107.54C96.71 106.95 97.1 106.54 97.67 106.51C98.32 106.46 98.69 106.88 98.8 107.55C98.72 108.1 98.41 108.52 97.83 108.56Z" fill="#446381" fill-opacity="1.000000" fill-rule="nonzero"/>
		<path id="Vector" d="M88.63 107.58C88.61 106.86 89.01 106.41 89.73 106.39C90.44 106.36 90.88 106.77 90.91 107.49C90.94 108.22 90.51 108.6 89.73 108.72C89.13 108.62 88.64 108.32 88.63 107.58Z" fill="#446381" fill-opacity="1.000000" fill-rule="nonzero"/>
		<path id="Vector" d="M96.66 99.49C96.66 98.84 97.07 98.4 97.71 98.39C98.43 98.37 98.88 98.82 98.84 99.55C98.82 100.2 98.37 100.54 97.73 100.61C97.09 100.5 96.66 100.15 96.66 99.49Z" fill="#446381" fill-opacity="1.000000" fill-rule="nonzero"/>
		<path id="Vector" d="M96.61 91.5C96.58 90.78 96.98 90.33 97.69 90.29C98.4 90.25 98.84 90.66 98.89 91.38C98.93 92.1 98.5 92.49 97.82 92.61C97.11 92.57 96.65 92.22 96.61 91.5Z" fill="#446381" fill-opacity="1.000000" fill-rule="nonzero"/>
		<path id="Vector" d="M105.01 91.31C105.08 90.73 105.49 90.35 106.07 90.4C106.71 90.46 107.11 90.89 107.03 91.56C106.96 92.14 106.54 92.44 105.97 92.48C105.34 92.35 104.93 91.98 105.01 91.31Z" fill="#446381" fill-opacity="1.000000" fill-rule="nonzero"/>
		<path id="Vector" d="M106.12 100.38C105.59 100.43 105.2 100.19 105.14 99.63C105.08 99.02 105.35 98.62 105.99 98.59C106.54 98.56 106.85 98.86 106.91 99.42C106.92 99.96 106.68 100.33 106.12 100.38Z" fill="#446381" fill-opacity="1.000000" fill-rule="nonzero"/>
		<path id="Vector" d="M106.84 107.4C106.93 107.95 106.62 108.31 106.09 108.37C105.61 108.42 105.27 108.13 105.2 107.66C105.12 107.11 105.44 106.8 105.95 106.68C106.44 106.69 106.78 106.93 106.84 107.4Z" fill="#446381" fill-opacity="1.000000" fill-rule="nonzero"/>
		<path id="Vector" d="M114.89 74.95C114.94 75.49 114.7 75.88 114.14 75.94C113.53 76 113.14 75.72 113.11 75.07C113.1 74.52 113.39 74.2 113.93 74.14C114.49 74.14 114.84 74.39 114.89 74.95Z" fill="#446381" fill-opacity="1.000000" fill-rule="nonzero"/>
		<path id="Vector" d="M114.09 67.9C113.54 67.94 113.17 67.68 113.12 67.12C113.07 66.51 113.36 66.12 114 66.11C114.55 66.09 114.85 66.41 114.91 67.04C114.88 67.5 114.65 67.87 114.09 67.9Z" fill="#446381" fill-opacity="1.000000" fill-rule="nonzero"/>
		<path id="Vector" d="M114.83 91.33C114.89 91.87 114.59 92.23 114.04 92.27C113.56 92.31 113.23 92 113.18 91.54C113.11 90.99 113.44 90.68 113.95 90.58C114.45 90.6 114.78 90.86 114.83 91.33Z" fill="#446381" fill-opacity="1.000000" fill-rule="nonzero"/>
		<path id="Vector" d="M114.06 59.57C113.52 59.6 113.16 59.33 113.12 58.77C113.08 58.15 113.39 57.78 114.02 57.78C114.58 57.78 114.87 58.1 114.91 58.67C114.89 59.2 114.62 59.54 114.06 59.57Z" fill="#446381" fill-opacity="1.000000" fill-rule="nonzero"/>
		<path id="Vector" d="M114.87 83.13C114.86 83.63 114.58 83.94 114.09 83.97C113.53 84.01 113.18 83.72 113.15 83.15C113.13 82.58 113.44 82.28 114.08 82.22C114.54 82.28 114.88 82.55 114.87 83.13Z" fill="#446381" fill-opacity="1.000000" fill-rule="nonzero"/>
		<path id="Vector" d="M113.27 99.53C113.24 99.1 113.52 98.79 113.93 98.75C114.41 98.71 114.74 99.02 114.74 99.51C114.73 99.93 114.43 100.17 113.97 100.24C113.61 100.17 113.3 99.96 113.27 99.53Z" fill="#446381" fill-opacity="1.000000" fill-rule="nonzero"/>
		<path id="Vector" d="M121.95 66.27C122.38 66.23 122.68 66.52 122.72 66.93C122.76 67.42 122.46 67.74 121.97 67.74C121.55 67.74 121.31 67.44 121.25 67.02C121.29 66.59 121.53 66.3 121.95 66.27Z" fill="#446381" fill-opacity="1.000000" fill-rule="nonzero"/>
		<path id="Vector" d="M122.07 59.41C121.64 59.46 121.33 59.18 121.27 58.78C121.2 58.29 121.5 57.96 121.98 57.94C122.41 57.92 122.65 58.22 122.74 58.64C122.71 59.06 122.47 59.35 122.07 59.41Z" fill="#446381" fill-opacity="1.000000" fill-rule="nonzero"/>
		<path id="Vector" d="M113.99 108.12C113.67 108.11 113.46 107.93 113.43 107.61C113.4 107.24 113.57 106.98 113.96 106.95C114.35 106.93 114.55 107.13 114.59 107.53C114.57 107.91 114.38 108.13 113.99 108.12Z" fill="#446381" fill-opacity="1.000000" fill-rule="nonzero"/>
		<path id="Vector" d="M121.92 83.68C121.6 83.66 121.43 83.46 121.42 83.14C121.4 82.75 121.61 82.52 122 82.53C122.39 82.53 122.57 82.76 122.58 83.13C122.53 83.53 122.3 83.72 121.92 83.68Z" fill="#446381" fill-opacity="1.000000" fill-rule="nonzero"/>
		<path id="Vector" d="M122.61 74.95C122.65 75.39 122.45 75.68 121.98 75.68C121.6 75.68 121.38 75.47 121.37 75.09C121.35 74.7 121.54 74.48 121.97 74.42C122.29 74.42 122.57 74.56 122.61 74.95Z" fill="#446381" fill-opacity="1.000000" fill-rule="nonzero"/>
		<path id="Vector" d="M91.15 75C91.17 75.88 90.64 76.44 89.75 76.45C88.94 76.45 88.41 75.93 88.38 75.11C88.35 74.21 88.92 73.75 89.76 73.62C90.57 73.74 91.13 74.18 91.15 75Z" fill="#446381" fill-opacity="1.000000" fill-rule="nonzero"/>
		<path id="Vector" d="M88.41 83.19C88.34 82.37 88.85 81.81 89.64 81.74C90.52 81.65 91.09 82.2 91.12 83.08C91.15 83.9 90.61 84.35 89.82 84.51C89.02 84.43 88.47 84 88.41 83.19Z" fill="#446381" fill-opacity="1.000000" fill-rule="nonzero"/>
		<path id="Vector" d="M97.71 84.33C96.99 84.31 96.57 83.88 96.54 83.17C96.51 82.39 96.94 81.9 97.73 81.88C98.51 81.86 98.92 82.33 98.98 83.11C98.91 83.89 98.49 84.35 97.71 84.33Z" fill="#446381" fill-opacity="1.000000" fill-rule="nonzero"/>
		<path id="Vector" d="M99 66.99C99.01 67.77 98.54 68.26 97.76 68.26C96.99 68.28 96.51 67.8 96.5 67.02C96.49 66.23 96.96 65.81 97.78 65.72C98.5 65.8 99 66.2 99 66.99Z" fill="#446381" fill-opacity="1.000000" fill-rule="nonzero"/>
		<path id="Vector" d="M97.74 76.31C96.96 76.3 96.5 75.82 96.5 75.04C96.51 74.26 96.99 73.79 97.77 73.79C98.54 73.8 98.95 74.29 99.02 75.07C98.94 75.85 98.52 76.32 97.74 76.31Z" fill="#446381" fill-opacity="1.000000" fill-rule="nonzero"/>
		<path id="Vector" d="M83.15 99.45C83.17 100.27 82.66 100.82 81.86 100.85C80.98 100.89 80.42 100.34 80.43 99.45C80.43 98.64 80.99 98.2 81.79 98.08C82.57 98.19 83.12 98.63 83.15 99.45Z" fill="#446381" fill-opacity="1.000000" fill-rule="nonzero"/>
		<path id="Vector" d="M72.42 107.6C72.39 106.71 72.92 106.15 73.8 106.14C74.61 106.13 75.14 106.65 75.18 107.47C75.22 108.36 74.66 108.83 73.74 108.97C73.02 108.82 72.44 108.43 72.42 107.6Z" fill="#446381" fill-opacity="1.000000" fill-rule="nonzero"/>
		<path id="Vector" d="M91.15 66.9C91.21 67.78 90.68 68.37 89.8 68.4C88.93 68.42 88.38 67.86 88.38 66.97C88.39 66.15 88.93 65.71 89.72 65.58C90.54 65.66 91.09 66.09 91.15 66.9Z" fill="#446381" fill-opacity="1.000000" fill-rule="nonzero"/>
		<path id="Vector" d="M81.73 92.85C80.92 92.83 80.4 92.31 80.38 91.5C80.35 90.61 80.88 90.05 81.76 90.03C82.66 90.01 83.1 90.58 83.22 91.45C83.09 92.32 82.63 92.88 81.73 92.85Z" fill="#446381" fill-opacity="1.000000" fill-rule="nonzero"/>
		<path id="Vector" d="M81.83 84.56C80.93 84.58 80.38 84.09 80.35 83.18C80.31 82.21 80.83 81.65 81.81 81.65C82.72 81.65 83.17 82.2 83.25 83.09C83.18 83.98 82.74 84.54 81.83 84.56Z" fill="#446381" fill-opacity="1.000000" fill-rule="nonzero"/>
		<path id="Vector" d="M73.85 100.94C72.88 100.95 72.33 100.4 72.36 99.42C72.39 98.51 72.93 98.02 73.83 98.03C74.74 98.04 75.19 98.58 75.28 99.55C75.17 100.35 74.76 100.92 73.85 100.94Z" fill="#446381" fill-opacity="1.000000" fill-rule="nonzero"/>
		<path id="Vector" d="M65.51 108.99C64.61 108.97 64.09 108.45 64.09 107.54C64.09 106.56 64.66 106.04 65.62 106.08C66.53 106.12 66.95 106.7 66.99 107.61C66.88 108.49 66.41 109.01 65.51 108.99Z" fill="#446381" fill-opacity="1.000000" fill-rule="nonzero"/>
		<path id="Vector" d="M81.81 68.5C80.92 68.52 80.36 68.04 80.31 67.14C80.24 66.18 80.71 65.57 81.69 65.51C82.65 65.46 83.19 65.98 83.29 66.95C83.24 67.91 82.79 68.49 81.81 68.5Z" fill="#446381" fill-opacity="1.000000" fill-rule="nonzero"/>
		<path id="Vector" d="M80.33 75.25C80.24 74.28 80.69 73.66 81.67 73.58C82.56 73.51 83.15 73.95 83.24 74.87C83.34 75.84 82.87 76.4 81.89 76.56C81.03 76.53 80.41 76.17 80.33 75.25Z" fill="#446381" fill-opacity="1.000000" fill-rule="nonzero"/>
		<path id="Vector" d="M81.76 60.17C80.86 60.16 80.33 59.66 80.3 58.76C80.26 57.79 80.76 57.21 81.73 57.18C82.71 57.15 83.21 57.69 83.28 58.66C83.22 59.62 82.73 60.18 81.76 60.17Z" fill="#446381" fill-opacity="1.000000" fill-rule="nonzero"/>
		<path id="Vector" d="M72.31 91.46C72.3 90.56 72.78 90 73.67 89.95C74.62 89.88 75.23 90.36 75.28 91.35C75.33 92.31 74.82 92.85 73.86 92.95C72.9 92.91 72.33 92.45 72.31 91.46Z" fill="#446381" fill-opacity="1.000000" fill-rule="nonzero"/>
		<path id="Vector" d="M65.65 101C64.7 101.06 64.09 100.58 64.03 99.61C63.96 98.65 64.44 98.04 65.41 97.97C66.35 97.91 66.92 98.4 67.05 99.37C67.05 100.31 66.62 100.94 65.65 101Z" fill="#446381" fill-opacity="1.000000" fill-rule="nonzero"/>
		<path id="Vector" d="M75.37 83.01C75.41 84 74.81 84.66 73.82 84.68C72.9 84.71 72.28 84.11 72.23 83.19C72.18 82.2 72.8 81.64 73.78 81.5C74.69 81.59 75.33 82.09 75.37 83.01Z" fill="#446381" fill-opacity="1.000000" fill-rule="nonzero"/>
		<path id="Vector" d="M73.8 76.66C72.89 76.68 72.26 76.08 72.2 75.17C72.14 74.17 72.74 73.5 73.72 73.44C74.7 73.39 75.26 74.03 75.43 75.03C75.32 76 74.8 76.65 73.8 76.66Z" fill="#446381" fill-opacity="1.000000" fill-rule="nonzero"/>
		<path id="Vector" d="M65.57 93.1C64.58 93.06 63.99 92.49 63.89 91.51C63.78 90.63 64.68 89.71 65.56 89.78C66.54 89.86 67.06 90.47 67.18 91.36C67.19 92.28 66.4 93.13 65.57 93.1Z" fill="#446381" fill-opacity="1.000000" fill-rule="nonzero"/>
		<path id="Vector" d="M73.84 60.33C72.86 60.3 72.27 59.72 72.15 58.75C72.05 57.88 72.95 56.95 73.82 57.01C74.8 57.09 75.32 57.69 75.45 58.58C75.46 59.5 74.68 60.35 73.84 60.33Z" fill="#446381" fill-opacity="1.000000" fill-rule="nonzero"/>
		<path id="Vector" d="M73.77 65.36C74.75 65.34 75.34 65.97 75.45 66.94C75.54 67.82 74.64 68.74 73.77 68.67C72.79 68.58 72.26 67.98 72.14 67C72.26 66.04 72.79 65.38 73.77 65.36Z" fill="#446381" fill-opacity="1.000000" fill-rule="nonzero"/>
		<path id="Vector" d="M63.85 83.1C63.85 82.11 64.46 81.47 65.43 81.42C66.48 81.36 67.15 81.99 67.2 83.04C67.25 84.1 66.58 84.66 65.56 84.82C64.54 84.7 63.87 84.16 63.85 83.1Z" fill="#446381" fill-opacity="1.000000" fill-rule="nonzero"/>
		<path id="Vector" d="M65.48 76.75C64.44 76.72 63.81 76.05 63.84 75C63.87 73.95 64.53 73.32 65.58 73.35C66.63 73.37 67.15 74.07 67.26 75.11C67.09 76.12 66.54 76.79 65.48 76.75Z" fill="#446381" fill-opacity="1.000000" fill-rule="nonzero"/>
		<path id="Vector" d="M65.53 68.72C64.47 68.72 63.88 68.1 63.82 67.04C63.76 66.03 64.6 65.21 65.6 65.28C66.66 65.36 67.18 66 67.26 67.05C67.13 68.07 66.59 68.74 65.53 68.72Z" fill="#446381" fill-opacity="1.000000" fill-rule="nonzero"/>
		<path id="Vector" d="M63.82 58.72C63.83 57.66 64.4 57.03 65.45 56.94C66.44 56.86 67.28 57.68 67.24 58.69C67.19 59.76 66.57 60.29 65.72 60.4C64.59 60.41 63.81 59.67 63.82 58.72Z" fill="#446381" fill-opacity="1.000000" fill-rule="nonzero"/>
	</g>
	<rect id="Frame" rx="0.000000" width="57.919067" height="51.045174" transform="translate(59.418945 109.492676) rotate(180.000000)" fill="#FFFFFF" fill-opacity="0"/>
	<g clip-path="url(#clip39_2596)">
		<path id="Vector" d="M32.91 57.22C33.79 57.32 34.37 57.76 34.37 58.66C34.37 59.55 33.82 60.09 32.94 60.09C32.12 60.09 31.6 59.57 31.56 58.76C31.51 57.85 32.06 57.38 32.91 57.22Z" fill="#446381" fill-opacity="1.000000" fill-rule="nonzero"/>
		<path id="Vector" d="M31.66 91.56C31.73 92.31 32.25 92.8 33.01 92.75C33.82 92.71 34.33 92.16 34.26 91.33C34.2 90.58 33.67 90.18 32.92 90.11C32.11 90.25 31.59 90.72 31.66 91.56Z" fill="#446381" fill-opacity="1.000000" fill-rule="nonzero"/>
		<path id="Vector" d="M40.87 108.84C41.69 108.88 42.23 108.37 42.25 107.54C42.27 106.78 41.78 106.26 41.03 106.23C40.21 106.18 39.75 106.71 39.63 107.52C39.71 108.28 40.12 108.8 40.87 108.84Z" fill="#446381" fill-opacity="1.000000" fill-rule="nonzero"/>
		<path id="Vector" d="M34.18 99.42C34.14 98.63 33.64 98.21 32.87 98.26C32.16 98.31 31.75 98.76 31.75 99.48C31.75 100.28 32.22 100.68 32.99 100.73C33.77 100.64 34.22 100.21 34.18 99.42Z" fill="#446381" fill-opacity="1.000000" fill-rule="nonzero"/>
		<path id="Vector" d="M25 59.93C25.77 59.92 26.24 59.44 26.23 58.66C26.23 57.88 25.75 57.41 24.97 57.41C24.2 57.42 23.79 57.91 23.72 58.69C23.79 59.46 24.21 59.94 25 59.93Z" fill="#446381" fill-opacity="1.000000" fill-rule="nonzero"/>
		<path id="Vector" d="M15.62 75.07C15.63 75.72 16.04 76.15 16.69 76.15C17.41 76.15 17.84 75.69 17.8 74.97C17.76 74.32 17.31 73.98 16.6 73.92C16.05 74.07 15.6 74.4 15.62 75.07Z" fill="#446381" fill-opacity="1.000000" fill-rule="nonzero"/>
		<path id="Vector" d="M16.59 59.79C17.32 59.86 17.78 59.45 17.83 58.72C17.88 58.05 17.47 57.61 16.83 57.55C16.09 57.47 15.7 57.92 15.57 58.6C15.61 59.28 15.94 59.74 16.59 59.79Z" fill="#446381" fill-opacity="1.000000" fill-rule="nonzero"/>
		<path id="Vector" d="M17.77 83.07C17.77 82.48 17.37 82.07 16.79 82.03C16.13 81.99 15.68 82.4 15.65 83.05C15.61 83.72 16.06 84.08 16.71 84.19C17.34 84.1 17.78 83.75 17.77 83.07Z" fill="#446381" fill-opacity="1.000000" fill-rule="nonzero"/>
		<path id="Vector" d="M17.83 67.02C17.82 66.29 17.38 65.86 16.66 65.88C16.01 65.91 15.6 66.34 15.6 67C15.6 67.74 16.06 68.1 16.76 68.17C17.4 68.04 17.83 67.69 17.83 67.02Z" fill="#446381" fill-opacity="1.000000" fill-rule="nonzero"/>
		<path id="Vector" d="M24.9 108.56C25.55 108.61 25.98 108.2 26 107.54C26.02 106.95 25.63 106.54 25.06 106.51C24.41 106.46 24.04 106.88 23.93 107.55C24.01 108.1 24.32 108.52 24.9 108.56Z" fill="#446381" fill-opacity="1.000000" fill-rule="nonzero"/>
		<path id="Vector" d="M34.1 107.58C34.12 106.86 33.72 106.41 33 106.39C32.29 106.36 31.85 106.77 31.82 107.49C31.79 108.22 32.22 108.6 33 108.72C33.6 108.62 34.09 108.32 34.1 107.58Z" fill="#446381" fill-opacity="1.000000" fill-rule="nonzero"/>
		<path id="Vector" d="M26.07 99.49C26.07 98.84 25.66 98.4 25.02 98.39C24.3 98.37 23.85 98.82 23.89 99.55C23.91 100.2 24.36 100.54 25 100.61C25.64 100.5 26.07 100.15 26.07 99.49Z" fill="#446381" fill-opacity="1.000000" fill-rule="nonzero"/>
		<path id="Vector" d="M26.12 91.5C26.15 90.78 25.75 90.33 25.04 90.29C24.33 90.25 23.89 90.66 23.84 91.38C23.8 92.1 24.23 92.49 24.91 92.61C25.62 92.57 26.08 92.22 26.12 91.5Z" fill="#446381" fill-opacity="1.000000" fill-rule="nonzero"/>
		<path id="Vector" d="M17.72 91.31C17.65 90.73 17.24 90.35 16.66 90.4C16.02 90.46 15.62 90.89 15.7 91.56C15.77 92.14 16.19 92.44 16.76 92.48C17.4 92.35 17.81 91.98 17.72 91.31Z" fill="#446381" fill-opacity="1.000000" fill-rule="nonzero"/>
		<path id="Vector" d="M16.61 100.38C17.14 100.43 17.53 100.19 17.59 99.63C17.65 99.02 17.38 98.62 16.75 98.59C16.2 98.56 15.88 98.86 15.82 99.42C15.81 99.96 16.05 100.33 16.61 100.38Z" fill="#446381" fill-opacity="1.000000" fill-rule="nonzero"/>
		<path id="Vector" d="M15.89 107.4C15.8 107.95 16.11 108.31 16.64 108.37C17.12 108.42 17.46 108.13 17.53 107.66C17.61 107.11 17.29 106.8 16.78 106.68C16.29 106.69 15.96 106.93 15.89 107.4Z" fill="#446381" fill-opacity="1.000000" fill-rule="nonzero"/>
		<path id="Vector" d="M7.84 74.95C7.79 75.49 8.03 75.88 8.59 75.94C9.2 76 9.59 75.72 9.62 75.07C9.64 74.52 9.34 74.2 8.8 74.14C8.24 74.14 7.89 74.39 7.84 74.95Z" fill="#446381" fill-opacity="1.000000" fill-rule="nonzero"/>
		<path id="Vector" d="M8.64 67.9C9.19 67.94 9.56 67.68 9.61 67.12C9.66 66.51 9.37 66.12 8.73 66.11C8.18 66.09 7.88 66.41 7.82 67.04C7.85 67.5 8.08 67.87 8.64 67.9Z" fill="#446381" fill-opacity="1.000000" fill-rule="nonzero"/>
		<path id="Vector" d="M7.9 91.33C7.84 91.87 8.14 92.23 8.69 92.27C9.18 92.31 9.5 92 9.55 91.54C9.62 90.99 9.3 90.68 8.78 90.58C8.28 90.6 7.95 90.86 7.9 91.33Z" fill="#446381" fill-opacity="1.000000" fill-rule="nonzero"/>
		<path id="Vector" d="M8.67 59.57C9.21 59.6 9.57 59.33 9.61 58.77C9.65 58.15 9.35 57.78 8.71 57.78C8.15 57.78 7.86 58.1 7.82 58.67C7.84 59.2 8.11 59.54 8.67 59.57Z" fill="#446381" fill-opacity="1.000000" fill-rule="nonzero"/>
		<path id="Vector" d="M7.86 83.13C7.87 83.63 8.15 83.94 8.64 83.97C9.2 84.01 9.55 83.72 9.58 83.15C9.6 82.58 9.29 82.28 8.65 82.22C8.19 82.28 7.85 82.55 7.86 83.13Z" fill="#446381" fill-opacity="1.000000" fill-rule="nonzero"/>
		<path id="Vector" d="M9.46 99.53C9.49 99.1 9.21 98.79 8.8 98.75C8.32 98.71 7.99 99.02 7.99 99.51C8 99.93 8.3 100.17 8.76 100.24C9.12 100.17 9.43 99.96 9.46 99.53Z" fill="#446381" fill-opacity="1.000000" fill-rule="nonzero"/>
		<path id="Vector" d="M0.78 66.27C0.35 66.23 0.05 66.52 0.01 66.93C-0.03 67.42 0.27 67.74 0.77 67.74C1.18 67.74 1.42 67.44 1.48 67.02C1.44 66.59 1.2 66.3 0.78 66.27Z" fill="#446381" fill-opacity="1.000000" fill-rule="nonzero"/>
		<path id="Vector" d="M0.66 59.41C1.09 59.46 1.4 59.18 1.46 58.78C1.53 58.29 1.23 57.96 0.75 57.94C0.32 57.92 0.08 58.22 0 58.64C0.02 59.06 0.26 59.35 0.66 59.41Z" fill="#446381" fill-opacity="1.000000" fill-rule="nonzero"/>
		<path id="Vector" d="M8.75 108.12C9.06 108.11 9.27 107.93 9.3 107.61C9.33 107.24 9.16 106.98 8.77 106.95C8.39 106.93 8.18 107.13 8.14 107.53C8.16 107.91 8.35 108.13 8.75 108.12Z" fill="#446381" fill-opacity="1.000000" fill-rule="nonzero"/>
		<path id="Vector" d="M0.81 83.68C1.13 83.66 1.3 83.46 1.31 83.14C1.33 82.75 1.13 82.52 0.73 82.53C0.34 82.53 0.16 82.76 0.15 83.13C0.2 83.53 0.43 83.72 0.81 83.68Z" fill="#446381" fill-opacity="1.000000" fill-rule="nonzero"/>
		<path id="Vector" d="M0.12 74.95C0.08 75.39 0.28 75.68 0.75 75.68C1.13 75.68 1.35 75.47 1.37 75.09C1.38 74.7 1.19 74.48 0.76 74.42C0.44 74.42 0.16 74.56 0.12 74.95Z" fill="#446381" fill-opacity="1.000000" fill-rule="nonzero"/>
		<path id="Vector" d="M31.58 75C31.56 75.88 32.09 76.44 32.98 76.45C33.79 76.45 34.32 75.93 34.35 75.11C34.38 74.21 33.81 73.75 32.97 73.62C32.16 73.74 31.6 74.18 31.58 75Z" fill="#446381" fill-opacity="1.000000" fill-rule="nonzero"/>
		<path id="Vector" d="M34.32 83.19C34.39 82.37 33.88 81.81 33.09 81.74C32.21 81.65 31.64 82.2 31.61 83.08C31.58 83.9 32.13 84.35 32.91 84.51C33.71 84.43 34.26 84 34.32 83.19Z" fill="#446381" fill-opacity="1.000000" fill-rule="nonzero"/>
		<path id="Vector" d="M25.02 84.33C25.74 84.31 26.16 83.88 26.19 83.17C26.22 82.39 25.79 81.9 25 81.88C24.22 81.86 23.81 82.33 23.75 83.11C23.82 83.89 24.24 84.35 25.02 84.33Z" fill="#446381" fill-opacity="1.000000" fill-rule="nonzero"/>
		<path id="Vector" d="M23.73 66.99C23.72 67.77 24.19 68.26 24.97 68.26C25.74 68.28 26.22 67.8 26.23 67.02C26.24 66.23 25.77 65.81 24.95 65.72C24.23 65.8 23.73 66.2 23.73 66.99Z" fill="#446381" fill-opacity="1.000000" fill-rule="nonzero"/>
		<path id="Vector" d="M24.99 76.31C25.77 76.3 26.23 75.82 26.23 75.04C26.22 74.26 25.74 73.79 24.97 73.79C24.19 73.8 23.78 74.29 23.72 75.07C23.79 75.85 24.21 76.32 24.99 76.31Z" fill="#446381" fill-opacity="1.000000" fill-rule="nonzero"/>
		<path id="Vector" d="M39.58 99.45C39.56 100.27 40.07 100.82 40.87 100.85C41.75 100.89 42.31 100.34 42.3 99.45C42.3 98.64 41.74 98.2 40.95 98.08C40.16 98.19 39.61 98.63 39.58 99.45Z" fill="#446381" fill-opacity="1.000000" fill-rule="nonzero"/>
		<path id="Vector" d="M50.31 107.6C50.34 106.71 49.81 106.15 48.93 106.14C48.12 106.13 47.59 106.65 47.55 107.47C47.51 108.36 48.07 108.83 49 108.97C49.71 108.82 50.29 108.43 50.31 107.6Z" fill="#446381" fill-opacity="1.000000" fill-rule="nonzero"/>
		<path id="Vector" d="M31.58 66.9C31.52 67.78 32.05 68.37 32.93 68.4C33.8 68.42 34.35 67.86 34.35 66.97C34.34 66.15 33.8 65.71 33.01 65.58C32.19 65.66 31.64 66.09 31.58 66.9Z" fill="#446381" fill-opacity="1.000000" fill-rule="nonzero"/>
		<path id="Vector" d="M41 92.85C41.81 92.83 42.33 92.31 42.35 91.5C42.38 90.61 41.85 90.05 40.97 90.03C40.07 90.01 39.63 90.58 39.51 91.45C39.64 92.32 40.1 92.88 41 92.85Z" fill="#446381" fill-opacity="1.000000" fill-rule="nonzero"/>
		<path id="Vector" d="M40.9 84.56C41.8 84.58 42.35 84.09 42.38 83.18C42.42 82.21 41.9 81.65 40.92 81.65C40.01 81.65 39.56 82.2 39.48 83.09C39.55 83.98 39.99 84.54 40.9 84.56Z" fill="#446381" fill-opacity="1.000000" fill-rule="nonzero"/>
		<path id="Vector" d="M48.88 100.94C49.85 100.95 50.4 100.4 50.37 99.42C50.34 98.51 49.8 98.02 48.9 98.03C47.99 98.04 47.54 98.58 47.45 99.55C47.56 100.35 47.97 100.92 48.88 100.94Z" fill="#446381" fill-opacity="1.000000" fill-rule="nonzero"/>
		<path id="Vector" d="M57.22 108.99C58.12 108.97 58.64 108.45 58.64 107.54C58.64 106.56 58.07 106.04 57.11 106.08C56.2 106.12 55.78 106.7 55.74 107.61C55.85 108.49 56.32 109.01 57.22 108.99Z" fill="#446381" fill-opacity="1.000000" fill-rule="nonzero"/>
		<path id="Vector" d="M40.92 68.5C41.81 68.52 42.37 68.04 42.42 67.14C42.49 66.18 42.02 65.57 41.04 65.51C40.08 65.46 39.54 65.98 39.44 66.95C39.49 67.91 39.94 68.49 40.92 68.5Z" fill="#446381" fill-opacity="1.000000" fill-rule="nonzero"/>
		<path id="Vector" d="M42.4 75.25C42.49 74.28 42.04 73.66 41.06 73.58C40.18 73.51 39.58 73.95 39.49 74.87C39.39 75.84 39.86 76.4 40.84 76.56C41.7 76.53 42.32 76.17 42.4 75.25Z" fill="#446381" fill-opacity="1.000000" fill-rule="nonzero"/>
		<path id="Vector" d="M40.97 60.17C41.87 60.16 42.4 59.66 42.43 58.76C42.47 57.79 41.97 57.21 41 57.18C40.02 57.15 39.52 57.69 39.45 58.66C39.51 59.62 40 60.18 40.97 60.17Z" fill="#446381" fill-opacity="1.000000" fill-rule="nonzero"/>
		<path id="Vector" d="M50.42 91.46C50.43 90.56 49.96 90 49.06 89.95C48.11 89.88 47.5 90.36 47.45 91.35C47.4 92.31 47.91 92.85 48.87 92.95C49.83 92.91 50.4 92.45 50.42 91.46Z" fill="#446381" fill-opacity="1.000000" fill-rule="nonzero"/>
		<path id="Vector" d="M57.08 101C58.03 101.06 58.64 100.58 58.71 99.61C58.77 98.65 58.29 98.04 57.32 97.97C56.38 97.91 55.81 98.4 55.68 99.37C55.68 100.31 56.11 100.94 57.08 101Z" fill="#446381" fill-opacity="1.000000" fill-rule="nonzero"/>
		<path id="Vector" d="M47.36 83.01C47.32 84 47.92 84.66 48.91 84.68C49.83 84.71 50.45 84.11 50.5 83.19C50.55 82.2 49.93 81.64 48.95 81.5C48.04 81.59 47.4 82.09 47.36 83.01Z" fill="#446381" fill-opacity="1.000000" fill-rule="nonzero"/>
		<path id="Vector" d="M48.93 76.66C49.84 76.68 50.47 76.08 50.53 75.17C50.59 74.17 49.99 73.5 49.01 73.44C48.03 73.39 47.47 74.03 47.3 75.03C47.41 76 47.93 76.65 48.93 76.66Z" fill="#446381" fill-opacity="1.000000" fill-rule="nonzero"/>
		<path id="Vector" d="M57.17 93.1C58.15 93.06 58.74 92.49 58.84 91.51C58.95 90.63 58.05 89.71 57.17 89.78C56.19 89.86 55.67 90.47 55.55 91.36C55.54 92.28 56.33 93.13 57.17 93.1Z" fill="#446381" fill-opacity="1.000000" fill-rule="nonzero"/>
		<path id="Vector" d="M48.89 60.33C49.87 60.3 50.46 59.72 50.58 58.75C50.68 57.88 49.78 56.95 48.91 57.01C47.93 57.09 47.41 57.69 47.28 58.58C47.27 59.5 48.05 60.35 48.89 60.33Z" fill="#446381" fill-opacity="1.000000" fill-rule="nonzero"/>
		<path id="Vector" d="M48.96 65.36C47.99 65.34 47.39 65.97 47.28 66.94C47.19 67.82 48.09 68.74 48.96 68.67C49.94 68.58 50.47 67.98 50.59 67C50.47 66.04 49.94 65.38 48.96 65.36Z" fill="#446381" fill-opacity="1.000000" fill-rule="nonzero"/>
		<path id="Vector" d="M58.88 83.1C58.88 82.11 58.27 81.47 57.3 81.42C56.26 81.36 55.58 81.99 55.53 83.04C55.48 84.1 56.15 84.66 57.17 84.82C58.19 84.7 58.86 84.16 58.88 83.1Z" fill="#446381" fill-opacity="1.000000" fill-rule="nonzero"/>
		<path id="Vector" d="M57.25 76.75C58.29 76.72 58.92 76.05 58.89 75C58.86 73.95 58.2 73.32 57.15 73.35C56.1 73.37 55.58 74.07 55.47 75.11C55.64 76.12 56.19 76.79 57.25 76.75Z" fill="#446381" fill-opacity="1.000000" fill-rule="nonzero"/>
		<path id="Vector" d="M57.2 68.72C58.26 68.72 58.85 68.1 58.91 67.04C58.97 66.03 58.13 65.21 57.13 65.28C56.07 65.36 55.55 66 55.47 67.05C55.6 68.07 56.14 68.74 57.2 68.72Z" fill="#446381" fill-opacity="1.000000" fill-rule="nonzero"/>
		<path id="Vector" d="M58.91 58.72C58.9 57.66 58.33 57.03 57.29 56.94C56.29 56.86 55.45 57.68 55.49 58.69C55.54 59.76 56.16 60.29 57.01 60.4C58.14 60.41 58.92 59.67 58.91 58.72Z" fill="#446381" fill-opacity="1.000000" fill-rule="nonzero"/>
	</g>
</svg>
