<svg width="10.705688" height="20.000000" viewBox="0 0 10.7057 20" fill="none" xmlns="http://www.w3.org/2000/svg" xmlns:xlink="http://www.w3.org/1999/xlink">
	<desc>
			Created with Pixso.
	</desc>
	<defs/>
	<path id="Icon awesome-facebook-f" d="M10 11.25L10.56 7.63L7.08 7.63L7.08 5.28C7.06 5.01 7.1 4.74 7.19 4.48C7.29 4.23 7.44 4 7.63 3.81C7.83 3.62 8.06 3.48 8.32 3.4C8.58 3.31 8.85 3.29 9.12 3.32L10.7 3.32L10.7 0.25C9.77 0.1 8.84 0.02 7.9 0.01C7.25 -0.04 6.61 0.05 6 0.28C5.39 0.51 4.85 0.87 4.4 1.34C3.94 1.8 3.6 2.36 3.39 2.97C3.18 3.58 3.1 4.23 3.17 4.88L3.17 7.63L0 7.63L0 11.25L3.17 11.25L3.17 20L7.08 20L7.08 11.25L10 11.25Z" fill="#446381" fill-opacity="1.000000" fill-rule="nonzero"/>
</svg>
