<svg width="135.838745" height="136.496033" viewBox="0 0 135.839 136.496" fill="none" xmlns="http://www.w3.org/2000/svg" xmlns:xlink="http://www.w3.org/1999/xlink">
	<desc>
			Created with Pixso.
	</desc>
	<defs>
		<linearGradient x1="54.916290" y1="-36.374508" x2="98.676788" y2="254.357330" id="paint_linear_39_3407_0" gradientUnits="userSpaceOnUse">
			<stop stop-color="#444B8C"/>
			<stop offset="0.996400" stop-color="#26264F"/>
		</linearGradient>
		<linearGradient x1="25.524506" y1="-31.950279" x2="69.284943" y2="258.781158" id="paint_linear_39_3408_0" gradientUnits="userSpaceOnUse">
			<stop stop-color="#444B8C"/>
			<stop offset="0.996400" stop-color="#26264F"/>
		</linearGradient>
		<linearGradient x1="13.875732" y1="133.384003" x2="201.611542" y2="-104.414062" id="paint_linear_39_3409_0" gradientUnits="userSpaceOnUse">
			<stop stop-color="#826F8C"/>
			<stop offset="0.996400" stop-color="#446381"/>
		</linearGradient>
	</defs>
	<path id="Vector" d="M27.12 101.82C22.22 104.31 16.04 102.02 13.36 96.71C10.65 91.4 12.44 85.06 17.36 82.57C17.61 82.44 17.87 82.34 18.14 82.22C17.22 79.29 16.54 76.31 16.08 73.36C15.8 73.36 15.51 73.36 15.22 73.32C9.62 72.81 5.17 67.68 5.29 61.83C5.4 55.97 10.03 51.64 15.63 52.14C15.92 52.16 16.21 52.22 16.5 52.26C17.09 49.36 17.89 46.53 18.9 43.78C18.64 43.63 18.39 43.47 18.14 43.3C13.36 39.93 11.82 33.32 14.72 28.5C17.61 23.68 23.85 22.49 28.64 25.86C28.89 26.03 29.12 26.21 29.34 26.4C31.22 24.3 33.3 22.38 35.56 20.61C35.4 20.35 35.25 20.08 35.11 19.81C32.41 14.5 28.89 8.69 33.83 6.28C45.28 0.7 50.18 5.48 52.88 10.79C53.02 11.06 53.14 11.35 53.25 11.62C56.01 10.85 58.8 10.32 61.6 10.03C61.58 9.74 61.56 9.45 61.58 9.13C61.69 3.28 59.96 0.11 65.58 0.02C77.83 -0.22 81.97 5.09 81.86 10.94C81.86 11.25 81.82 11.55 81.8 11.84C84.6 12.63 87.36 13.67 90.04 14.91C90.18 14.66 90.29 14.38 90.45 14.13C93.35 9.31 99.59 8.12 104.37 11.49C109.16 14.85 110.69 21.46 107.79 26.28C107.64 26.54 107.48 26.77 107.31 26.98C109.43 29.1 111.41 31.42 113.26 33.89C113.49 33.73 113.74 33.59 114 33.46C118.9 30.97 125.08 33.26 127.76 38.57C130.47 43.88 128.68 50.22 123.76 52.71C123.5 52.84 123.25 52.94 122.98 53.06C123.89 55.99 124.57 58.97 125.04 61.92C125.31 61.92 125.6 61.92 125.9 61.96C131.5 62.47 135.95 67.6 135.83 73.45C135.72 79.31 131.09 83.64 125.49 83.14C125.2 83.12 124.9 83.06 124.61 83.02C124.03 85.92 123.23 88.76 122.22 91.5C122.47 91.65 122.73 91.81 122.98 91.98C127.76 95.35 129.3 101.96 126.4 106.78C123.5 111.6 113.9 113.84 109.1 110.48C108.84 110.3 111.99 109.06 111.76 108.88C109.87 110.98 107.79 112.91 105.54 114.68C105.69 114.93 105.85 115.2 105.99 115.47C108.69 120.78 106.9 127.12 101.98 129.61C97.08 132.1 90.9 129.8 88.21 124.5C88.08 124.22 87.96 123.93 87.84 123.66C85.08 124.44 82.3 124.96 79.5 125.25C79.52 125.55 79.54 125.84 79.52 126.15C79.41 132 74.78 136.34 69.18 135.83C63.58 135.33 59.13 130.19 59.24 124.34C59.24 124.03 59.28 123.74 59.3 123.45C56.5 122.65 53.74 121.62 51.06 120.37C50.92 120.63 50.8 120.9 50.65 121.15C47.75 125.97 41.51 127.16 36.73 123.8C31.94 120.43 30.41 113.82 33.3 109C33.46 108.75 33.62 108.51 33.79 108.3C31.67 106.18 29.69 103.87 27.84 101.4C27.61 101.53 27.37 101.69 27.12 101.82ZM88.31 102.58C106.14 93.54 112.64 70.56 102.84 51.25C93.04 31.94 70.64 23.64 52.83 32.7C35 41.74 28.5 64.72 38.3 84.03C48.1 103.34 70.48 111.64 88.31 102.58Z" fill="url(#paint_linear_39_3407_0)" fill-opacity="1.000000" fill-rule="nonzero"/>
	<path id="Vector" d="M15.2 73.32C9.6 72.81 5.15 67.68 5.27 61.83C5.38 55.97 10.01 51.64 15.61 52.14C15.9 52.16 16.19 52.22 16.49 52.26C17.07 49.36 17.87 46.53 18.88 43.78C18.62 43.63 18.37 43.47 18.12 43.3C13.34 39.93 7.41 31.83 10.79 27.33C17.21 18.8 23.84 22.49 28.64 25.86C28.89 26.03 29.12 26.21 29.34 26.4C31.22 24.3 33.3 22.38 35.56 20.61C35.4 20.35 35.25 20.08 35.11 19.81C33.64 16.91 33.52 13.72 34.49 11.02C39.12 19.17 43.69 27.35 48.16 35.58C33.95 46 29.42 66.53 38.3 84.03C45.83 98.87 60.8 107.19 75.42 106.16C76.08 107.85 76.7 109.54 77.4 111.23C79.29 115.78 81.45 120.24 83.61 124.67C82.24 124.92 80.88 125.12 79.52 125.27C79.54 125.56 79.56 125.86 79.54 126.17C79.43 132.02 75.87 136.98 65.72 136.45C60.1 136.16 59.15 130.21 59.26 124.36C59.26 124.05 59.3 123.76 59.32 123.46C56.52 122.67 53.76 121.64 51.08 120.39C50.94 120.65 50.82 120.92 50.67 121.17C47.77 125.99 37.7 128.03 32.92 124.67C28.13 121.31 30.43 113.82 33.32 109C33.48 108.75 33.64 108.51 33.81 108.3C31.69 106.18 29.71 103.87 27.86 101.4C27.63 101.55 27.37 101.69 27.12 101.82C22.22 104.31 16.04 102.02 13.36 96.71C10.65 91.4 12.44 85.06 17.36 82.57C17.61 82.44 17.87 82.34 18.14 82.22C17.22 79.29 16.54 76.31 16.08 73.36C15.79 73.36 15.49 73.36 15.2 73.32Z" fill="url(#paint_linear_39_3408_0)" fill-opacity="1.000000" fill-rule="nonzero"/>
	<path id="Vector" d="M21.83 102.41C16.93 104.9 10.75 102.6 8.07 97.29C5.36 91.98 7.15 85.65 12.07 83.16C12.32 83.02 12.58 82.92 12.85 82.81C11.94 79.87 11.26 76.9 10.79 73.94C10.52 73.94 10.22 73.94 9.93 73.9C4.33 73.4 -0.12 68.26 0 62.41C0.11 56.56 4.74 52.22 10.34 52.73C10.63 52.75 10.92 52.81 11.22 52.84C11.8 49.95 12.6 47.11 13.61 44.37C13.36 44.21 13.1 44.06 12.85 43.88C8.07 40.52 6.53 33.91 9.43 29.08C12.32 24.26 18.57 23.08 23.35 26.44C23.6 26.61 23.84 26.79 24.05 26.98C25.94 24.88 28.02 22.96 30.27 21.19C30.12 20.94 29.96 20.66 29.82 20.39C27.12 15.08 28.91 8.75 33.83 6.26C38.73 3.77 44.91 6.06 47.6 11.37C47.73 11.64 47.85 11.93 47.97 12.21C50.73 11.43 53.51 10.9 56.31 10.61C56.29 10.32 56.27 10.03 56.29 9.72C56.4 3.87 61.03 -0.47 66.63 0.04C72.23 0.54 76.68 5.67 76.57 11.53C76.57 11.84 76.53 12.13 76.51 12.42C79.31 13.22 82.07 14.25 84.75 15.49C84.89 15.24 85.01 14.97 85.16 14.72C88.06 9.89 94.3 8.71 99.08 12.07C103.87 15.43 105.4 22.05 102.51 26.87C102.35 27.12 102.19 27.35 102.02 27.57C104.14 29.69 106.12 32 107.97 34.47C108.2 34.31 108.46 34.18 108.71 34.04C113.61 31.55 119.79 33.85 122.47 39.16C125.18 44.46 123.39 50.8 118.47 53.29C118.22 53.43 117.96 53.53 117.69 53.64C118.6 56.58 119.29 59.55 119.75 62.51C120.02 62.51 120.32 62.51 120.61 62.55C126.21 63.05 130.66 68.19 130.54 74.04C130.43 79.89 125.8 84.23 120.2 83.72C119.91 83.7 119.62 83.64 119.32 83.6C118.74 86.5 117.94 89.34 116.93 92.08C117.19 92.24 117.44 92.39 117.69 92.57C122.47 95.93 124.01 102.54 121.11 107.37C118.22 112.19 111.97 113.37 107.19 110.01C106.94 109.83 106.71 109.66 106.49 109.47C104.61 111.57 102.52 113.49 100.27 115.26C100.43 115.51 100.58 115.78 100.72 116.06C103.42 121.36 101.63 127.7 96.71 130.19C91.81 132.68 85.63 130.39 82.94 125.08C82.81 124.81 82.69 124.51 82.58 124.24C79.81 125.02 77.03 125.55 74.23 125.84C74.25 126.13 74.27 126.42 74.25 126.73C74.14 132.58 69.51 136.92 63.91 136.41C58.31 135.91 53.86 130.78 53.97 124.92C53.97 124.61 54.01 124.32 54.03 124.03C51.23 123.23 48.47 122.2 45.79 120.96C45.65 121.21 45.53 121.48 45.38 121.73C42.48 126.56 36.24 127.74 31.46 124.38C26.67 121.01 25.14 114.4 28.04 109.58C28.19 109.33 28.35 109.1 28.52 108.88C26.4 106.76 24.42 104.45 22.57 101.98C22.34 102.13 22.09 102.29 21.83 102.41ZM83.02 103.18C100.85 94.14 107.35 71.16 97.55 51.85C87.75 32.55 65.35 24.24 47.54 33.3C29.71 42.34 23.21 65.33 33.01 84.64C42.81 103.92 65.21 112.25 83.02 103.18Z" fill="url(#paint_linear_39_3409_0)" fill-opacity="1.000000" fill-rule="nonzero"/>
</svg>
