<svg width="82.929688" height="83.327515" viewBox="0 0 82.9297 83.3275" fill="none" xmlns="http://www.w3.org/2000/svg" xmlns:xlink="http://www.w3.org/1999/xlink">
	<desc>
			Created with Pixso.
	</desc>
	<defs>
		<linearGradient x1="33.387131" y1="-0.374149" x2="65.075760" y2="135.811584" id="paint_linear_39_3403_0" gradientUnits="userSpaceOnUse">
			<stop stop-color="#444B8C"/>
			<stop offset="0.996400" stop-color="#26264F"/>
		</linearGradient>
		<linearGradient x1="14.694534" y1="3.975342" x2="46.383255" y2="140.161362" id="paint_linear_39_3404_0" gradientUnits="userSpaceOnUse">
			<stop stop-color="#444B8C"/>
			<stop offset="0.996400" stop-color="#26264F"/>
		</linearGradient>
		<linearGradient x1="8.471451" y1="81.449829" x2="123.085701" y2="-63.759567" id="paint_linear_39_3405_0" gradientUnits="userSpaceOnUse">
			<stop stop-color="#826F8C"/>
			<stop offset="0.996400" stop-color="#446381"/>
		</linearGradient>
	</defs>
	<path id="Vector" d="M16.56 62.14C13.57 63.66 9.8 62.26 8.16 59.03C6.51 55.78 7.62 51.92 10.61 50.4C10.77 50.32 10.92 50.26 11.08 50.19C10.52 48.4 10.11 46.59 9.82 44.78C9.64 44.78 9.47 44.78 9.29 44.76C5.87 44.45 3.17 41.32 3.22 37.74C3.3 34.16 6.12 31.52 9.54 31.83C9.72 31.85 9.89 31.87 10.07 31.91C10.42 30.14 10.92 28.41 11.53 26.74C11.37 26.64 11.22 26.54 11.06 26.44C8.14 24.4 7.19 20.36 8.98 17.4C10.75 14.47 14.56 13.75 17.48 15.79C17.63 15.89 17.77 16 17.9 16.12C19.05 14.84 20.33 13.65 21.7 12.58C21.6 12.43 21.5 12.27 21.42 12.09C19.77 8.85 17.63 5.31 20.65 3.83C27.63 0.43 30.62 3.35 32.27 6.59C32.35 6.77 32.43 6.92 32.51 7.1C34.18 6.63 35.89 6.3 37.6 6.13C37.58 5.95 37.58 5.76 37.58 5.58C37.66 2 36.59 0.08 40.03 0.02C47.52 -0.12 50.04 3.13 49.97 6.69C49.97 6.88 49.95 7.06 49.93 7.23C51.64 7.72 53.33 8.34 54.96 9.1C55.04 8.94 55.12 8.79 55.22 8.63C56.99 5.7 60.8 4.98 63.71 7.02C66.63 9.06 67.58 13.11 65.79 16.06C65.7 16.22 65.6 16.35 65.5 16.49C66.8 17.79 68.01 19.19 69.14 20.71C69.27 20.61 69.43 20.53 69.59 20.46C72.58 18.94 76.35 20.34 77.99 23.57C79.64 26.81 78.53 30.68 75.54 32.2C75.38 32.28 75.22 32.34 75.07 32.41C75.63 34.2 76.04 36.01 76.33 37.82C76.51 37.82 76.68 37.82 76.86 37.84C80.28 38.15 82.98 41.28 82.92 44.86C82.85 48.44 80.03 51.08 76.6 50.77C76.43 50.75 76.25 50.73 76.08 50.69C75.73 52.46 75.22 54.19 74.62 55.86C74.78 55.96 74.93 56.06 75.09 56.15C78 58.2 78.96 62.24 77.17 65.2C75.4 68.13 69.53 69.49 66.61 67.45C66.45 67.35 68.38 66.6 68.24 66.48C67.1 67.76 65.81 68.95 64.45 70.02C64.55 70.17 64.65 70.33 64.72 70.5C66.38 73.75 65.27 77.62 62.27 79.14C59.28 80.65 55.51 79.25 53.87 76.03C53.8 75.85 53.72 75.7 53.64 75.52C51.97 75.99 50.26 76.32 48.55 76.49C48.57 76.67 48.57 76.86 48.57 77.04C48.49 80.61 45.67 83.26 42.25 82.95C38.83 82.64 36.12 79.51 36.18 75.93C36.18 75.73 36.2 75.56 36.22 75.38C34.51 74.9 32.82 74.28 31.18 73.52C31.11 73.67 31.03 73.83 30.93 73.98C29.16 76.92 25.35 77.64 22.43 75.6C19.52 73.56 18.56 69.51 20.35 66.56C20.45 66.4 20.55 66.27 20.65 66.13C19.34 64.83 18.14 63.43 17.01 61.91C16.85 61.99 16.72 62.07 16.56 62.14ZM53.91 62.63C64.8 57.11 68.77 43.07 62.78 31.31C56.79 19.52 43.12 14.45 32.25 19.97C21.36 25.49 17.4 39.53 23.39 51.29C29.36 63.08 43.03 68.15 53.91 62.63Z" fill="url(#paint_linear_39_3403_0)" fill-opacity="1.000000" fill-rule="nonzero"/>
	<path id="Vector" d="M9.29 44.76C5.87 44.45 3.17 41.32 3.22 37.74C3.3 34.16 6.12 31.52 9.54 31.83C9.72 31.85 9.89 31.87 10.07 31.91C10.42 30.14 10.92 28.41 11.53 26.74C11.37 26.64 11.22 26.54 11.06 26.44C8.14 24.4 4.51 19.44 6.59 16.7C10.5 11.49 14.56 13.75 17.48 15.81C17.63 15.91 17.77 16.02 17.9 16.14C19.05 14.86 20.33 13.67 21.7 12.6C21.6 12.44 21.5 12.29 21.42 12.11C20.53 10.34 20.45 8.4 21.03 6.75C23.85 11.73 26.65 16.72 29.38 21.74C20.7 28.1 17.92 40.64 23.37 51.31C27.96 60.37 37.09 65.45 46.02 64.81C46.41 65.84 46.82 66.87 47.23 67.9C48.37 70.68 49.69 73.38 51.02 76.1C50.18 76.26 49.36 76.38 48.53 76.47C48.55 76.65 48.55 76.84 48.55 77.02C48.47 80.6 46.31 83.63 40.11 83.3C36.69 83.12 36.08 79.49 36.16 75.91C36.16 75.71 36.18 75.54 36.2 75.36C34.49 74.88 32.8 74.26 31.16 73.5C31.09 73.65 31.01 73.81 30.91 73.96C29.14 76.9 23 78.15 20.06 76.1C17.15 74.06 18.55 69.47 20.31 66.54C20.41 66.38 20.51 66.25 20.61 66.11C19.3 64.81 18.1 63.41 16.97 61.89C16.83 61.99 16.68 62.07 16.52 62.14C13.53 63.66 9.76 62.26 8.12 59.03C6.47 55.78 7.58 51.92 10.57 50.4C10.73 50.32 10.88 50.26 11.04 50.19C10.48 48.4 10.07 46.59 9.78 44.78C9.64 44.78 9.47 44.78 9.29 44.76Z" fill="url(#paint_linear_39_3404_0)" fill-opacity="1.000000" fill-rule="nonzero"/>
	<path id="Vector" d="M13.33 62.51C10.34 64.03 6.57 62.63 4.93 59.4C3.28 56.15 4.39 52.28 7.38 50.77C7.54 50.69 7.7 50.63 7.85 50.55C7.29 48.77 6.88 46.96 6.59 45.15C6.41 45.15 6.24 45.15 6.06 45.13C2.64 44.82 -0.06 41.69 0 38.11C0.07 34.53 2.89 31.89 6.32 32.2C6.49 32.22 6.67 32.24 6.84 32.28C7.19 30.51 7.7 28.78 8.3 27.11C8.14 27.01 7.99 26.91 7.83 26.81C4.92 24.77 3.96 20.73 5.75 17.77C7.52 14.84 11.33 14.12 14.25 16.16C14.4 16.26 14.54 16.37 14.68 16.49C15.82 15.21 17.11 14.02 18.47 12.95C18.37 12.79 18.27 12.64 18.2 12.46C16.54 9.22 17.65 5.35 20.65 3.83C23.64 2.31 27.41 3.71 29.05 6.94C29.12 7.12 29.2 7.27 29.28 7.45C30.95 6.98 32.66 6.65 34.37 6.48C34.35 6.3 34.35 6.11 34.35 5.93C34.43 2.35 37.25 -0.29 40.67 0.02C44.09 0.33 46.8 3.46 46.74 7.04C46.74 7.23 46.72 7.41 46.7 7.58C48.41 8.07 50.1 8.69 51.74 9.45C51.81 9.29 51.89 9.14 51.99 8.98C53.76 6.05 57.57 5.33 60.49 7.37C63.4 9.41 64.36 13.46 62.57 16.41C62.47 16.57 62.37 16.7 62.27 16.84C63.58 18.14 64.78 19.54 65.91 21.06C66.05 20.96 66.2 20.88 66.36 20.81C69.35 19.29 73.12 20.69 74.76 23.92C76.41 27.16 75.3 31.03 72.31 32.55C72.15 32.63 72 32.69 71.84 32.76C72.4 34.55 72.81 36.36 73.1 38.17C73.28 38.17 73.45 38.17 73.63 38.19C77.05 38.5 79.75 41.63 79.7 45.21C79.62 48.78 76.8 51.43 73.38 51.12C73.2 51.1 73.03 51.08 72.85 51.04C72.5 52.81 72 54.54 71.39 56.21C71.55 56.31 71.7 56.41 71.86 56.5C74.78 58.55 75.73 62.59 73.94 65.55C72.17 68.48 68.36 69.2 65.44 67.16C65.29 67.06 65.15 66.95 65.02 66.83C63.87 68.11 62.59 69.3 61.22 70.37C61.32 70.52 61.42 70.68 61.5 70.85C63.15 74.1 62.04 77.97 59.05 79.49C56.05 81 52.28 79.6 50.65 76.38C50.57 76.2 50.49 76.05 50.41 75.87C48.74 76.34 47.03 76.67 45.32 76.84C45.34 77.02 45.34 77.21 45.34 77.39C45.26 80.96 42.44 83.61 39.02 83.3C35.6 82.99 32.9 79.86 32.95 76.28C32.95 76.08 32.97 75.91 32.99 75.73C31.28 75.25 29.59 74.63 27.96 73.87C27.88 74.02 27.8 74.18 27.7 74.33C25.93 77.27 22.12 77.99 19.21 75.95C16.29 73.91 15.34 69.86 17.13 66.91C17.22 66.75 17.32 66.61 17.42 66.48C16.12 65.18 14.91 63.78 13.78 62.26C13.63 62.36 13.49 62.43 13.33 62.51ZM50.69 63C61.57 57.48 65.54 43.44 59.55 31.67C53.56 19.89 39.89 14.82 29.03 20.34C18.14 25.86 14.17 39.9 20.16 51.66C26.13 63.45 39.8 68.52 50.69 63Z" fill="url(#paint_linear_39_3405_0)" fill-opacity="1.000000" fill-rule="nonzero"/>
</svg>
