<svg width="19.997314" height="20.000000" viewBox="0 0 19.9973 20" fill="none" xmlns="http://www.w3.org/2000/svg" xmlns:xlink="http://www.w3.org/1999/xlink">
	<desc>
			Created with Pixso.
	</desc>
	<defs/>
	<path id="Icon awesome-instagram" d="M10.01 4.87C8.99 4.87 8 5.17 7.16 5.73C6.31 6.29 5.65 7.09 5.26 8.03C4.87 8.97 4.77 10 4.97 10.99C5.17 11.99 5.65 12.9 6.37 13.62C7.09 14.34 8 14.83 9 15.03C9.99 15.23 11.02 15.12 11.96 14.74C12.9 14.35 13.7 13.69 14.26 12.85C14.83 12 15.13 11.01 15.13 10C15.13 9.33 15 8.66 14.74 8.04C14.48 7.42 14.1 6.85 13.63 6.37C13.15 5.9 12.59 5.52 11.97 5.26C11.35 5 10.68 4.87 10.01 4.87ZM10.01 13.33C9.35 13.33 8.7 13.14 8.15 12.77C7.6 12.41 7.18 11.89 6.92 11.28C6.67 10.67 6.6 10 6.73 9.35C6.86 8.71 7.17 8.11 7.64 7.65C8.11 7.18 8.7 6.86 9.35 6.73C9.99 6.6 10.66 6.67 11.27 6.92C11.88 7.17 12.4 7.6 12.77 8.15C13.14 8.69 13.33 9.34 13.33 10C13.33 10.88 12.98 11.73 12.36 12.35C11.73 12.97 10.89 13.33 10.01 13.33ZM16.53 4.65C16.53 4.89 16.46 5.12 16.33 5.32C16.2 5.51 16.01 5.67 15.79 5.76C15.57 5.85 15.33 5.87 15.1 5.83C14.87 5.78 14.66 5.67 14.49 5.5C14.32 5.33 14.21 5.12 14.16 4.89C14.12 4.66 14.14 4.42 14.23 4.2C14.32 3.98 14.48 3.79 14.67 3.66C14.87 3.53 15.1 3.46 15.34 3.46C15.49 3.46 15.65 3.49 15.79 3.55C15.94 3.61 16.07 3.7 16.18 3.81C16.29 3.92 16.38 4.05 16.44 4.2C16.5 4.34 16.53 4.5 16.53 4.65ZM19.93 5.87C19.96 4.31 19.38 2.81 18.31 1.68C17.18 0.62 15.67 0.04 14.12 0.06C12.47 -0.03 7.52 -0.03 5.87 0.06C4.32 0.03 2.81 0.61 1.68 1.68C0.61 2.81 0.03 4.31 0.06 5.87C-0.03 7.52 -0.03 12.47 0.06 14.12C0.03 15.67 0.61 17.18 1.68 18.31C2.81 19.37 4.32 19.95 5.87 19.93C7.52 20.02 12.47 20.02 14.12 19.93C15.67 19.96 17.18 19.38 18.31 18.31C19.37 17.18 19.95 15.67 19.92 14.12C20.02 12.47 20.02 7.53 19.92 5.87L19.93 5.87ZM17.79 15.9C17.62 16.33 17.37 16.72 17.04 17.05C16.71 17.38 16.32 17.63 15.89 17.8C13.96 18.2 11.98 18.33 10.01 18.2C8.03 18.32 6.05 18.19 4.11 17.79C3.68 17.62 3.29 17.37 2.96 17.04C2.64 16.71 2.38 16.32 2.21 15.89C1.81 13.96 1.67 11.97 1.8 10C1.67 8.02 1.81 6.04 2.2 4.1C2.37 3.67 2.63 3.28 2.95 2.96C3.28 2.63 3.67 2.37 4.1 2.2C6.04 1.8 8.03 1.67 10.01 1.8C11.98 1.67 13.96 1.81 15.9 2.2C16.33 2.37 16.72 2.63 17.05 2.95C17.37 3.28 17.63 3.67 17.8 4.1C18.2 6.04 18.33 8.02 18.2 10C18.33 11.97 18.2 13.96 17.79 15.9Z" fill="#446381" fill-opacity="1.000000" fill-rule="nonzero"/>
</svg>
