<svg width="45.193237" height="45.193207" viewBox="0 0 45.1932 45.1932" fill="none" xmlns="http://www.w3.org/2000/svg" xmlns:xlink="http://www.w3.org/1999/xlink">
	<desc>
			Created with Pixso.
	</desc>
	<defs>
		<clipPath id="clip39_3473">
			<rect id="check 5" rx="0.000000" width="17.000000" height="17.000000" transform="translate(13.825684 13.876221)" fill="white" fill-opacity="0"/>
		</clipPath>
	</defs>
	<circle id="Ellipse 9" cx="22.596558" cy="22.596603" r="22.596607" fill="#FAC7B5" fill-opacity="1.000000"/>
	<circle id="Ellipse 10" cx="22.596924" cy="22.596497" r="16.433899" fill="#EB8382" fill-opacity="1.000000"/>
	<rect id="check 5" rx="0.000000" width="17.000000" height="17.000000" transform="translate(13.825684 13.876221)" fill="#FFFFFF" fill-opacity="0"/>
	<g clip-path="url(#clip39_3473)">
		<path id="Vector" d="M28.91 17.47C28.96 17.53 29 17.59 29.03 17.66C29.06 17.72 29.07 17.8 29.07 17.87C29.07 17.95 29.06 18.02 29.03 18.09C29 18.16 28.96 18.22 28.91 18.27L21.03 26.14C20.98 26.2 20.92 26.24 20.85 26.27C20.78 26.3 20.71 26.31 20.63 26.31C20.56 26.31 20.49 26.3 20.42 26.27C20.35 26.24 20.29 26.2 20.24 26.14L16.3 22.21C16.19 22.1 16.13 21.96 16.13 21.81C16.13 21.66 16.19 21.52 16.3 21.41C16.4 21.3 16.55 21.25 16.7 21.25C16.85 21.25 16.99 21.3 17.09 21.41L20.63 24.95L28.11 17.47C28.16 17.42 28.23 17.38 28.29 17.35C28.36 17.32 28.43 17.31 28.51 17.31C28.58 17.31 28.66 17.32 28.72 17.35C28.79 17.38 28.85 17.42 28.91 17.47Z" fill="#FFFFFF" fill-opacity="1.000000" fill-rule="evenodd"/>
		<path id="Vector" d="M30.04 17.57Q30.01 17.42 29.95 17.27L29.95 17.27Q29.89 17.11 29.79 16.98Q29.71 16.86 29.62 16.77Q29.51 16.66 29.38 16.57Q29.25 16.49 29.11 16.43Q28.96 16.37 28.81 16.34Q28.66 16.31 28.51 16.31Q28.35 16.31 28.2 16.34Q28.05 16.37 27.91 16.43Q27.76 16.49 27.63 16.58Q27.51 16.66 27.4 16.77L20.63 23.54L17.8 20.7Q17.69 20.59 17.57 20.51Q17.44 20.42 17.29 20.36Q17.15 20.31 17 20.28Q16.85 20.25 16.7 20.25Q16.54 20.25 16.39 20.28Q16.24 20.31 16.1 20.36Q15.95 20.42 15.83 20.51Q15.7 20.59 15.59 20.7Q15.48 20.81 15.4 20.94Q15.31 21.07 15.25 21.21Q15.19 21.35 15.16 21.5Q15.13 21.65 15.13 21.81Q15.13 21.96 15.16 22.11Q15.19 22.26 15.25 22.41Q15.31 22.55 15.4 22.68Q15.48 22.8 15.59 22.91L19.53 26.85Q19.64 26.96 19.76 27.05Q19.89 27.13 20.04 27.19Q20.18 27.25 20.33 27.28Q20.48 27.31 20.63 27.31Q20.79 27.31 20.94 27.28Q21.09 27.25 21.23 27.19Q21.38 27.13 21.52 27.04Q21.64 26.96 21.74 26.85L29.61 18.98Q29.72 18.87 29.81 18.74Q29.89 18.61 29.95 18.47Q30.01 18.33 30.04 18.18Q30.07 18.03 30.07 17.87Q30.07 17.72 30.04 17.57ZM21.34 24.24L28.11 17.47C28.16 17.42 28.23 17.38 28.29 17.35C28.36 17.32 28.43 17.31 28.51 17.31C28.58 17.31 28.66 17.32 28.72 17.35C28.79 17.38 28.85 17.42 28.91 17.47C28.96 17.53 29 17.59 29.03 17.66C29.06 17.72 29.07 17.8 29.07 17.87C29.07 17.95 29.06 18.02 29.03 18.09C29 18.16 28.96 18.22 28.91 18.27L21.03 26.14C20.98 26.2 20.92 26.24 20.85 26.27C20.8 26.29 20.75 26.3 20.69 26.31C20.67 26.31 20.65 26.31 20.63 26.31C20.61 26.31 20.59 26.31 20.58 26.31C20.52 26.3 20.47 26.29 20.42 26.27C20.35 26.24 20.29 26.2 20.24 26.14L16.3 22.21C16.19 22.1 16.13 21.96 16.13 21.81C16.13 21.66 16.19 21.52 16.3 21.41C16.4 21.3 16.55 21.25 16.7 21.25C16.85 21.25 16.99 21.3 17.09 21.41L19.93 24.24L20.63 24.95L21.34 24.24Z" fill="#FFFFFF" fill-opacity="1.000000" fill-rule="evenodd"/>
	</g>
</svg>
