<svg width="20.000000" height="16.245667" viewBox="0 0 20 16.2457" fill="none" xmlns="http://www.w3.org/2000/svg" xmlns:xlink="http://www.w3.org/1999/xlink">
	<desc>
			Created with Pixso.
	</desc>
	<defs/>
	<path id="Icon awesome-twitter" d="M17.94 4.04C17.95 4.22 17.95 4.4 17.95 4.58C17.97 6.11 17.67 7.63 17.09 9.05C16.51 10.47 15.65 11.76 14.56 12.85C13.48 13.93 12.19 14.79 10.77 15.37C9.35 15.96 7.83 16.25 6.29 16.24C4.06 16.24 1.87 15.6 0 14.4C0.32 14.43 0.65 14.45 0.99 14.45C2.83 14.45 4.62 13.83 6.08 12.7C5.22 12.68 4.39 12.4 3.7 11.89C3.02 11.38 2.5 10.67 2.24 9.86C2.5 9.9 2.76 9.92 3.01 9.92C3.38 9.92 3.74 9.87 4.09 9.78C3.16 9.59 2.33 9.09 1.73 8.35C1.13 7.62 0.81 6.7 0.81 5.76L0.81 5.71C1.38 6.02 2.01 6.2 2.66 6.23C1.79 5.65 1.17 4.76 0.94 3.74C0.7 2.72 0.86 1.65 1.39 0.74C2.42 2.01 3.7 3.05 5.16 3.78C6.62 4.52 8.21 4.95 9.84 5.03C9.78 4.72 9.74 4.41 9.74 4.09C9.74 3.27 9.99 2.47 10.46 1.79C10.92 1.11 11.57 0.58 12.34 0.28C13.1 -0.02 13.94 -0.09 14.74 0.09C15.55 0.27 16.28 0.69 16.84 1.29C17.76 1.11 18.64 0.78 19.44 0.3C19.13 1.25 18.49 2.05 17.64 2.56C18.45 2.46 19.25 2.25 20 1.92C19.44 2.74 18.74 3.46 17.94 4.04Z" fill="#446381" fill-opacity="1.000000" fill-rule="nonzero"/>
</svg>
