<svg width="539.530518" height="308.599976" viewBox="0 0 539.531 308.6" fill="none" xmlns="http://www.w3.org/2000/svg" xmlns:xlink="http://www.w3.org/1999/xlink">
	<desc>
			Created with Pixso.
	</desc>
	<defs/>
	<path id="VR" d="M162.85 300.6L108.93 300.6C103.5 300.6 99.32 298.09 97.64 292.65L8.61 19.28C6.52 12.59 9.86 8 16.97 8L58.77 8C64.2 8 68.38 10.5 70.06 16.36L136.1 233.72L201.73 16.36C203.4 10.5 207.58 8 213.01 8L254.81 8C261.92 8 265.26 12.59 263.17 19.28L174.14 292.65C172.47 298.09 168.7 300.6 162.85 300.6ZM448.28 189.83L528.95 288.47C533.97 294.74 531.46 300.6 523.1 300.6L478.79 300.6C473.36 300.6 469.6 299.34 466.25 294.74L388.5 199.44L352.56 199.44L352.56 290.98C352.56 297.25 349.21 300.6 342.52 300.6L304.9 300.6C298.63 300.6 295.29 297.25 295.29 290.98L295.29 18.03C295.29 11.76 298.63 8 304.9 8L406.06 8C459.56 8 503.04 51.47 503.04 105.39C503.04 141.75 480.88 174.36 448.28 189.83ZM406.06 61.92L352.56 61.92L352.56 148.44L406.06 148.44C427.8 148.44 445.77 129.63 445.77 105.39C445.77 81.15 427.8 61.92 406.06 61.92Z" fill="#EB8382" fill-opacity="0" fill-rule="evenodd"/>
	<path id="VR" d="M108.93 300.6L162.85 300.6C168.7 300.6 172.47 298.09 174.14 292.65L263.17 19.28C265.26 12.59 261.92 8 254.81 8L213.01 8C207.58 8 203.4 10.5 201.73 16.36L136.1 233.72L70.06 16.36C68.38 10.5 64.2 8 58.77 8L16.97 8C9.86 8 6.52 12.59 8.61 19.28L97.64 292.65C99.32 298.09 103.5 300.6 108.93 300.6ZM528.95 288.47L448.28 189.83C480.88 174.36 503.04 141.75 503.04 105.39C503.04 51.47 459.56 8 406.06 8L352.56 8L304.9 8C298.63 8 295.29 11.76 295.29 18.03L295.29 290.98C295.29 297.25 298.63 300.6 304.9 300.6L342.52 300.6C349.21 300.6 352.56 297.25 352.56 290.98L352.56 199.44L388.5 199.44L466.25 294.74C469.6 299.34 473.36 300.6 478.79 300.6L523.1 300.6C531.46 300.6 533.97 294.74 528.95 288.47L528.95 288.47ZM352.56 61.92L406.06 61.92C427.8 61.92 445.77 81.15 445.77 105.39C445.77 129.63 427.8 148.44 406.06 148.44L352.56 148.44L352.56 61.92Z" stroke="#EB8382" stroke-opacity="1.000000" stroke-width="8.000000"/>
</svg>
