<svg width="84.836060" height="49.000000" viewBox="0 0 84.8361 49" fill="none" xmlns="http://www.w3.org/2000/svg" xmlns:xlink="http://www.w3.org/1999/xlink">
	<desc>
			Created with Pixso.
	</desc>
	<defs>
		<linearGradient x1="58.052006" y1="-13.286362" x2="47.474728" y2="30.609665" id="paint_linear_39_2332_0" gradientUnits="userSpaceOnUse">
			<stop stop-color="#EEBA9C"/>
			<stop offset="0.989200" stop-color="#EB8382"/>
		</linearGradient>
		<linearGradient x1="15.102055" y1="8.232246" x2="68.809265" y2="55.875710" id="paint_linear_39_2333_0" gradientUnits="userSpaceOnUse">
			<stop stop-color="#826F8C"/>
			<stop offset="0.994600" stop-color="#446381"/>
		</linearGradient>
		<linearGradient x1="18.724388" y1="4.592438" x2="46.225510" y2="69.466904" id="paint_linear_39_2334_0" gradientUnits="userSpaceOnUse">
			<stop stop-color="#E474C6"/>
			<stop offset="0.989200" stop-color="#0E7CF7"/>
		</linearGradient>
		<linearGradient x1="26.653671" y1="13.378693" x2="34.762970" y2="61.329525" id="paint_linear_39_2335_0" gradientUnits="userSpaceOnUse">
			<stop stop-color="#D2F9FF"/>
			<stop offset="0.994600" stop-color="#618DD6"/>
		</linearGradient>
		<linearGradient x1="35.944847" y1="5.530955" x2="42.820099" y2="19.634014" id="paint_linear_39_2336_0" gradientUnits="userSpaceOnUse">
			<stop stop-color="#6F469E"/>
			<stop offset="1.000000" stop-color="#360F6E"/>
		</linearGradient>
		<linearGradient x1="41.650291" y1="48.504692" x2="-36.211929" y2="-75.036530" id="paint_linear_39_2338_0" gradientUnits="userSpaceOnUse">
			<stop stop-color="#D2F9FF"/>
			<stop offset="0.436400" stop-color="#A0CAED"/>
			<stop offset="0.994600" stop-color="#618DD6"/>
		</linearGradient>
		<linearGradient x1="57.149712" y1="49.642982" x2="-19.712341" y2="-45.376839" id="paint_linear_39_2339_0" gradientUnits="userSpaceOnUse">
			<stop stop-color="#D2F9FF"/>
			<stop offset="0.994600" stop-color="#618DD6"/>
		</linearGradient>
		<linearGradient x1="25.941021" y1="22.667725" x2="15.828671" y2="68.662384" id="paint_linear_39_2340_0" gradientUnits="userSpaceOnUse">
			<stop stop-color="#95C5FF" stop-opacity="0.000000"/>
			<stop offset="0.166700" stop-color="#ABD2FD"/>
			<stop offset="0.525600" stop-color="#9CC9FE" stop-opacity="0.450980"/>
			<stop offset="0.822600" stop-color="#95C5FF" stop-opacity="0.000000"/>
		</linearGradient>
	</defs>
	<path id="Vector" d="M32.37 9.73L16.86 8.6C44.05 1.84 63.56 -0.59 70.1 0.11C76.65 0.81 83.89 4.87 84.43 12.44C84.97 20 84.81 24.87 84.81 24.87C83.4 30.55 68.86 37.09 68.86 37.09C68.86 37.09 64.75 30.17 64.64 25.95C64.54 21.73 65.35 18.76 65.35 18.76C68.37 17.52 74.65 15.79 76.27 12.38C80.7 3.08 58.59 5.73 55.02 6.11C47.45 6.92 39.83 8.06 32.37 9.73Z" fill="url(#paint_linear_39_2332_0)" fill-opacity="1.000000" fill-rule="nonzero"/>
	<path id="Vector" d="M0.86 19.14C1.83 16.28 3.51 13.57 6.21 12.44C6.21 12.44 6.26 12.44 6.26 12.38L19.35 6.6C20.16 6.17 21.08 5.9 22.05 5.79C28.59 5.19 35.72 6.82 42.48 7.9C42.7 7.95 42.91 7.95 43.13 8C43.35 8.06 43.56 8.11 43.78 8.17C50.59 9.68 57.67 10.82 64.32 13.95C68.32 15.84 70.81 20.11 72.16 24.11C74.38 30.87 73.29 38.44 68.48 41.47L68.43 41.47C67.78 41.84 67.13 42.17 66.37 42.38L54.16 48.01C52.48 48.87 50.48 49.2 48.05 48.87C40.37 47.84 30.1 45.74 30.1 45.74C30.1 45.74 19.89 43.9 12.16 42.01C1.78 39.36 -1.85 27.25 0.86 19.14Z" fill="url(#paint_linear_39_2333_0)" fill-opacity="1.000000" fill-rule="nonzero"/>
	<path id="Vector" d="M0.86 19.14C2.05 15.63 4.37 12.27 8.37 11.9C14.91 11.3 22.05 12.92 28.81 14C29.02 14.06 29.24 14.06 29.45 14.11C29.67 14.17 29.89 14.22 30.1 14.27C36.91 15.79 44 16.92 50.64 20.06C54.64 21.95 57.13 26.22 58.48 30.22C61.51 39.41 58.37 50.22 48 48.82C40.32 47.79 30.05 45.68 30.05 45.68C30.05 45.68 19.83 43.84 12.1 41.95C1.78 39.36 -1.85 27.25 0.86 19.14Z" fill="url(#paint_linear_39_2334_0)" fill-opacity="1.000000" fill-rule="nonzero"/>
	<path id="Vector" d="M3.29 20.44C4.37 17.3 6.48 14.33 10.1 14C16.05 13.52 22.53 14.92 28.7 15.9C28.91 15.95 29.08 15.95 29.29 16C29.51 16.06 29.67 16.11 29.89 16.11C36.05 17.46 42.54 18.49 48.54 21.25C52.21 22.92 54.43 26.71 55.67 30.28C58.43 38.44 55.56 48.01 46.16 46.82C39.18 45.9 29.89 44.01 29.89 44.01C29.89 44.01 20.59 42.38 13.56 40.65C4.1 38.33 0.86 27.63 3.29 20.44Z" fill="url(#paint_linear_39_2335_0)" fill-opacity="1.000000" fill-rule="nonzero"/>
	<path id="Vector" d="M30.53 11.3L36.16 9.41C36.37 9.36 36.64 9.3 36.91 9.41L47.24 11.68C47.62 11.73 47.78 12.22 47.45 12.33L41.83 14.22C41.62 14.27 41.35 14.33 41.08 14.22L30.75 11.95C30.43 11.9 30.21 11.41 30.53 11.3Z" fill="url(#paint_linear_39_2336_0)" fill-opacity="1.000000" fill-rule="nonzero"/>
	<path id="Vector" d="M28.7 15.9C28.91 15.95 29.08 15.95 29.29 16C29.51 16.06 29.67 16.11 29.89 16.11L42.1 46.22C36.81 45.41 31.4 44.33 30.1 44.06L17.94 14.22C21.56 14.65 25.18 15.36 28.7 15.9Z" fill="url(#paint_linear_39_2338_0)" fill-opacity="1.000000" fill-rule="nonzero"/>
	<path id="Vector" d="M41.29 18.65L52.32 45.68C50.7 46.65 48.7 47.14 46.16 46.82C46 46.82 45.78 46.76 45.56 46.76L33.4 16.92C36.05 17.41 38.7 17.95 41.29 18.65Z" fill="url(#paint_linear_39_2339_0)" fill-opacity="1.000000" fill-rule="nonzero"/>
</svg>
